<svg width="50" height="50" viewBox="0 0 50 50" fill="none" xmlns="http://www.w3.org/2000/svg">
<path d="M25 35.4166C26.1051 35.4166 27.1649 34.9776 27.9463 34.1962C28.7277 33.4148 29.1667 32.355 29.1667 31.2499C29.1667 30.1448 28.7277 29.085 27.9463 28.3036C27.1649 27.5222 26.1051 27.0833 25 27.0833C23.895 27.0833 22.8352 27.5222 22.0538 28.3036C21.2724 29.085 20.8334 30.1448 20.8334 31.2499C20.8334 32.355 21.2724 33.4148 22.0538 34.1962C22.8352 34.9776 23.895 35.4166 25 35.4166ZM37.5 16.6666C38.6051 16.6666 39.6649 17.1056 40.4463 17.887C41.2277 18.6684 41.6667 19.7282 41.6667 20.8333V41.6666C41.6667 42.7717 41.2277 43.8315 40.4463 44.6129C39.6649 45.3943 38.6051 45.8333 37.5 45.8333H12.5C11.395 45.8333 10.3352 45.3943 9.55376 44.6129C8.77236 43.8315 8.33337 42.7717 8.33337 41.6666V20.8333C8.33337 19.7282 8.77236 18.6684 9.55376 17.887C10.3352 17.1056 11.395 16.6666 12.5 16.6666H14.5834V12.4999C14.5834 9.73725 15.6808 7.08773 17.6343 5.13422C19.5878 3.18072 22.2374 2.08325 25 2.08325C26.368 2.08325 27.7225 2.35269 28.9863 2.87617C30.2501 3.39966 31.3985 4.16695 32.3657 5.13422C33.333 6.1015 34.1003 7.24982 34.6238 8.51363C35.1473 9.77744 35.4167 11.132 35.4167 12.4999V16.6666H37.5ZM25 6.24992C23.3424 6.24992 21.7527 6.9084 20.5806 8.0805C19.4085 9.2526 18.75 10.8423 18.75 12.4999V16.6666H31.25V12.4999C31.25 10.8423 30.5916 9.2526 29.4195 8.0805C28.2474 6.9084 26.6576 6.24992 25 6.24992Z" fill="#D27C2C"/>
</svg>
