<svg width="50" height="50" viewBox="0 0 50 50" fill="none" xmlns="http://www.w3.org/2000/svg">
<path d="M39.9468 3.80151H10.0515C6.61401 3.80151 3.80151 6.61401 3.80151 10.0515V39.95C3.80151 43.3875 6.61401 46.2 10.0515 46.2H39.95C43.3875 46.2 46.2 43.3875 46.2 39.95V10.0515C46.1968 6.61401 43.3875 3.80151 39.9468 3.80151ZM39.5453 26.4312H34.514V44.6343H26.9859V26.4312H23.2203V20.1562H26.9859V16.3906C26.9859 11.2718 29.1109 8.22651 35.1578 8.22651H40.1843V14.5H37.0406C34.6906 14.5 34.5343 15.3796 34.5343 17.0156L34.514 20.1562H40.2093L39.5453 26.4312Z" fill="#D27C2C"/>
</svg>
