<svg width="50" height="50" viewBox="0 0 50 50" fill="none" xmlns="http://www.w3.org/2000/svg">
<path d="M45.8125 13.6397C45.7951 12.7459 45.7234 11.8539 45.5979 10.9688C45.4482 10.1815 45.1939 9.41782 44.8416 8.698C44.0705 7.17571 42.8343 5.93878 41.3125 5.16675C40.5973 4.81615 39.8385 4.56252 39.0562 4.41258C38.1643 4.28442 37.2654 4.21136 36.3645 4.19383C35.9833 4.17925 35.4895 4.173 35.2604 4.173L14.7437 4.16675C14.5145 4.16675 14.0208 4.173 13.6395 4.18758C12.7457 4.2048 11.8538 4.27646 10.9687 4.40216C10.1814 4.55183 9.4177 4.80617 8.69788 5.15841C7.17567 5.92967 5.93878 7.16583 5.16663 8.68758C4.81612 9.40282 4.5625 10.1616 4.41246 10.9438C4.28372 11.8357 4.20997 12.7346 4.19163 13.6355C4.17913 14.0167 4.17079 14.5105 4.17079 14.7397L4.16663 35.2563C4.16663 35.4855 4.17288 35.9792 4.18746 36.3605C4.20468 37.2543 4.27634 38.1462 4.40204 39.0313C4.55173 39.8186 4.80607 40.5823 5.15829 41.3022C5.92954 42.8244 7.16571 44.0613 8.68746 44.8334C9.40272 45.1839 10.1615 45.4375 10.9437 45.5876C11.8356 45.7158 12.7345 45.7888 13.6354 45.8063C14.0166 45.8209 14.5104 45.8272 14.7395 45.8272L35.2562 45.8313C35.4854 45.8313 35.9791 45.8251 36.3604 45.8105C37.2542 45.7932 38.1461 45.7215 39.0312 45.5959C39.8185 45.4461 40.5822 45.1918 41.302 44.8397C42.825 44.0688 44.0627 42.8326 44.8354 41.3105C45.1859 40.5953 45.4395 39.8365 45.5895 39.0542C45.7183 38.1624 45.7921 37.2635 45.8104 36.3626C45.8229 35.9813 45.8312 35.4876 45.8312 35.2584L45.8333 14.7438C45.8333 14.5147 45.827 14.0209 45.8125 13.6397ZM25.452 39.4938H25.4458C22.9659 39.4933 20.5257 38.8716 18.3479 37.6855L10.4729 39.7501L12.5812 32.0563C10.9488 29.2237 10.2966 25.9316 10.7256 22.6905C11.1546 19.4494 12.6409 16.4404 14.9541 14.1299C17.2672 11.8195 20.278 10.3368 23.5196 9.91163C26.7612 9.48648 30.0525 10.1426 32.8833 11.7784C35.714 13.4142 37.926 15.9381 39.1763 18.959C40.4266 21.9798 40.6454 25.3287 39.7987 28.4866C38.952 31.6444 37.0871 34.4347 34.4933 36.4248C31.8994 38.4149 28.7214 39.4937 25.452 39.4938Z" fill="#D27C2C"/>
<path d="M25.4583 12.2938C23.2523 12.2932 21.0863 12.8836 19.1857 14.0036C17.2851 15.1236 15.7192 16.7324 14.651 18.6626C13.5828 20.5927 13.0511 22.7739 13.1114 24.9791C13.1717 27.1844 13.8217 29.3332 14.9938 31.2022L15.2875 31.6688L14.0396 36.223L18.7125 34.998L19.1625 35.2647C21.0648 36.3913 23.235 36.9856 25.4458 36.9855H25.4521C28.7267 36.9861 31.8674 35.6858 34.1833 33.3707C36.4991 31.0556 37.8005 27.9153 37.801 24.6407C37.8016 21.3661 36.5013 18.2254 34.1862 15.9095C31.8711 13.5937 28.7308 12.2923 25.4563 12.2917L25.4583 12.2938ZM32.7167 29.9397C32.4436 30.3906 32.0801 30.7802 31.6492 31.0839C31.2182 31.3876 30.7291 31.5988 30.2125 31.7042C29.4326 31.838 28.6322 31.7881 27.875 31.5584C27.1569 31.3346 26.451 31.0732 25.7604 30.7751C23.1974 29.4888 21.0127 27.5583 19.4208 25.173C18.5525 24.0688 18.0253 22.735 17.9042 21.3355C17.8942 20.7578 18.0046 20.1844 18.2284 19.6517C18.4522 19.1191 18.7845 18.6389 19.2042 18.2417C19.3282 18.1003 19.4801 17.986 19.6504 17.906C19.8207 17.8261 20.0057 17.7822 20.1938 17.7772C20.4396 17.7772 20.6875 17.7772 20.9042 17.7897C21.1333 17.8001 21.4375 17.7022 21.7375 18.4272C22.05 19.1688 22.7917 20.9959 22.8833 21.1813C22.9422 21.2785 22.9759 21.3889 22.9813 21.5024C22.9868 21.6159 22.9638 21.7289 22.9146 21.8313C22.8211 22.0542 22.6962 22.2626 22.5438 22.4501C22.3563 22.6667 22.1542 22.9334 21.9875 23.1001C21.8 23.2855 21.6083 23.4855 21.8229 23.8563C22.3803 24.8106 23.076 25.677 23.8875 26.4272C24.768 27.21 25.7783 27.8332 26.8729 28.2688C27.2438 28.4563 27.4604 28.423 27.6771 28.1751C27.8938 27.9272 28.6042 27.0917 28.8521 26.7209C29.1 26.3501 29.3458 26.4126 29.6854 26.5355C30.025 26.6584 31.8521 27.5563 32.2229 27.7438C32.5938 27.9313 32.8417 28.0209 32.9333 28.1751C33.0349 28.7718 32.9596 29.3852 32.7167 29.9397Z" fill="#D27C2C"/>
</svg>
