<svg width="27" height="23" viewBox="0 0 27 23" fill="none" xmlns="http://www.w3.org/2000/svg">
<path d="M22.95 1.12305H4.04998C2.56498 1.12305 1.34998 2.13825 1.34998 3.37905V19.171C1.34998 20.413 2.56498 21.427 4.04998 21.427H13.5V13.531H10.8V10.7392H13.5V8.42685C13.5 5.98585 15.1362 4.27129 18.5841 4.27129L21.0181 4.27355V7.21199H19.4022C18.0603 7.21199 17.55 8.05348 17.55 8.83405V10.7404H21.0168L20.25 13.531H17.55V21.427H22.95C24.435 21.427 25.65 20.413 25.65 19.171V3.37905C25.65 2.13825 24.435 1.12305 22.95 1.12305Z" fill="#3F4E4F"/>
</svg>
