<svg width="27" height="26" viewBox="0 0 27 26" fill="none" xmlns="http://www.w3.org/2000/svg">
<g clip-path="url(#clip0_538_1526)">
<path d="M3.85714 1.61133C1.72969 1.61133 0 3.05658 0 4.83418V20.9485C0 22.7261 1.72969 24.1713 3.85714 24.1713H23.1429C25.2703 24.1713 27 22.7261 27 20.9485V4.83418C27 3.05658 25.2703 1.61133 23.1429 1.61133H3.85714ZM21.1721 10.0361C21.1721 14.402 17.1944 19.4327 9.92612 19.4327C7.68415 19.4327 5.60491 18.8889 3.85714 17.9522C4.17656 17.9824 4.48393 17.9925 4.80938 17.9925C6.6596 17.9925 8.35915 17.4688 9.71518 16.5825C7.97946 16.5523 6.52098 15.6005 6.02076 14.2913C6.62946 14.3668 7.1779 14.3668 7.80469 14.2308C5.99665 13.9236 4.64063 12.5942 4.64063 10.9878V10.9475C5.16496 11.1943 5.77969 11.3454 6.42455 11.3655C5.88214 11.0634 5.43616 10.6555 5.12879 10.1771C4.82143 9.69868 4.65871 9.15986 4.66473 8.61601C4.66473 8.00165 4.85759 7.43765 5.20112 6.94918C7.14777 8.9534 10.0708 10.2627 13.3493 10.4037C12.7888 8.16279 14.7958 6.3449 17.2065 6.3449C18.3455 6.3449 19.3701 6.74272 20.0933 7.38729C20.9853 7.24629 21.8411 6.96933 22.6004 6.59165C22.3051 7.35708 21.6844 8.00165 20.8647 8.40954C21.6603 8.33904 22.4317 8.15272 23.1429 7.8959C22.6065 8.55558 21.9315 9.13972 21.16 9.60804C21.1721 9.74904 21.1721 9.89508 21.1721 10.0361Z" fill="#3F4E4F"/>
</g>
<defs>
<clipPath id="clip0_538_1526">
<rect width="27" height="25.7829" fill="white"/>
</clipPath>
</defs>
</svg>
