<svg width="28" height="23" viewBox="0 0 28 23" fill="none" xmlns="http://www.w3.org/2000/svg">
<path d="M8.41301 0.323242H19.753C24.073 0.323242 27.583 3.25604 27.583 6.86565V16.3409C27.583 18.076 26.7581 19.7401 25.2897 20.967C23.8212 22.194 21.8297 22.8833 19.753 22.8833H8.41301C4.09301 22.8833 0.583008 19.9505 0.583008 16.3409V6.86565C0.583008 5.13049 1.40795 3.46641 2.87636 2.23947C4.34477 1.01253 6.33636 0.323242 8.41301 0.323242ZM8.14301 2.57924C6.85406 2.57924 5.6179 3.00708 4.70647 3.76862C3.79504 4.53017 3.28301 5.56305 3.28301 6.64005V16.5665C3.28301 18.8112 5.45651 20.6273 8.14301 20.6273H20.023C21.312 20.6273 22.5481 20.1994 23.4595 19.4379C24.371 18.6763 24.883 17.6434 24.883 16.5665V6.64005C24.883 4.39532 22.7095 2.57924 20.023 2.57924H8.14301ZM21.1705 4.27124C21.6181 4.27124 22.0473 4.4198 22.3638 4.68422C22.6802 4.94865 22.858 5.30729 22.858 5.68125C22.858 6.0552 22.6802 6.41384 22.3638 6.67827C22.0473 6.94269 21.6181 7.09125 21.1705 7.09125C20.723 7.09125 20.2937 6.94269 19.9773 6.67827C19.6608 6.41384 19.483 6.0552 19.483 5.68125C19.483 5.30729 19.6608 4.94865 19.9773 4.68422C20.2937 4.4198 20.723 4.27124 21.1705 4.27124ZM14.083 5.96325C15.8732 5.96325 17.5901 6.55746 18.856 7.61516C20.1218 8.67287 20.833 10.1074 20.833 11.6032C20.833 13.0991 20.1218 14.5336 18.856 15.5913C17.5901 16.649 15.8732 17.2433 14.083 17.2433C12.2928 17.2433 10.5759 16.649 9.31004 15.5913C8.04417 14.5336 7.33301 13.0991 7.33301 11.6032C7.33301 10.1074 8.04417 8.67287 9.31004 7.61516C10.5759 6.55746 12.2928 5.96325 14.083 5.96325ZM14.083 8.21925C13.0089 8.21925 11.9787 8.57577 11.2192 9.2104C10.4597 9.84502 10.033 10.7058 10.033 11.6032C10.033 12.5007 10.4597 13.3615 11.2192 13.9961C11.9787 14.6307 13.0089 14.9873 14.083 14.9873C15.1571 14.9873 16.1873 14.6307 16.9468 13.9961C17.7063 13.3615 18.133 12.5007 18.133 11.6032C18.133 10.7058 17.7063 9.84502 16.9468 9.2104C16.1873 8.57577 15.1571 8.21925 14.083 8.21925Z" fill="#3F4E4F"/>
</svg>
