<svg width="27" height="26" viewBox="0 0 27 26" fill="none" xmlns="http://www.w3.org/2000/svg">
<path d="M22.95 1.91357H4.04998C2.56498 1.91357 1.34998 3.02327 1.34998 4.37957V21.6416C1.34998 22.9991 2.56498 24.1076 4.04998 24.1076H13.5V15.4766H10.8V12.4249H13.5V9.89725C13.5 7.22904 15.1362 5.35488 18.5841 5.35488L21.0181 5.35734V8.56931H19.4022C18.0603 8.56931 17.55 9.48913 17.55 10.3424V12.4261H21.0168L20.25 15.4766H17.55V24.1076H22.95C24.435 24.1076 25.65 22.9991 25.65 21.6416V4.37957C25.65 3.02327 24.435 1.91357 22.95 1.91357Z" fill="#3F4E4F"/>
</svg>
