<svg width="27" height="29" viewBox="0 0 27 29" fill="none" xmlns="http://www.w3.org/2000/svg">
<g clip-path="url(#clip0_538_1346)">
<path d="M3.85714 2.26123C1.72969 2.26123 0 3.84101 0 5.78409V23.3984C0 25.3415 1.72969 26.9212 3.85714 26.9212H23.1429C25.2703 26.9212 27 25.3415 27 23.3984V5.78409C27 3.84101 25.2703 2.26123 23.1429 2.26123H3.85714ZM21.1721 11.4702C21.1721 16.2426 17.1944 21.7415 9.92612 21.7415C7.68415 21.7415 5.60491 21.147 3.85714 20.1232C4.17656 20.1562 4.48393 20.1673 4.80938 20.1673C6.6596 20.1673 8.35915 19.5948 9.71518 18.626C7.97946 18.593 6.52098 17.5526 6.02076 16.1215C6.62946 16.204 7.1779 16.204 7.80469 16.0554C5.99665 15.7196 4.64063 14.2665 4.64063 12.5105V12.4665C5.16496 12.7362 5.77969 12.9014 6.42455 12.9234C5.88214 12.5931 5.43616 12.1472 5.12879 11.6243C4.82143 11.1014 4.65871 10.5124 4.66473 9.91794C4.66473 9.2464 4.85759 8.6299 5.20112 8.09596C7.14777 10.2867 10.0708 11.7179 13.3493 11.872C12.7888 9.42254 14.7958 7.43543 17.2065 7.43543C18.3455 7.43543 19.3701 7.87028 20.0933 8.57485C20.9853 8.42073 21.8411 8.11798 22.6004 7.70515C22.3051 8.54182 21.6844 9.2464 20.8647 9.69226C21.6603 9.6152 22.4317 9.41153 23.1429 9.1308C22.6065 9.85189 21.9315 10.4904 21.16 11.0023C21.1721 11.1564 21.1721 11.3161 21.1721 11.4702Z" fill="#3F4E4F"/>
</g>
<defs>
<clipPath id="clip0_538_1346">
<rect width="27" height="28.1829" fill="white" transform="translate(0 0.5)"/>
</clipPath>
</defs>
</svg>
