<svg width="30" height="30" viewBox="0 0 30 30" fill="none" xmlns="http://www.w3.org/2000/svg">
<g clip-path="url(#clip0_538_1358)">
<path fill-rule="evenodd" clip-rule="evenodd" d="M3.75 7.01915H26.25C26.4986 7.01915 26.7371 7.114 26.9129 7.28283C27.0887 7.45166 27.1875 7.68065 27.1875 7.91941V8.94931L15 15.6365L2.8125 8.94931V7.91941C2.8125 7.68065 2.91127 7.45166 3.08709 7.28283C3.2629 7.114 3.50136 7.01915 3.75 7.01915ZM2.8125 12.0606V22.3236C2.8125 22.5624 2.91127 22.7914 3.08709 22.9602C3.2629 23.129 3.50136 23.2239 3.75 23.2239H26.25C26.4986 23.2239 26.7371 23.129 26.9129 22.9602C27.0887 22.7914 27.1875 22.5624 27.1875 22.3236V12.0606L15.6975 18.3625L15 18.7478L14.3025 18.3625L2.8125 12.0606ZM0 7.91941C0 6.96435 0.395088 6.04841 1.09835 5.37308C1.80161 4.69775 2.75544 4.31836 3.75 4.31836H26.25C27.2446 4.31836 28.1984 4.69775 28.9016 5.37308C29.6049 6.04841 30 6.96435 30 7.91941V22.3236C30 23.2787 29.6049 24.1946 28.9016 24.8699C28.1984 25.5453 27.2446 25.9247 26.25 25.9247H3.75C2.75544 25.9247 1.80161 25.5453 1.09835 24.8699C0.395088 24.1946 0 23.2787 0 22.3236V7.91941Z" fill="#3F4E4F"/>
</g>
<defs>
<clipPath id="clip0_538_1358">
<rect width="30" height="28.8084" fill="white" transform="translate(0 0.717285)"/>
</clipPath>
</defs>
</svg>
