<svg width="30" height="30" viewBox="0 0 30 30" fill="none" xmlns="http://www.w3.org/2000/svg">
<path d="M15 4.41144C12.6794 4.41144 10.4538 5.2967 8.81282 6.87246C7.17187 8.44823 6.25 10.5854 6.25 12.8139C6.25 16.2493 8.4775 19.5635 10.9225 22.131C12.1733 23.4383 13.5374 24.6414 15 25.7273C16.4626 24.6422 17.8266 23.44 19.0775 22.1334C21.5225 19.5635 23.75 16.2505 23.75 12.8139C23.75 10.5854 22.8281 8.44823 21.1872 6.87246C19.5462 5.2967 17.3206 4.41144 15 4.41144ZM15 28.6753L14.2912 28.2072L14.2875 28.2048L14.28 28.1988L14.255 28.182L14.1613 28.1184C13.6437 27.7571 13.1376 27.3808 12.6437 26.99C11.378 25.9915 10.1863 24.9094 9.0775 23.7515C6.5225 21.0675 3.75 17.1796 3.75 12.8139C3.75 9.94872 4.93526 7.2009 7.04505 5.17491C9.15483 3.14893 12.0163 2.01074 15 2.01074C17.9837 2.01074 20.8452 3.14893 22.955 5.17491C25.0647 7.2009 26.25 9.94872 26.25 12.8139C26.25 17.1796 23.4775 21.0687 20.9225 23.7515C19.4748 25.2635 17.8866 26.6457 16.1775 27.8807C16.0351 27.9829 15.8913 28.0833 15.7463 28.182L15.72 28.1988L15.7125 28.2048L15.71 28.206L15 28.6741V28.6753ZM15 10.4132C14.337 10.4132 13.7011 10.6661 13.2322 11.1163C12.7634 11.5666 12.5 12.1772 12.5 12.8139C12.5 13.4506 12.7634 14.0612 13.2322 14.5114C13.7011 14.9617 14.337 15.2146 15 15.2146C15.663 15.2146 16.2989 14.9617 16.7678 14.5114C17.2366 14.0612 17.5 13.4506 17.5 12.8139C17.5 12.1772 17.2366 11.5666 16.7678 11.1163C16.2989 10.6661 15.663 10.4132 15 10.4132ZM10 12.8139C10 11.5405 10.5268 10.3192 11.4645 9.41879C12.4021 8.51836 13.6739 8.01249 15 8.01249C16.3261 8.01249 17.5979 8.51836 18.5355 9.41879C19.4732 10.3192 20 11.5405 20 12.8139C20 14.0873 19.4732 15.3086 18.5355 16.209C17.5979 17.1094 16.3261 17.6153 15 17.6153C13.6739 17.6153 12.4021 17.1094 11.4645 16.209C10.5268 15.3086 10 14.0873 10 12.8139Z" fill="#3F4E4F"/>
</svg>
