<svg width="28" height="26" viewBox="0 0 28 26" fill="none" xmlns="http://www.w3.org/2000/svg">
<path d="M8.41301 0.946289H19.753C24.073 0.946289 27.583 4.15209 27.583 8.09769V18.4549C27.583 20.3516 26.7581 22.1705 25.2897 23.5117C23.8212 24.8528 21.8297 25.6063 19.753 25.6063H8.41301C4.09301 25.6063 0.583008 22.4005 0.583008 18.4549V8.09769C0.583008 6.20102 1.40795 4.38203 2.87636 3.04089C4.34477 1.69974 6.33636 0.946289 8.41301 0.946289ZM8.14301 3.41229C6.85406 3.41229 5.6179 3.87995 4.70647 4.71238C3.79504 5.54482 3.28301 6.67385 3.28301 7.85109V18.7015C3.28301 21.1552 5.45651 23.1403 8.14301 23.1403H20.023C21.312 23.1403 22.5481 22.6726 23.4595 21.8402C24.371 21.0078 24.883 19.8787 24.883 18.7015V7.85109C24.883 5.39742 22.7095 3.41229 20.023 3.41229H8.14301ZM21.1705 5.26179C21.6181 5.26179 22.0473 5.42417 22.3638 5.71321C22.6802 6.00225 22.858 6.39427 22.858 6.80304C22.858 7.2118 22.6802 7.60383 22.3638 7.89287C22.0473 8.18191 21.6181 8.34429 21.1705 8.34429C20.723 8.34429 20.2937 8.18191 19.9773 7.89287C19.6608 7.60383 19.483 7.2118 19.483 6.80304C19.483 6.39427 19.6608 6.00225 19.9773 5.71321C20.2937 5.42417 20.723 5.26179 21.1705 5.26179ZM14.083 7.11129C15.8732 7.11129 17.5901 7.76081 18.856 8.91698C20.1218 10.0731 20.833 11.6412 20.833 13.2763C20.833 14.9114 20.1218 16.4794 18.856 17.6356C17.5901 18.7918 15.8732 19.4413 14.083 19.4413C12.2928 19.4413 10.5759 18.7918 9.31004 17.6356C8.04417 16.4794 7.33301 14.9114 7.33301 13.2763C7.33301 11.6412 8.04417 10.0731 9.31004 8.91698C10.5759 7.76081 12.2928 7.11129 14.083 7.11129ZM14.083 9.57729C13.0089 9.57729 11.9787 9.967 11.2192 10.6607C10.4597 11.3544 10.033 12.2953 10.033 13.2763C10.033 14.2573 10.4597 15.1982 11.2192 15.8919C11.9787 16.5856 13.0089 16.9753 14.083 16.9753C15.1571 16.9753 16.1873 16.5856 16.9468 15.8919C17.7063 15.1982 18.133 14.2573 18.133 13.2763C18.133 12.2953 17.7063 11.3544 16.9468 10.6607C16.1873 9.967 15.1571 9.57729 14.083 9.57729Z" fill="#3F4E4F"/>
</svg>
