<svg width="30" height="25" viewBox="0 0 30 25" fill="none" xmlns="http://www.w3.org/2000/svg">
<g clip-path="url(#clip0_554_452)">
<path fill-rule="evenodd" clip-rule="evenodd" d="M3.75 5.91062H26.25C26.4986 5.91062 26.7371 5.9877 26.9129 6.1249C27.0887 6.2621 27.1875 6.44819 27.1875 6.64222V7.47917L15 12.9135L2.8125 7.47917V6.64222C2.8125 6.44819 2.91127 6.2621 3.08709 6.1249C3.2629 5.9877 3.50136 5.91062 3.75 5.91062ZM2.8125 10.0076V18.3478C2.8125 18.5419 2.91127 18.7279 3.08709 18.8651C3.2629 19.0024 3.50136 19.0794 3.75 19.0794H26.25C26.4986 19.0794 26.7371 19.0024 26.9129 18.8651C27.0887 18.7279 27.1875 18.5419 27.1875 18.3478V10.0076L15.6975 15.1288L15 15.4419L14.3025 15.1288L2.8125 10.0076ZM0 6.64222C0 5.86609 0.395088 5.12175 1.09835 4.57294C1.80161 4.02414 2.75544 3.71582 3.75 3.71582H26.25C27.2446 3.71582 28.1984 4.02414 28.9016 4.57294C29.6049 5.12175 30 5.86609 30 6.64222V18.3478C30 19.124 29.6049 19.8683 28.9016 20.4171C28.1984 20.9659 27.2446 21.2742 26.25 21.2742H3.75C2.75544 21.2742 1.80161 20.9659 1.09835 20.4171C0.395088 19.8683 0 19.124 0 18.3478V6.64222Z" fill="#3F4E4F"/>
</g>
<defs>
<clipPath id="clip0_554_452">
<rect width="30" height="23.4112" fill="white" transform="translate(0 0.789551)"/>
</clipPath>
</defs>
</svg>
