<svg width="32" height="26" viewBox="0 0 32 26" fill="none" xmlns="http://www.w3.org/2000/svg">
<path d="M24.5333 22.3614H24.2266C20.7717 22.0681 17.4523 21.1488 14.5333 19.6769C11.8215 18.3291 9.51914 16.5359 7.78663 14.4224C5.89617 12.1385 4.71799 9.54061 4.34663 6.83717C4.30417 6.51471 4.34609 6.18889 4.46986 5.87946C4.59363 5.57003 4.79666 5.28345 5.06663 5.0371C5.32922 4.78746 5.65333 4.58147 6.01977 4.43134C6.38621 4.28121 6.78753 4.18999 7.19997 4.16309H10.6666C11.4174 4.16368 12.1433 4.37375 12.713 4.75538C13.2827 5.137 13.6588 5.66502 13.7733 6.24408C13.8999 6.98791 14.137 7.71771 14.48 8.41872C14.6886 8.85925 14.7316 9.3371 14.6041 9.79607C14.4765 10.255 14.1837 10.676 13.76 11.0096L12.9466 11.6443C14.2272 13.2219 15.9449 14.5552 17.9733 15.5461L18.7866 14.9218C19.214 14.5912 19.7535 14.3627 20.3417 14.2631C20.9298 14.1636 21.5421 14.1972 22.1066 14.36C23.0059 14.6251 23.9408 14.8101 24.8933 14.9114C25.648 15 26.3353 15.3004 26.8263 15.7564C27.3173 16.2123 27.5782 16.7924 27.56 17.3878V19.885C27.56 20.5345 27.2303 21.1575 26.643 21.6177C26.0558 22.0779 25.2589 22.3378 24.4266 22.3406L24.5333 22.3614ZM10.6666 5.71343H7.47997C7.3235 5.7215 7.17075 5.75425 7.03096 5.80969C6.89116 5.86513 6.76723 5.94211 6.66663 6.03598C6.56873 6.12392 6.49463 6.2264 6.4488 6.33727C6.40298 6.44813 6.38636 6.56509 6.39997 6.68109C6.72328 9.13331 7.77812 11.4924 9.47997 13.5692C11.0488 15.4907 13.1377 17.1208 15.6 18.3451C18.263 19.6871 21.2893 20.5278 24.44 20.8007C24.6038 20.8079 24.7678 20.7885 24.9216 20.7437C25.0753 20.6989 25.2155 20.6297 25.3333 20.5405C25.5456 20.3707 25.6651 20.1431 25.6666 19.9058V17.419C25.6726 17.2001 25.5755 16.987 25.3937 16.8201C25.2118 16.6533 24.9579 16.5443 24.68 16.5138C23.5784 16.3982 22.4964 16.1889 21.4533 15.8895C21.2478 15.8295 21.0247 15.8163 20.81 15.8513C20.5952 15.8863 20.3976 15.9681 20.24 16.0872L18.9066 17.1277C18.7505 17.2465 18.5493 17.3228 18.3332 17.3453C18.117 17.3678 17.8972 17.3353 17.7066 17.2526C14.8615 15.9979 12.5066 14.1638 10.8933 11.946C10.7829 11.7982 10.7387 11.626 10.7676 11.4564C10.7966 11.2868 10.8971 11.1296 11.0533 11.0096L12.3866 9.96907C12.5395 9.84839 12.6447 9.69594 12.6896 9.52989C12.7346 9.36385 12.7173 9.19123 12.64 9.03262C12.2549 8.21893 11.9866 7.37444 11.84 6.51461C11.8069 6.29118 11.6684 6.08536 11.4515 5.93726C11.2346 5.78915 10.9548 5.70936 10.6666 5.71343Z" fill="#3F4E4F"/>
</svg>
