<svg width="30" height="30" viewBox="0 0 30 30" fill="none" xmlns="http://www.w3.org/2000/svg">
<g clip-path="url(#clip0_538_1650)">
<path fill-rule="evenodd" clip-rule="evenodd" d="M3.75 6.5625H26.25C26.4986 6.5625 26.7371 6.66127 26.9129 6.83709C27.0887 7.0129 27.1875 7.25136 27.1875 7.5V8.5725L15 15.5363L2.8125 8.5725V7.5C2.8125 7.25136 2.91127 7.0129 3.08709 6.83709C3.2629 6.66127 3.50136 6.5625 3.75 6.5625ZM2.8125 11.8125V22.5C2.8125 22.7486 2.91127 22.9871 3.08709 23.1629C3.2629 23.3387 3.50136 23.4375 3.75 23.4375H26.25C26.4986 23.4375 26.7371 23.3387 26.9129 23.1629C27.0887 22.9871 27.1875 22.7486 27.1875 22.5V11.8125L15.6975 18.375L15 18.7762L14.3025 18.375L2.8125 11.8125ZM0 7.5C0 6.50544 0.395088 5.55161 1.09835 4.84835C1.80161 4.14509 2.75544 3.75 3.75 3.75H26.25C27.2446 3.75 28.1984 4.14509 28.9016 4.84835C29.6049 5.55161 30 6.50544 30 7.5V22.5C30 23.4946 29.6049 24.4484 28.9016 25.1516C28.1984 25.8549 27.2446 26.25 26.25 26.25H3.75C2.75544 26.25 1.80161 25.8549 1.09835 25.1516C0.395088 24.4484 0 23.4946 0 22.5V7.5Z" fill="#3F4E4F"/>
</g>
<defs>
<clipPath id="clip0_538_1650">
<rect width="30" height="30" fill="white"/>
</clipPath>
</defs>
</svg>
