<svg width="32" height="32" viewBox="0 0 32 32" fill="none" xmlns="http://www.w3.org/2000/svg">
<path d="M24.5333 27.6667H24.2266C20.7717 27.2908 17.4523 26.1128 14.5333 24.2267C11.8215 22.4995 9.51914 20.2017 7.78663 17.4933C5.89617 14.5667 4.71799 11.2376 4.34663 7.77335C4.30417 7.36014 4.34609 6.94262 4.46986 6.54611C4.59363 6.14959 4.79666 5.78236 5.06663 5.46668C5.32922 5.14677 5.65333 4.88281 6.01977 4.69043C6.38621 4.49805 6.78753 4.38116 7.19997 4.34668H10.6666C11.4174 4.34744 12.1433 4.61664 12.713 5.10566C13.2827 5.59469 13.6588 6.27132 13.7733 7.01335C13.8999 7.96652 14.137 8.9017 14.48 9.80001C14.6886 10.3645 14.7316 10.9769 14.6041 11.565C14.4765 12.1531 14.1837 12.6926 13.76 13.12L12.9466 13.9333C14.2272 15.9549 15.9449 17.6636 17.9733 18.9333L18.7866 18.1333C19.214 17.7096 19.7535 17.4168 20.3416 17.2893C20.9298 17.1617 21.5421 17.2048 22.1066 17.4133C23.0059 17.7531 23.9408 17.9902 24.8933 18.12C25.648 18.2335 26.3353 18.6185 26.8263 19.2027C27.3173 19.787 27.5782 20.5304 27.56 21.2933V24.4933C27.56 25.3256 27.2303 26.1239 26.643 26.7137C26.0558 27.3034 25.2589 27.6365 24.4266 27.64L24.5333 27.6667ZM10.6666 6.33335H7.47997C7.3235 6.34369 7.17075 6.38565 7.03096 6.4567C6.89116 6.52774 6.76723 6.62639 6.66663 6.74668C6.56873 6.85936 6.49463 6.99069 6.4488 7.13276C6.40298 7.27482 6.38636 7.42469 6.39997 7.57335C6.72328 10.7157 7.77812 13.7387 9.47997 16.4C11.0488 18.8623 13.1377 20.9512 15.6 22.52C18.263 24.2398 21.2893 25.317 24.44 25.6667C24.6038 25.6759 24.7678 25.6511 24.9216 25.5937C25.0753 25.5363 25.2155 25.4477 25.3333 25.3333C25.5456 25.1157 25.6651 24.8241 25.6666 24.52V21.3333C25.6726 21.0527 25.5755 20.7797 25.3937 20.5659C25.2118 20.3521 24.9579 20.2124 24.68 20.1733C23.5784 20.0252 22.4964 19.757 21.4533 19.3733C21.2478 19.2965 21.0247 19.2795 20.81 19.3244C20.5952 19.3692 20.3976 19.474 20.24 19.6267L18.9066 20.96C18.7505 21.1123 18.5493 21.2101 18.3332 21.2389C18.117 21.2677 17.8972 21.226 17.7066 21.12C14.8615 19.5123 12.5066 17.162 10.8933 14.32C10.7829 14.1306 10.7387 13.9099 10.7676 13.6926C10.7966 13.4753 10.8971 13.2738 11.0533 13.12L12.3866 11.7867C12.5395 11.632 12.6447 11.4367 12.6896 11.2239C12.7346 11.0111 12.7173 10.7899 12.64 10.5867C12.2549 9.54399 11.9866 8.46183 11.84 7.36001C11.8069 7.0737 11.6684 6.80996 11.4515 6.62017C11.2346 6.43038 10.9548 6.32813 10.6666 6.33335Z" fill="#3F4E4F"/>
</svg>
