<svg width="28" height="27" viewBox="0 0 28 27" fill="none" xmlns="http://www.w3.org/2000/svg">
<path d="M8.41301 0.505859H19.753C24.073 0.505859 27.583 3.84426 27.583 7.95306V18.7387C27.583 20.7138 26.7581 22.608 25.2897 24.0046C23.8212 25.4012 21.8297 26.1859 19.753 26.1859H8.41301C4.09301 26.1859 0.583008 22.8475 0.583008 18.7387V7.95306C0.583008 5.97794 1.40795 4.08371 2.87636 2.68709C4.34477 1.29047 6.33636 0.505859 8.41301 0.505859ZM8.14301 3.07386C6.85406 3.07386 5.6179 3.56086 4.70647 4.42773C3.79504 5.2946 3.28301 6.47032 3.28301 7.69626V18.9955C3.28301 21.5506 5.45651 23.6179 8.14301 23.6179H20.023C21.312 23.6179 22.5481 23.1309 23.4595 22.264C24.371 21.3971 24.883 20.2214 24.883 18.9955V7.69626C24.883 5.1411 22.7095 3.07386 20.023 3.07386H8.14301ZM21.1705 4.99986C21.6181 4.99986 22.0473 5.16896 22.3638 5.46995C22.6802 5.77095 22.858 6.17919 22.858 6.60486C22.858 7.03053 22.6802 7.43877 22.3638 7.73976C22.0473 8.04076 21.6181 8.20986 21.1705 8.20986C20.723 8.20986 20.2937 8.04076 19.9773 7.73976C19.6608 7.43877 19.483 7.03053 19.483 6.60486C19.483 6.17919 19.6608 5.77095 19.9773 5.46995C20.2937 5.16896 20.723 4.99986 21.1705 4.99986ZM14.083 6.92586C15.8732 6.92586 17.5901 7.60225 18.856 8.80623C20.1218 10.0102 20.833 11.6432 20.833 13.3459C20.833 15.0485 20.1218 16.6815 18.856 17.8855C17.5901 19.0895 15.8732 19.7659 14.083 19.7659C12.2928 19.7659 10.5759 19.0895 9.31004 17.8855C8.04417 16.6815 7.33301 15.0485 7.33301 13.3459C7.33301 11.6432 8.04417 10.0102 9.31004 8.80623C10.5759 7.60225 12.2928 6.92586 14.083 6.92586ZM14.083 9.49386C13.0089 9.49386 11.9787 9.89969 11.2192 10.6221C10.4597 11.3445 10.033 12.3242 10.033 13.3459C10.033 14.3675 10.4597 15.3472 11.2192 16.0696C11.9787 16.792 13.0089 17.1979 14.083 17.1979C15.1571 17.1979 16.1873 16.792 16.9468 16.0696C17.7063 15.3472 18.133 14.3675 18.133 13.3459C18.133 12.3242 17.7063 11.3445 16.9468 10.6221C16.1873 9.89969 15.1571 9.49386 14.083 9.49386Z" fill="#3F4E4F"/>
</svg>
