<svg width="28" height="21" viewBox="0 0 28 21" fill="none" xmlns="http://www.w3.org/2000/svg">
<path d="M8.41301 0.174805H19.753C24.073 0.174805 27.583 2.78 27.583 5.98641V14.4032C27.583 15.9445 26.7581 17.4227 25.2897 18.5126C23.8212 19.6025 21.8297 20.2148 19.753 20.2148H8.41301C4.09301 20.2148 0.583008 17.6096 0.583008 14.4032V5.98641C0.583008 4.44507 1.40795 2.96687 2.87636 1.87698C4.34477 0.787097 6.33636 0.174805 8.41301 0.174805ZM8.14301 2.1788C6.85406 2.1788 5.6179 2.55885 4.70647 3.23533C3.79504 3.91181 3.28301 4.82932 3.28301 5.78601V14.6036C3.28301 16.5976 5.45651 18.2108 8.14301 18.2108H20.023C21.312 18.2108 22.5481 17.8308 23.4595 17.1543C24.371 16.4778 24.883 15.5603 24.883 14.6036V5.78601C24.883 3.79202 22.7095 2.1788 20.023 2.1788H8.14301ZM21.1705 3.68181C21.6181 3.68181 22.0473 3.81376 22.3638 4.04865C22.6802 4.28354 22.858 4.60212 22.858 4.93431C22.858 5.26649 22.6802 5.58507 22.3638 5.81996C22.0473 6.05485 21.6181 6.18681 21.1705 6.18681C20.723 6.18681 20.2937 6.05485 19.9773 5.81996C19.6608 5.58507 19.483 5.26649 19.483 4.93431C19.483 4.60212 19.6608 4.28354 19.9773 4.04865C20.2937 3.81376 20.723 3.68181 21.1705 3.68181ZM14.083 5.1848C15.8732 5.18481 17.5901 5.71264 18.856 6.6522C20.1218 7.59176 20.833 8.86607 20.833 10.1948C20.833 11.5235 20.1218 12.7979 18.856 13.7374C17.5901 14.677 15.8732 15.2048 14.083 15.2048C12.2928 15.2048 10.5759 14.677 9.31004 13.7374C8.04417 12.7979 7.33301 11.5235 7.33301 10.1948C7.33301 8.86607 8.04417 7.59176 9.31004 6.6522C10.5759 5.71264 12.2928 5.18481 14.083 5.1848ZM14.083 7.18881C13.0089 7.18881 11.9787 7.50551 11.2192 8.06924C10.4597 8.63298 10.033 9.39756 10.033 10.1948C10.033 10.992 10.4597 11.7566 11.2192 12.3204C11.9787 12.8841 13.0089 13.2008 14.083 13.2008C15.1571 13.2008 16.1873 12.8841 16.9468 12.3204C17.7063 11.7566 18.133 10.992 18.133 10.1948C18.133 9.39756 17.7063 8.63298 16.9468 8.06924C16.1873 7.50551 15.1571 7.18881 14.083 7.18881Z" fill="#3F4E4F"/>
</svg>
