<svg width="27" height="29" viewBox="0 0 27 29" fill="none" xmlns="http://www.w3.org/2000/svg">
<g clip-path="url(#clip0_538_1406)">
<path d="M3.85714 1.80859C1.72969 1.80859 0 3.43066 0 5.42574V23.5115C0 25.5065 1.72969 27.1286 3.85714 27.1286H23.1429C25.2703 27.1286 27 25.5065 27 23.5115V5.42574C27 3.43066 25.2703 1.80859 23.1429 1.80859H3.85714ZM21.1721 11.264C21.1721 16.1641 17.1944 21.8103 9.92612 21.8103C7.68415 21.8103 5.60491 21.1999 3.85714 20.1486C4.17656 20.1826 4.48393 20.1939 4.80938 20.1939C6.6596 20.1939 8.35915 19.6061 9.71518 18.6114C7.97946 18.5774 6.52098 17.5093 6.02076 16.0398C6.62946 16.1246 7.1779 16.1246 7.80469 15.972C5.99665 15.6272 4.64063 14.1351 4.64063 12.3322V12.287C5.16496 12.5639 5.77969 12.7335 6.42455 12.7561C5.88214 12.417 5.43616 11.9592 5.12879 11.4223C4.82143 10.8854 4.65871 10.2806 4.66473 9.67023C4.66473 8.98071 4.85759 8.34771 5.20112 7.79949C7.14777 10.0489 10.0708 11.5184 13.3493 11.6766C12.7888 9.16157 14.7958 7.12127 17.2065 7.12127C18.3455 7.12127 19.3701 7.56776 20.0933 8.29119C20.9853 8.13294 21.8411 7.82209 22.6004 7.39821C22.3051 8.25728 21.6844 8.98071 20.8647 9.43851C21.6603 9.35938 22.4317 9.15026 23.1429 8.86202C22.6065 9.60241 21.9315 10.258 21.16 10.7836C21.1721 10.9419 21.1721 11.1058 21.1721 11.264Z" fill="#3F4E4F"/>
</g>
<defs>
<clipPath id="clip0_538_1406">
<rect width="27" height="28.9371" fill="white"/>
</clipPath>
</defs>
</svg>
