<svg width="32" height="33" viewBox="0 0 32 33" fill="none" xmlns="http://www.w3.org/2000/svg">
<path d="M24.5333 28.1151H24.2266C20.7717 27.7445 17.4523 26.583 14.5333 24.7234C11.8215 23.0204 9.51914 20.7548 7.78663 18.0844C5.89617 15.1988 4.71799 11.9164 4.34663 8.5007C4.30417 8.09329 4.34609 7.68162 4.46986 7.29066C4.59363 6.89971 4.79666 6.53762 5.06663 6.22637C5.32922 5.91095 5.65333 5.65069 6.01977 5.461C6.38621 5.27132 6.78753 5.15606 7.19997 5.12207H10.6666C11.4174 5.12282 12.1433 5.38824 12.713 5.87042C13.2827 6.35259 13.6588 7.01973 13.7733 7.75135C13.8999 8.69116 14.137 9.61324 14.48 10.499C14.6886 11.0555 14.7316 11.6593 14.6041 12.2392C14.4765 12.8191 14.1837 13.351 13.76 13.7724L12.9466 14.5743C14.2272 16.5676 15.9449 18.2523 17.9733 19.5042L18.7866 18.7155C19.214 18.2977 19.7535 18.009 20.3416 17.8832C20.9298 17.7574 21.5421 17.7999 22.1066 18.0056C23.0059 18.3406 23.9408 18.5743 24.8933 18.7023C25.648 18.8142 26.3353 19.1938 26.8263 19.7699C27.3173 20.3459 27.5782 21.0789 27.56 21.8312V24.9863C27.56 25.8069 27.2303 26.594 26.643 27.1755C26.0558 27.757 25.2589 28.0854 24.4266 28.0889L24.5333 28.1151ZM10.6666 7.08089H7.47997C7.3235 7.09109 7.17075 7.13246 7.03096 7.20251C6.89116 7.27255 6.76723 7.36982 6.66663 7.48842C6.56873 7.59953 6.49463 7.72902 6.4488 7.86909C6.40298 8.00916 6.38636 8.15693 6.39997 8.3035C6.72328 11.4018 7.77812 14.3824 9.47997 17.0064C11.0488 19.4342 13.1377 21.4938 15.6 23.0406C18.263 24.7363 21.2893 25.7984 24.44 26.1432C24.6038 26.1523 24.7678 26.1278 24.9216 26.0712C25.0753 26.0146 25.2155 25.9272 25.3333 25.8145C25.5456 25.5999 25.6651 25.3124 25.6666 25.0126V21.8706C25.6726 21.5939 25.5755 21.3247 25.3937 21.1139C25.2118 20.9031 24.9579 20.7654 24.68 20.7269C23.5784 20.5808 22.4964 20.3163 21.4533 19.9381C21.2478 19.8623 21.0247 19.8456 20.81 19.8898C20.5952 19.934 20.3976 20.0374 20.24 20.1879L18.9066 21.5025C18.7505 21.6526 18.5493 21.7491 18.3332 21.7775C18.117 21.8059 17.8972 21.7648 17.7066 21.6603C14.8615 20.0751 12.5066 17.7577 10.8933 14.9556C10.7829 14.7689 10.7387 14.5512 10.7676 14.337C10.7966 14.1227 10.8971 13.9241 11.0533 13.7724L12.3866 12.4578C12.5395 12.3053 12.6447 12.1127 12.6896 11.9029C12.7346 11.6931 12.7173 11.475 12.64 11.2746C12.2549 10.2465 11.9866 9.17953 11.84 8.09316C11.8069 7.81086 11.6684 7.55082 11.4515 7.36369C11.2346 7.17655 10.9548 7.07574 10.6666 7.08089Z" fill="#3F4E4F"/>
</svg>
