<svg width="27" height="23" viewBox="0 0 27 23" fill="none" xmlns="http://www.w3.org/2000/svg">
<g clip-path="url(#clip0_568_1109)">
<path d="M3.85714 1.43164C1.72969 1.43164 0 2.71545 0 4.2945V18.6088C0 20.1878 1.72969 21.4716 3.85714 21.4716H23.1429C25.2703 21.4716 27 20.1878 27 18.6088V4.2945C27 2.71545 25.2703 1.43164 23.1429 1.43164H3.85714ZM21.1721 8.91533C21.1721 12.7936 17.1944 17.2623 9.92612 17.2623C7.68415 17.2623 5.60491 16.7792 3.85714 15.9472C4.17656 15.9741 4.48393 15.983 4.80938 15.983C6.6596 15.983 8.35915 15.5178 9.71518 14.7305C7.97946 14.7037 6.52098 13.8582 6.02076 12.6952C6.62946 12.7623 7.1779 12.7623 7.80469 12.6415C5.99665 12.3686 4.64062 11.1877 4.64062 9.76077V9.72498C5.16496 9.94417 5.77969 10.0784 6.42455 10.0963C5.88214 9.82786 5.43616 9.46553 5.12879 9.04058C4.82143 8.61562 4.65871 8.13699 4.66473 7.65388C4.66473 7.10815 4.85759 6.60715 5.20112 6.17325C7.14777 7.95359 10.0708 9.11662 13.3493 9.24187C12.7888 7.25129 14.7958 5.63646 17.2065 5.63646C18.3455 5.63646 19.3701 5.98985 20.0933 6.56242C20.9853 6.43717 21.8411 6.19114 22.6004 5.85565C22.3051 6.53558 21.6844 7.10815 20.8647 7.47048C21.6603 7.40786 22.4317 7.24235 23.1429 7.01421C22.6065 7.6002 21.9315 8.1191 21.16 8.5351C21.1721 8.66036 21.1721 8.79008 21.1721 8.91533Z" fill="#3F4E4F"/>
</g>
<defs>
<clipPath id="clip0_568_1109">
<rect width="27" height="22.9029" fill="white"/>
</clipPath>
</defs>
</svg>
