<svg width="50" height="50" viewBox="0 0 50 50" fill="none" xmlns="http://www.w3.org/2000/svg">
<path d="M42.48 35.1184C42.3965 34.6024 42.073 34.1614 41.5885 33.8994L34.421 29.6764L34.362 29.6434C34.0614 29.493 33.7295 29.4159 33.3935 29.4184C32.793 29.4184 32.2195 29.6459 31.8215 30.0449L29.706 32.1614C29.6155 32.2474 29.3205 32.3719 29.231 32.3764C29.2065 32.3744 26.7695 32.1989 22.283 27.7119C17.8045 23.2344 17.6145 20.7899 17.613 20.7899C17.6155 20.6649 17.7385 20.3709 17.826 20.2799L19.63 18.4764C20.2655 17.8394 20.456 16.7834 20.079 15.9654L16.095 8.46888C15.8055 7.87288 15.243 7.50488 14.619 7.50488C14.1775 7.50488 13.7515 7.68788 13.4185 8.02038L8.50096 12.9269C8.02946 13.3959 7.62346 14.2159 7.53496 14.8759C7.49196 15.1914 6.61946 22.7224 16.9445 33.0489C25.71 41.8134 32.545 42.4944 34.4325 42.4944C34.6623 42.4973 34.8921 42.4855 35.1205 42.4589C35.7785 42.3709 36.5975 41.9659 37.066 41.4964L41.9795 36.5834C42.3805 36.1804 42.5635 35.6479 42.48 35.1184Z" fill="#D27C2C"/>
</svg>
