<svg width="50" height="50" viewBox="0 0 50 50" fill="none" xmlns="http://www.w3.org/2000/svg">
<path d="M24.625 3C15.999 3 9 9.2998 9 17.0625C9 29.5625 24.625 46.75 24.625 46.75C24.625 46.75 40.25 29.5625 40.25 17.0625C40.25 9.2998 33.251 3 24.625 3ZM24.625 24.875C23.3889 24.875 22.1805 24.5084 21.1527 23.8217C20.1249 23.1349 19.3238 22.1588 18.8508 21.0168C18.3777 19.8747 18.2539 18.6181 18.4951 17.4057C18.7362 16.1933 19.3315 15.0797 20.2056 14.2056C21.0797 13.3315 22.1933 12.7362 23.4057 12.4951C24.6181 12.2539 25.8747 12.3777 27.0168 12.8508C28.1588 13.3238 29.1349 14.1249 29.8217 15.1527C30.5084 16.1805 30.875 17.3889 30.875 18.625C30.8732 20.282 30.2141 21.8707 29.0424 23.0424C27.8707 24.2141 26.282 24.8732 24.625 24.875Z" fill="#D27C2C"/>
</svg>
