<svg width="28" height="21" viewBox="0 0 28 21" fill="none" xmlns="http://www.w3.org/2000/svg">
<path d="M8.41301 0.175293H19.753C24.073 0.175293 27.583 2.78049 27.583 5.98689V14.4037C27.583 15.945 26.7581 17.4232 25.2897 18.5131C23.8212 19.603 21.8297 20.2153 19.753 20.2153H8.41301C4.09301 20.2153 0.583008 17.6101 0.583008 14.4037V5.98689C0.583008 4.44556 1.40795 2.96736 2.87636 1.87747C4.34477 0.787585 6.33636 0.175293 8.41301 0.175293ZM8.14301 2.17929C6.85406 2.17929 5.6179 2.55934 4.70647 3.23582C3.79504 3.9123 3.28301 4.8298 3.28301 5.78649V14.6041C3.28301 16.5981 5.45651 18.2113 8.14301 18.2113H20.023C21.312 18.2113 22.5481 17.8313 23.4595 17.1548C24.371 16.4783 24.883 15.5608 24.883 14.6041V5.78649C24.883 3.79251 22.7095 2.17929 20.023 2.17929H8.14301ZM21.1705 3.68229C21.6181 3.68229 22.0473 3.81425 22.3638 4.04914C22.6802 4.28403 22.858 4.60261 22.858 4.93479C22.858 5.26698 22.6802 5.58556 22.3638 5.82044C22.0473 6.05533 21.6181 6.18729 21.1705 6.18729C20.723 6.18729 20.2937 6.05533 19.9773 5.82044C19.6608 5.58556 19.483 5.26698 19.483 4.93479C19.483 4.60261 19.6608 4.28403 19.9773 4.04914C20.2937 3.81425 20.723 3.68229 21.1705 3.68229ZM14.083 5.18529C15.8732 5.18529 17.5901 5.71313 18.856 6.65269C20.1218 7.59225 20.833 8.86656 20.833 10.1953C20.833 11.524 20.1218 12.7983 18.856 13.7379C17.5901 14.6775 15.8732 15.2053 14.083 15.2053C12.2928 15.2053 10.5759 14.6775 9.31004 13.7379C8.04417 12.7983 7.33301 11.524 7.33301 10.1953C7.33301 8.86656 8.04417 7.59225 9.31004 6.65269C10.5759 5.71313 12.2928 5.18529 14.083 5.18529ZM14.083 7.18929C13.0089 7.18929 11.9787 7.506 11.2192 8.06973C10.4597 8.63346 10.033 9.39805 10.033 10.1953C10.033 10.9925 10.4597 11.7571 11.2192 12.3209C11.9787 12.8846 13.0089 13.2013 14.083 13.2013C15.1571 13.2013 16.1873 12.8846 16.9468 12.3209C17.7063 11.7571 18.133 10.9925 18.133 10.1953C18.133 9.39805 17.7063 8.63346 16.9468 8.06973C16.1873 7.506 15.1571 7.18929 14.083 7.18929Z" fill="#3F4E4F"/>
</svg>
