<svg width="30" height="27" viewBox="0 0 30 27" fill="none" xmlns="http://www.w3.org/2000/svg">
<path d="M15 3.30368C12.6794 3.30368 10.4538 4.11355 8.81282 5.55513C7.17187 6.9967 6.25 8.9519 6.25 10.9906C6.25 14.1334 8.4775 17.1654 10.9225 19.5143C12.1733 20.7102 13.5374 21.8109 15 22.8043C16.4626 21.8116 17.8266 20.7118 19.0775 19.5165C21.5225 17.1654 23.75 14.1345 23.75 10.9906C23.75 8.9519 22.8281 6.9967 21.1872 5.55513C19.5462 4.11355 17.3206 3.30368 15 3.30368ZM15 25.5013L14.2912 25.073L14.2875 25.0708L14.28 25.0653L14.255 25.05L14.1613 24.9918C13.6437 24.6612 13.1376 24.317 12.6437 23.9595C11.378 23.046 10.1863 22.0561 9.0775 20.9968C6.5225 18.5413 3.75 14.9845 3.75 10.9906C3.75 8.36942 4.93526 5.85559 7.04505 4.00214C9.15483 2.14868 12.0163 1.10742 15 1.10742C17.9837 1.10742 20.8452 2.14868 22.955 4.00214C25.0647 5.85559 26.25 8.36942 26.25 10.9906C26.25 14.9845 23.4775 18.5424 20.9225 20.9968C19.4748 22.3801 17.8866 23.6445 16.1775 24.7743C16.0351 24.8678 15.8913 24.9597 15.7463 25.05L15.72 25.0653L15.7125 25.0708L15.71 25.0719L15 25.5002V25.5013ZM15 8.79434C14.337 8.79434 13.7011 9.02573 13.2322 9.43761C12.7634 9.84949 12.5 10.4081 12.5 10.9906C12.5 11.5731 12.7634 12.1317 13.2322 12.5436C13.7011 12.9555 14.337 13.1869 15 13.1869C15.663 13.1869 16.2989 12.9555 16.7678 12.5436C17.2366 12.1317 17.5 11.5731 17.5 10.9906C17.5 10.4081 17.2366 9.84949 16.7678 9.43761C16.2989 9.02573 15.663 8.79434 15 8.79434ZM10 10.9906C10 9.82563 10.5268 8.70837 11.4645 7.88461C12.4021 7.06086 13.6739 6.59807 15 6.59807C16.3261 6.59807 17.5979 7.06086 18.5355 7.88461C19.4732 8.70837 20 9.82563 20 10.9906C20 12.1556 19.4732 13.2728 18.5355 14.0966C17.5979 14.9203 16.3261 15.3831 15 15.3831C13.6739 15.3831 12.4021 14.9203 11.4645 14.0966C10.5268 13.2728 10 12.1556 10 10.9906Z" fill="#3F4E4F"/>
</svg>
