<svg width="31" height="30" viewBox="0 0 31 30" fill="none" xmlns="http://www.w3.org/2000/svg">
<g clip-path="url(#clip0_564_238)">
<path fill-rule="evenodd" clip-rule="evenodd" d="M4.271 6.5625H26.396C26.6405 6.5625 26.875 6.66127 27.0479 6.83709C27.2207 7.0129 27.3179 7.25136 27.3179 7.5V8.5725L15.3335 15.5363L3.34912 8.5725V7.5C3.34912 7.25136 3.44625 7.0129 3.61913 6.83709C3.79202 6.66127 4.0265 6.5625 4.271 6.5625ZM3.34912 11.8125V22.5C3.34912 22.7486 3.44625 22.9871 3.61913 23.1629C3.79202 23.3387 4.0265 23.4375 4.271 23.4375H26.396C26.6405 23.4375 26.875 23.3387 27.0479 23.1629C27.2207 22.9871 27.3179 22.7486 27.3179 22.5V11.8125L16.0194 18.375L15.3335 18.7762L14.6476 18.375L3.34912 11.8125ZM0.583496 7.5C0.583496 6.50544 0.972 5.55161 1.66354 4.84835C2.35508 4.14509 3.29301 3.75 4.271 3.75H26.396C27.374 3.75 28.3119 4.14509 29.0035 4.84835C29.695 5.55161 30.0835 6.50544 30.0835 7.5V22.5C30.0835 23.4946 29.695 24.4484 29.0035 25.1516C28.3119 25.8549 27.374 26.25 26.396 26.25H4.271C3.29301 26.25 2.35508 25.8549 1.66354 25.1516C0.972 24.4484 0.583496 23.4946 0.583496 22.5V7.5Z" fill="#3F4E4F"/>
</g>
<defs>
<clipPath id="clip0_564_238">
<rect width="29.5" height="30" fill="white" transform="translate(0.583496)"/>
</clipPath>
</defs>
</svg>
