<svg width="33" height="32" viewBox="0 0 33 32" fill="none" xmlns="http://www.w3.org/2000/svg">
<path d="M24.7244 27.6667H24.4229C21.0255 27.2908 17.7615 26.1128 14.8911 24.2267C12.2245 22.4995 9.96049 20.2017 8.25686 17.4933C6.39791 14.5667 5.23937 11.2376 4.8742 7.77335C4.83244 7.36014 4.87367 6.94262 4.99537 6.54611C5.11707 6.14959 5.31672 5.78236 5.5822 5.46668C5.8404 5.14677 6.15911 4.88281 6.51945 4.69043C6.87978 4.49805 7.27442 4.38116 7.67998 4.34668H11.0889C11.8272 4.34744 12.5409 4.61664 13.1011 5.10566C13.6613 5.59469 14.0311 6.27132 14.1438 7.01335C14.2682 7.96652 14.5014 8.9017 14.8386 9.80001C15.0438 10.3645 15.0861 10.9769 14.9607 11.565C14.8352 12.1531 14.5473 12.6926 14.1306 13.12L13.3309 13.9333C14.5901 15.9549 16.2792 17.6636 18.2738 18.9333L19.0735 18.1333C19.4938 17.7096 20.0243 17.4168 20.6026 17.2893C21.181 17.1617 21.7831 17.2048 22.3382 17.4133C23.2225 17.7531 24.1418 17.9902 25.0784 18.12C25.8205 18.2335 26.4964 18.6185 26.9792 19.2027C27.462 19.787 27.7186 20.5304 27.7006 21.2933V24.4933C27.7007 25.3256 27.3765 26.1239 26.799 26.7137C26.2216 27.3034 25.4379 27.6365 24.6195 27.64L24.7244 27.6667ZM11.0889 6.33335H7.95531C7.80145 6.34369 7.65125 6.38565 7.51378 6.4567C7.37632 6.52774 7.25445 6.62639 7.15553 6.74668C7.05926 6.85936 6.9864 6.99069 6.94133 7.13276C6.89627 7.27482 6.87993 7.42469 6.89331 7.57335C7.21124 10.7157 8.24849 13.7387 9.92198 16.4C11.4647 18.8623 13.5188 20.9512 15.94 22.52C18.5586 24.2398 21.5345 25.317 24.6326 25.6667C24.7938 25.6759 24.955 25.6511 25.1062 25.5937C25.2574 25.5363 25.3953 25.4477 25.5111 25.3333C25.7199 25.1157 25.8374 24.8241 25.8389 24.52V21.3333C25.8448 21.0527 25.7493 20.7797 25.5705 20.5659C25.3916 20.3521 25.1419 20.2124 24.8686 20.1733C23.7855 20.0252 22.7215 19.757 21.6958 19.3733C21.4937 19.2965 21.2743 19.2795 21.0631 19.3244C20.852 19.3692 20.6576 19.474 20.5026 19.6267L19.1915 20.96C19.038 21.1123 18.8402 21.2101 18.6276 21.2389C18.415 21.2677 18.199 21.226 18.0115 21.12C15.2139 19.5123 12.8982 17.162 11.3118 14.32C11.2032 14.1306 11.1597 13.9099 11.1882 13.6926C11.2167 13.4753 11.3155 13.2738 11.4691 13.12L12.7802 11.7867C12.9306 11.632 13.034 11.4367 13.0782 11.2239C13.1223 11.0111 13.1054 10.7899 13.0293 10.5867C12.6506 9.54399 12.3868 8.46183 12.2426 7.36001C12.2101 7.0737 12.0739 6.80996 11.8606 6.62017C11.6474 6.43038 11.3722 6.32813 11.0889 6.33335Z" fill="#3F4E4F"/>
</svg>
