<svg width="28" height="30" viewBox="0 0 28 30" fill="none" xmlns="http://www.w3.org/2000/svg">
<g clip-path="url(#clip0_564_226)">
<path d="M4.75966 1.83423C2.66766 1.83423 0.966797 3.47935 0.966797 5.5028V23.8457C0.966797 25.8691 2.66766 27.5142 4.75966 27.5142H23.724C25.816 27.5142 27.5168 25.8691 27.5168 23.8457V5.5028C27.5168 3.47935 25.816 1.83423 23.724 1.83423H4.75966ZM21.7861 11.4241C21.7861 16.3939 17.8747 22.1203 10.7275 22.1203C8.52289 22.1203 6.4783 21.5012 4.75966 20.435C5.07376 20.4694 5.376 20.4809 5.69602 20.4809C7.51541 20.4809 9.18664 19.8847 10.5201 18.8759C8.81328 18.8415 7.37911 17.7581 6.88722 16.2678C7.48578 16.3537 8.02508 16.3537 8.64142 16.199C6.86352 15.8493 5.53009 14.336 5.53009 12.5075V12.4616C6.04568 12.7425 6.65017 12.9145 7.28429 12.9374C6.75091 12.5935 6.31236 12.1292 6.01012 11.5846C5.70788 11.0401 5.54787 10.4267 5.55379 9.80764C5.55379 9.10832 5.74344 8.46632 6.08124 7.9103C7.99545 10.1917 10.8697 11.6821 14.0937 11.8426C13.5425 9.29175 15.516 7.22244 17.8865 7.22244C19.0066 7.22244 20.0141 7.67528 20.7252 8.409C21.6023 8.2485 22.4439 7.93323 23.1906 7.50332C22.9002 8.3746 22.2898 9.10832 21.4838 9.57262C22.2661 9.49237 23.0247 9.28028 23.724 8.98794C23.1965 9.73885 22.5328 10.4038 21.7742 10.9369C21.7861 11.0974 21.7861 11.2636 21.7861 11.4241Z" fill="#3F4E4F"/>
</g>
<defs>
<clipPath id="clip0_564_226">
<rect width="26.55" height="29.3486" fill="white" transform="translate(0.966797)"/>
</clipPath>
</defs>
</svg>
