<svg width="30" height="25" viewBox="0 0 30 25" fill="none" xmlns="http://www.w3.org/2000/svg">
<g clip-path="url(#clip0_471_464)">
<path fill-rule="evenodd" clip-rule="evenodd" d="M3.75 5.91093H26.25C26.4986 5.91093 26.7371 5.98801 26.9129 6.12521C27.0887 6.26241 27.1875 6.44849 27.1875 6.64253V7.47948L15 12.9138L2.8125 7.47948V6.64253C2.8125 6.44849 2.91127 6.26241 3.08709 6.12521C3.2629 5.98801 3.50136 5.91093 3.75 5.91093ZM2.8125 10.0079V18.3481C2.8125 18.5422 2.91127 18.7283 3.08709 18.8655C3.2629 19.0027 3.50136 19.0797 3.75 19.0797H26.25C26.4986 19.0797 26.7371 19.0027 26.9129 18.8655C27.0887 18.7283 27.1875 18.5422 27.1875 18.3481V10.0079L15.6975 15.1291L15 15.4422L14.3025 15.1291L2.8125 10.0079ZM0 6.64253C0 5.8664 0.395088 5.12206 1.09835 4.57325C1.80161 4.02444 2.75544 3.71613 3.75 3.71613H26.25C27.2446 3.71613 28.1984 4.02444 28.9016 4.57325C29.6049 5.12206 30 5.8664 30 6.64253V18.3481C30 19.1243 29.6049 19.8686 28.9016 20.4174C28.1984 20.9662 27.2446 21.2745 26.25 21.2745H3.75C2.75544 21.2745 1.80161 20.9662 1.09835 20.4174C0.395088 19.8686 0 19.1243 0 18.3481V6.64253Z" fill="#3F4E4F"/>
</g>
<defs>
<clipPath id="clip0_471_464">
<rect width="30" height="23.4112" fill="white" transform="translate(0 0.789734)"/>
</clipPath>
</defs>
</svg>
