<svg width="30" height="24" viewBox="0 0 30 24" fill="none" xmlns="http://www.w3.org/2000/svg">
<path d="M15 3.17408C12.6794 3.17408 10.4538 3.89348 8.81282 5.17403C7.17187 6.45458 6.25 8.19138 6.25 10.0023C6.25 12.7941 8.4775 15.4874 10.9225 17.5739C12.1733 18.6363 13.5374 19.614 15 20.4964C16.4626 19.6146 17.8266 18.6376 19.0775 17.5759C21.5225 15.4874 23.75 12.7951 23.75 10.0023C23.75 8.19138 22.8281 6.45458 21.1872 5.17403C19.5462 3.89348 17.3206 3.17408 15 3.17408ZM15 22.8922L14.2912 22.5117L14.2875 22.5098L14.28 22.5049L14.255 22.4913L14.1613 22.4396C13.6437 22.1459 13.1376 21.8402 12.6437 21.5226C11.378 20.7112 10.1863 19.8318 9.0775 18.8908C6.5225 16.7097 3.75 13.5501 3.75 10.0023C3.75 7.67396 4.93526 5.44093 7.04505 3.79451C9.15483 2.14809 12.0163 1.22314 15 1.22314C17.9837 1.22314 20.8452 2.14809 22.955 3.79451C25.0647 5.44093 26.25 7.67396 26.25 10.0023C26.25 13.5501 23.4775 16.7106 20.9225 18.8908C19.4748 20.1196 17.8866 21.2428 16.1775 22.2464C16.0351 22.3294 15.8913 22.4111 15.7463 22.4913L15.72 22.5049L15.7125 22.5098L15.71 22.5108L15 22.8912V22.8922ZM15 8.05141C14.337 8.05141 13.7011 8.25696 13.2322 8.62283C12.7634 8.9887 12.5 9.48493 12.5 10.0023C12.5 10.5198 12.7634 11.016 13.2322 11.3819C13.7011 11.7477 14.337 11.9533 15 11.9533C15.663 11.9533 16.2989 11.7477 16.7678 11.3819C17.2366 11.016 17.5 10.5198 17.5 10.0023C17.5 9.48493 17.2366 8.9887 16.7678 8.62283C16.2989 8.25696 15.663 8.05141 15 8.05141ZM10 10.0023C10 8.96751 10.5268 7.97505 11.4645 7.24331C12.4021 6.51157 13.6739 6.10048 15 6.10048C16.3261 6.10048 17.5979 6.51157 18.5355 7.24331C19.4732 7.97505 20 8.96751 20 10.0023C20 11.0372 19.4732 12.0296 18.5355 12.7614C17.5979 13.4931 16.3261 13.9042 15 13.9042C13.6739 13.9042 12.4021 13.4931 11.4645 12.7614C10.5268 12.0296 10 11.0372 10 10.0023Z" fill="#3F4E4F"/>
</svg>
