<svg width="27" height="26" viewBox="0 0 27 26" fill="none" xmlns="http://www.w3.org/2000/svg">
<path d="M22.95 1.50537H4.04998C2.56498 1.50537 1.34998 2.64477 1.34998 4.03737V21.7614C1.34998 23.1552 2.56498 24.2934 4.04998 24.2934H13.5V15.4314H10.8V12.298H13.5V9.70272C13.5 6.9631 15.1362 5.03878 18.5841 5.03878L21.0181 5.04131V8.33924H19.4022C18.0603 8.33924 17.55 9.28368 17.55 10.1597V12.2993H21.0168L20.25 15.4314H17.55V24.2934H22.95C24.435 24.2934 25.65 23.1552 25.65 21.7614V4.03737C25.65 2.64477 24.435 1.50537 22.95 1.50537Z" fill="#3F4E4F"/>
</svg>
