<svg width="30" height="31" viewBox="0 0 30 31" fill="none" xmlns="http://www.w3.org/2000/svg">
<path d="M15 4.15978C12.6794 4.15978 10.4538 5.06873 8.81282 6.68667C7.17187 8.3046 6.25 10.499 6.25 12.7871C6.25 16.3145 8.4775 19.7173 10.9225 22.3536C12.1733 23.6959 13.5374 24.9311 15 26.0461C16.4626 24.932 17.8266 23.6976 19.0775 22.3561C21.5225 19.7173 23.75 16.3157 23.75 12.7871C23.75 10.499 22.8281 8.3046 21.1872 6.68667C19.5462 5.06873 17.3206 4.15978 15 4.15978ZM15 29.0731L14.2912 28.5924L14.2875 28.5899L14.28 28.5838L14.255 28.5665L14.1613 28.5012C13.6437 28.1302 13.1376 27.7439 12.6437 27.3427C11.378 26.3174 10.1863 25.2063 9.0775 24.0174C6.5225 21.2616 3.75 17.2696 3.75 12.7871C3.75 9.84526 4.93526 7.02389 7.04505 4.94368C9.15483 2.86347 12.0163 1.69482 15 1.69482C17.9837 1.69482 20.8452 2.86347 22.955 4.94368C25.0647 7.02389 26.25 9.84526 26.25 12.7871C26.25 17.2696 23.4775 21.2629 20.9225 24.0174C19.4748 25.57 17.8866 26.9891 16.1775 28.2572C16.0351 28.3621 15.8913 28.4652 15.7463 28.5665L15.72 28.5838L15.7125 28.5899L15.71 28.5912L15 29.0718V29.0731ZM15 10.3222C14.337 10.3222 13.7011 10.5819 13.2322 11.0441C12.7634 11.5064 12.5 12.1334 12.5 12.7871C12.5 13.4409 12.7634 14.0678 13.2322 14.5301C13.7011 14.9924 14.337 15.2521 15 15.2521C15.663 15.2521 16.2989 14.9924 16.7678 14.5301C17.2366 14.0678 17.5 13.4409 17.5 12.7871C17.5 12.1334 17.2366 11.5064 16.7678 11.0441C16.2989 10.5819 15.663 10.3222 15 10.3222ZM10 12.7871C10 11.4796 10.5268 10.2257 11.4645 9.30114C12.4021 8.37661 13.6739 7.85721 15 7.85721C16.3261 7.85721 17.5979 8.37661 18.5355 9.30114C19.4732 10.2257 20 11.4796 20 12.7871C20 14.0946 19.4732 15.3485 18.5355 16.2731C17.5979 17.1976 16.3261 17.717 15 17.717C13.6739 17.717 12.4021 17.1976 11.4645 16.2731C10.5268 15.3485 10 14.0946 10 12.7871Z" fill="#3F4E4F"/>
</svg>
