<svg width="28" height="26" viewBox="0 0 28 26" fill="none" xmlns="http://www.w3.org/2000/svg">
<path d="M8.41301 0.484863H19.753C24.073 0.484863 27.583 3.77646 27.583 7.82767V18.4621C27.583 20.4095 26.7581 22.2772 25.2897 23.6542C23.8212 25.0313 21.8297 25.8049 19.753 25.8049H8.41301C4.09301 25.8049 0.583008 22.5133 0.583008 18.4621V7.82767C0.583008 5.88023 1.40795 4.01256 2.87636 2.63552C4.34477 1.25848 6.33636 0.484863 8.41301 0.484863ZM8.14301 3.01686C6.85406 3.01686 5.6179 3.49704 4.70647 4.35175C3.79504 5.20647 3.28301 6.36571 3.28301 7.57447V18.7153C3.28301 21.2346 5.45651 23.2729 8.14301 23.2729H20.023C21.312 23.2729 22.5481 22.7927 23.4595 21.938C24.371 21.0833 24.883 19.924 24.883 18.7153V7.57447C24.883 5.05512 22.7095 3.01686 20.023 3.01686H8.14301ZM21.1705 4.91586C21.6181 4.91586 22.0473 5.08259 22.3638 5.37937C22.6802 5.67614 22.858 6.07866 22.858 6.49837C22.858 6.91807 22.6802 7.32059 22.3638 7.61736C22.0473 7.91414 21.6181 8.08087 21.1705 8.08087C20.723 8.08087 20.2937 7.91414 19.9773 7.61736C19.6608 7.32059 19.483 6.91807 19.483 6.49837C19.483 6.07866 19.6608 5.67614 19.9773 5.37937C20.2937 5.08259 20.723 4.91586 21.1705 4.91586ZM14.083 6.81487C15.8732 6.81487 17.5901 7.48177 18.856 8.66888C20.1218 9.85599 20.833 11.466 20.833 13.1449C20.833 14.8237 20.1218 16.4337 18.856 17.6209C17.5901 18.808 15.8732 19.4749 14.083 19.4749C12.2928 19.4749 10.5759 18.808 9.31004 17.6209C8.04417 16.4337 7.33301 14.8237 7.33301 13.1449C7.33301 11.466 8.04417 9.85599 9.31004 8.66888C10.5759 7.48177 12.2928 6.81487 14.083 6.81487ZM14.083 9.34687C13.0089 9.34687 11.9787 9.74701 11.2192 10.4593C10.4597 11.1715 10.033 12.1376 10.033 13.1449C10.033 14.1522 10.4597 15.1182 11.2192 15.8305C11.9787 16.5427 13.0089 16.9429 14.083 16.9429C15.1571 16.9429 16.1873 16.5427 16.9468 15.8305C17.7063 15.1182 18.133 14.1522 18.133 13.1449C18.133 12.1376 17.7063 11.1715 16.9468 10.4593C16.1873 9.74701 15.1571 9.34687 14.083 9.34687Z" fill="#3F4E4F"/>
</svg>
