<svg width="27" height="21" viewBox="0 0 27 21" fill="none" xmlns="http://www.w3.org/2000/svg">
<path d="M22.95 1.77417H4.04998C2.56498 1.77417 1.34998 2.67597 1.34998 3.77817V17.8062C1.34998 18.9094 2.56498 19.8102 4.04998 19.8102H13.5V12.7962H10.8V10.3162H13.5V8.26212C13.5 6.09379 15.1362 4.57075 18.5841 4.57075L21.0181 4.57276V7.18297H19.4022C18.0603 7.18297 17.55 7.93046 17.55 8.62384V10.3172H21.0168L20.25 12.7962H17.55V19.8102H22.95C24.435 19.8102 25.65 18.9094 25.65 17.8062V3.77817C25.65 2.67597 24.435 1.77417 22.95 1.77417Z" fill="#3F4E4F"/>
</svg>
