<svg width="30" height="25" viewBox="0 0 30 25" fill="none" xmlns="http://www.w3.org/2000/svg">
<g clip-path="url(#clip0_582_156)">
<path fill-rule="evenodd" clip-rule="evenodd" d="M3.75 5.91111H26.25C26.4986 5.91111 26.7371 5.98819 26.9129 6.12539C27.0887 6.26259 27.1875 6.44868 27.1875 6.64271V7.47966L15 12.914L2.8125 7.47966V6.64271C2.8125 6.44868 2.91127 6.26259 3.08709 6.12539C3.2629 5.98819 3.50136 5.91111 3.75 5.91111ZM2.8125 10.0081V18.3483C2.8125 18.5424 2.91127 18.7284 3.08709 18.8656C3.2629 19.0028 3.50136 19.0799 3.75 19.0799H26.25C26.4986 19.0799 26.7371 19.0028 26.9129 18.8656C27.0887 18.7284 27.1875 18.5424 27.1875 18.3483V10.0081L15.6975 15.1293L15 15.4424L14.3025 15.1293L2.8125 10.0081ZM0 6.64271C0 5.86658 0.395088 5.12224 1.09835 4.57343C1.80161 4.02462 2.75544 3.71631 3.75 3.71631H26.25C27.2446 3.71631 28.1984 4.02462 28.9016 4.57343C29.6049 5.12224 30 5.86658 30 6.64271V18.3483C30 19.1244 29.6049 19.8688 28.9016 20.4176C28.1984 20.9664 27.2446 21.2747 26.25 21.2747H3.75C2.75544 21.2747 1.80161 20.9664 1.09835 20.4176C0.395088 19.8688 0 19.1244 0 18.3483V6.64271Z" fill="#3F4E4F"/>
</g>
<defs>
<clipPath id="clip0_582_156">
<rect width="30" height="23.4112" fill="white" transform="translate(0 0.789795)"/>
</clipPath>
</defs>
</svg>
