<svg width="27" height="26" viewBox="0 0 27 26" fill="none" xmlns="http://www.w3.org/2000/svg">
<path d="M22.95 1.55566H4.04998C2.56498 1.55566 1.34998 2.71126 1.34998 4.12366V22.0997C1.34998 23.5133 2.56498 24.6677 4.04998 24.6677H13.5V15.6797H10.8V12.5018H13.5V9.86956C13.5 7.09099 15.1362 5.13931 18.5841 5.13931L21.0181 5.14188V8.48669H19.4022C18.0603 8.48669 17.55 9.44456 17.55 10.3331V12.503H21.0168L20.25 15.6797H17.55V24.6677H22.95C24.435 24.6677 25.65 23.5133 25.65 22.0997V4.12366C25.65 2.71126 24.435 1.55566 22.95 1.55566Z" fill="#3F4E4F"/>
</svg>
