<svg width="27" height="30" viewBox="0 0 27 30" fill="none" xmlns="http://www.w3.org/2000/svg">
<g clip-path="url(#clip0_538_1638)">
<path d="M3.85714 1.83398C1.72969 1.83398 0 3.47911 0 5.50256V23.8454C0 25.8689 1.72969 27.514 3.85714 27.514H23.1429C25.2703 27.514 27 25.8689 27 23.8454V5.50256C27 3.47911 25.2703 1.83398 23.1429 1.83398H3.85714ZM21.1721 11.4239C21.1721 16.3936 17.1944 22.12 9.92612 22.12C7.68415 22.12 5.60491 21.501 3.85714 20.4348C4.17656 20.4692 4.48393 20.4806 4.80938 20.4806C6.6596 20.4806 8.35915 19.8845 9.71518 18.8756C7.97946 18.8413 6.52098 17.7579 6.02076 16.2675C6.62946 16.3535 7.1779 16.3535 7.80469 16.1987C5.99665 15.8491 4.64063 14.3358 4.64063 12.5072V12.4614C5.16496 12.7423 5.77969 12.9142 6.42455 12.9371C5.88214 12.5932 5.43616 12.1289 5.12879 11.5844C4.82143 11.0398 4.65871 10.4265 4.66473 9.8074C4.66473 9.10807 4.85759 8.46607 5.20112 7.91006C7.14777 10.1914 10.0708 11.6818 13.3493 11.8423C12.7888 9.2915 14.7958 7.2222 17.2065 7.2222C18.3455 7.2222 19.3701 7.67504 20.0933 8.40875C20.9853 8.24825 21.8411 7.93298 22.6004 7.50307C22.3051 8.37436 21.6844 9.10807 20.8647 9.57238C21.6603 9.49213 22.4317 9.28004 23.1429 8.9877C22.6065 9.73861 21.9315 10.4035 21.16 10.9366C21.1721 11.0971 21.1721 11.2634 21.1721 11.4239Z" fill="#3F4E4F"/>
</g>
<defs>
<clipPath id="clip0_538_1638">
<rect width="27" height="29.3486" fill="white"/>
</clipPath>
</defs>
</svg>
