<svg width="30" height="30" viewBox="0 0 30 30" fill="none" xmlns="http://www.w3.org/2000/svg">
<path d="M15 3.75C12.6794 3.75 10.4538 4.67187 8.81282 6.31282C7.17187 7.95376 6.25 10.1794 6.25 12.5C6.25 16.0775 8.4775 19.5287 10.9225 22.2025C12.1733 23.5639 13.5374 24.8167 15 25.9475C16.4626 24.8176 17.8266 23.5656 19.0775 22.205C21.5225 19.5287 23.75 16.0787 23.75 12.5C23.75 10.1794 22.8281 7.95376 21.1872 6.31282C19.5462 4.67187 17.3206 3.75 15 3.75ZM15 29.0175L14.2912 28.53L14.2875 28.5275L14.28 28.5212L14.255 28.5037L14.1613 28.4375C13.6437 28.0613 13.1376 27.6694 12.6437 27.2625C11.378 26.2227 10.1863 25.0958 9.0775 23.89C6.5225 21.095 3.75 17.0463 3.75 12.5C3.75 9.51631 4.93526 6.65483 7.04505 4.54505C9.15483 2.43526 12.0163 1.25 15 1.25C17.9837 1.25 20.8452 2.43526 22.955 4.54505C25.0647 6.65483 26.25 9.51631 26.25 12.5C26.25 17.0463 23.4775 21.0962 20.9225 23.89C19.4748 25.4646 17.8866 26.9039 16.1775 28.19C16.0351 28.2964 15.8913 28.401 15.7463 28.5037L15.72 28.5212L15.7125 28.5275L15.71 28.5287L15 29.0162V29.0175ZM15 10C14.337 10 13.7011 10.2634 13.2322 10.7322C12.7634 11.2011 12.5 11.837 12.5 12.5C12.5 13.163 12.7634 13.7989 13.2322 14.2678C13.7011 14.7366 14.337 15 15 15C15.663 15 16.2989 14.7366 16.7678 14.2678C17.2366 13.7989 17.5 13.163 17.5 12.5C17.5 11.837 17.2366 11.2011 16.7678 10.7322C16.2989 10.2634 15.663 10 15 10ZM10 12.5C10 11.1739 10.5268 9.90215 11.4645 8.96447C12.4021 8.02678 13.6739 7.5 15 7.5C16.3261 7.5 17.5979 8.02678 18.5355 8.96447C19.4732 9.90215 20 11.1739 20 12.5C20 13.8261 19.4732 15.0979 18.5355 16.0355C17.5979 16.9732 16.3261 17.5 15 17.5C13.6739 17.5 12.4021 16.9732 11.4645 16.0355C10.5268 15.0979 10 13.8261 10 12.5Z" fill="#3F4E4F"/>
</svg>
