<svg width="27" height="26" viewBox="0 0 27 26" fill="none" xmlns="http://www.w3.org/2000/svg">
<path d="M22.95 1.50488H4.04998C2.56498 1.50488 1.34998 2.64428 1.34998 4.03688V21.7609C1.34998 23.1548 2.56498 24.2929 4.04998 24.2929H13.5V15.4309H10.8V12.2975H13.5V9.70223C13.5 6.96261 15.1362 5.03829 18.5841 5.03829L21.0181 5.04082V8.33875H19.4022C18.0603 8.33875 17.55 9.28319 17.55 10.1593V12.2988H21.0168L20.25 15.4309H17.55V24.2929H22.95C24.435 24.2929 25.65 23.1548 25.65 21.7609V4.03688C25.65 2.64428 24.435 1.50488 22.95 1.50488Z" fill="#3F4E4F"/>
</svg>
