<svg width="30" height="30" viewBox="0 0 30 30" fill="none" xmlns="http://www.w3.org/2000/svg">
<g clip-path="url(#clip0_538_1454)">
<path fill-rule="evenodd" clip-rule="evenodd" d="M3.75 6.60608H26.25C26.4986 6.60608 26.7371 6.70347 26.9129 6.87682C27.0887 7.05017 27.1875 7.28528 27.1875 7.53044V8.5879L15 15.454L2.8125 8.5879V7.53044C2.8125 7.28528 2.91127 7.05017 3.08709 6.87682C3.2629 6.70347 3.50136 6.60608 3.75 6.60608ZM2.8125 11.7825V22.3202C2.8125 22.5653 2.91127 22.8004 3.08709 22.9738C3.2629 23.1471 3.50136 23.2445 3.75 23.2445H26.25C26.4986 23.2445 26.7371 23.1471 26.9129 22.9738C27.0887 22.8004 27.1875 22.5653 27.1875 22.3202V11.7825L15.6975 18.253L15 18.6486L14.3025 18.253L2.8125 11.7825ZM0 7.53044C0 6.54982 0.395088 5.60936 1.09835 4.91596C1.80161 4.22256 2.75544 3.83301 3.75 3.83301H26.25C27.2446 3.83301 28.1984 4.22256 28.9016 4.91596C29.6049 5.60936 30 6.54982 30 7.53044V22.3202C30 23.3008 29.6049 24.2412 28.9016 24.9346C28.1984 25.628 27.2446 26.0176 26.25 26.0176H3.75C2.75544 26.0176 1.80161 25.628 1.09835 24.9346C0.395088 24.2412 0 23.3008 0 22.3202V7.53044Z" fill="#3F4E4F"/>
</g>
<defs>
<clipPath id="clip0_538_1454">
<rect width="30" height="29.5794" fill="white" transform="translate(0 0.135742)"/>
</clipPath>
</defs>
</svg>
