<svg width="27" height="26" viewBox="0 0 27 26" fill="none" xmlns="http://www.w3.org/2000/svg">
<path d="M22.9842 1.55499H4.39915C2.93889 1.55499 1.74414 2.71059 1.74414 4.12299V22.099C1.74414 23.5127 2.93889 24.667 4.39915 24.667H13.6917V15.679H11.0367V12.5011H13.6917V9.86889C13.6917 7.09032 15.3006 5.13864 18.691 5.13864L21.0845 5.1412V8.48602H19.4955C18.176 8.48602 17.6742 9.44389 17.6742 10.3324V12.5024H21.0832L20.3292 15.679H17.6742V24.667H22.9842C24.4444 24.667 25.6392 23.5127 25.6392 22.099V4.12299C25.6392 2.71059 24.4444 1.55499 22.9842 1.55499Z" fill="#3F4E4F"/>
</svg>
