<svg width="28" height="30" viewBox="0 0 28 30" fill="none" xmlns="http://www.w3.org/2000/svg">
<g clip-path="url(#clip0_479_283)">
<path d="M4.75966 1.83432C2.66766 1.83432 0.966797 3.47945 0.966797 5.50289V23.8457C0.966797 25.8692 2.66766 27.5143 4.75966 27.5143H23.724C25.816 27.5143 27.5168 25.8692 27.5168 23.8457V5.50289C27.5168 3.47945 25.816 1.83432 23.724 1.83432H4.75966ZM21.7861 11.4242C21.7861 16.394 17.8747 22.1204 10.7275 22.1204C8.52289 22.1204 6.4783 21.5013 4.75966 20.4351C5.07376 20.4695 5.376 20.481 5.69602 20.481C7.51541 20.481 9.18664 19.8848 10.5201 18.876C8.81328 18.8416 7.37911 17.7582 6.88722 16.2679C7.48578 16.3538 8.02508 16.3538 8.64142 16.1991C6.86352 15.8494 5.53009 14.3361 5.53009 12.5076V12.4617C6.04568 12.7426 6.65017 12.9146 7.28429 12.9375C6.75091 12.5936 6.31236 12.1292 6.01012 11.5847C5.70788 11.0401 5.54787 10.4268 5.55379 9.80773C5.55379 9.10841 5.74344 8.46641 6.08124 7.91039C7.99545 10.1918 10.8697 11.6821 14.0937 11.8426C13.5425 9.29184 15.516 7.22253 17.8865 7.22253C19.0066 7.22253 20.0141 7.67537 20.7252 8.40909C21.6023 8.24859 22.4439 7.93332 23.1906 7.50341C22.9002 8.37469 22.2898 9.10841 21.4838 9.57271C22.2661 9.49246 23.0247 9.28037 23.724 8.98803C23.1965 9.73895 22.5328 10.4039 21.7742 10.937C21.7861 11.0975 21.7861 11.2637 21.7861 11.4242Z" fill="#3F4E4F"/>
</g>
<defs>
<clipPath id="clip0_479_283">
<rect width="26.55" height="29.3486" fill="white" transform="translate(0.966797)"/>
</clipPath>
</defs>
</svg>
