<svg width="29" height="22" viewBox="0 0 29 22" fill="none" xmlns="http://www.w3.org/2000/svg">
<path d="M24.3012 1.43213H4.79742C3.26498 1.43213 2.01117 2.38523 2.01117 3.55013V18.3761C2.01117 19.5421 3.26498 20.4941 4.79742 20.4941H14.5493V13.0811H11.7631V10.4601H14.5493V8.28916C14.5493 5.99748 16.2378 4.3878 19.7958 4.3878L22.3076 4.38992V7.14861H20.6401C19.2553 7.14861 18.7287 7.93863 18.7287 8.67146V10.4612H22.3063L21.515 13.0811H18.7287V20.4941H24.3012C25.8337 20.4941 27.0875 19.5421 27.0875 18.3761V3.55013C27.0875 2.38523 25.8337 1.43213 24.3012 1.43213Z" fill="white"/>
</svg>
