<svg width="34" height="27" viewBox="0 0 34 27" fill="none" xmlns="http://www.w3.org/2000/svg">
<path d="M26.2503 23.2741H25.9339C22.3685 22.964 18.9432 21.9925 15.9309 20.4369C13.1325 19.0124 10.7566 17.1172 8.96872 14.8835C7.01787 12.4696 5.80205 9.72396 5.41883 6.86673C5.37501 6.52593 5.41828 6.18157 5.546 5.85454C5.67372 5.52751 5.88323 5.22463 6.16183 4.96427C6.4328 4.70042 6.76727 4.48271 7.14541 4.32404C7.52356 4.16537 7.9377 4.06896 8.36331 4.04053H11.9407C12.7155 4.04115 13.4645 4.26318 14.0524 4.66651C14.6403 5.06985 15.0284 5.6279 15.1466 6.2399C15.2773 7.02605 15.522 7.79736 15.8759 8.53825C16.0911 9.00384 16.1355 9.50887 16.0039 9.99395C15.8723 10.479 15.5701 10.924 15.1329 11.2765L14.2936 11.9473C15.615 13.6146 17.3876 15.0238 19.4808 16.0711L20.3201 15.4113C20.7611 15.0619 21.3179 14.8203 21.9248 14.7151C22.5317 14.6099 23.1636 14.6454 23.7462 14.8175C24.6742 15.0977 25.6389 15.2932 26.6218 15.4003C27.4007 15.4939 28.11 15.8114 28.6166 16.2933C29.1233 16.7752 29.3925 17.3883 29.3737 18.0176V20.6568C29.3737 21.3432 29.0335 22.0017 28.4275 22.4881C27.8215 22.9745 26.9991 23.2492 26.1403 23.2521L26.2503 23.2741ZM11.9407 5.67906H8.65226C8.49079 5.6876 8.33316 5.7222 8.18891 5.7808C8.04465 5.83939 7.91675 5.92075 7.81294 6.01997C7.71191 6.1129 7.63545 6.22122 7.58816 6.33839C7.54086 6.45556 7.52372 6.57917 7.53776 6.70177C7.8714 9.29349 8.95994 11.7867 10.7161 13.9817C12.3351 16.0125 14.4907 17.7353 17.0316 19.0293C19.7797 20.4477 22.9027 21.3362 26.154 21.6245C26.3231 21.6322 26.4924 21.6117 26.651 21.5643C26.8097 21.517 26.9544 21.4439 27.0759 21.3496C27.295 21.1701 27.4183 20.9296 27.4199 20.6788V18.0506C27.4261 17.8191 27.3259 17.5939 27.1382 17.4176C26.9505 17.2413 26.6885 17.1261 26.4017 17.0938C25.265 16.9717 24.1484 16.7504 23.072 16.434C22.8599 16.3706 22.6297 16.3566 22.4081 16.3936C22.1864 16.4306 21.9825 16.5171 21.8199 16.643L20.4439 17.7426C20.2828 17.8682 20.0752 17.9489 19.8521 17.9727C19.629 17.9964 19.4023 17.9621 19.2056 17.8746C16.2696 16.5486 13.8394 14.6101 12.1746 12.2662C12.0607 12.11 12.015 11.9279 12.0449 11.7487C12.0748 11.5695 12.1786 11.4033 12.3397 11.2765L13.7157 10.1768C13.8735 10.0493 13.982 9.88812 14.0284 9.71263C14.0747 9.53714 14.0569 9.3547 13.9771 9.18707C13.5797 8.32709 13.3028 7.43456 13.1515 6.52582C13.1174 6.28968 12.9745 6.07216 12.7507 5.91562C12.5268 5.75909 12.2381 5.67476 11.9407 5.67906Z" fill="white"/>
</svg>
