<svg width="32" height="26" viewBox="0 0 32 26" fill="none" xmlns="http://www.w3.org/2000/svg">
<path d="M16.4125 3.37539C14.0177 3.37539 11.721 4.13572 10.0277 5.48912C8.33431 6.84251 7.38299 8.67811 7.38299 10.5921C7.38299 13.5427 9.68165 16.3892 12.2047 18.5944C13.4956 19.7172 14.9032 20.7505 16.4125 21.6831C17.9218 20.7512 19.3294 19.7186 20.6202 18.5964C23.1434 16.3892 25.442 13.5437 25.442 10.5921C25.442 8.67811 24.4907 6.84251 22.7973 5.48912C21.104 4.13572 18.8073 3.37539 16.4125 3.37539ZM16.4125 24.2152L15.6811 23.8131L15.6772 23.811L15.6695 23.8059L15.6437 23.7914L15.547 23.7368C15.0128 23.4265 14.4906 23.1033 13.981 22.7677C12.6748 21.9101 11.4451 20.9807 10.3008 19.9862C7.6642 17.681 4.80313 14.3417 4.80313 10.5921C4.80313 8.13125 6.02626 5.7712 8.20344 4.03112C10.3806 2.29104 13.3335 1.31348 16.4125 1.31348C19.4915 1.31348 22.4444 2.29104 24.6216 4.03112C26.7987 5.7712 28.0219 8.13125 28.0219 10.5921C28.0219 14.3417 25.1608 17.682 22.5242 19.9862C21.0303 21.2849 19.3913 22.4719 17.6276 23.5327C17.4806 23.6204 17.3323 23.7067 17.1826 23.7914L17.1555 23.8059L17.1478 23.811L17.1452 23.8121L16.4125 24.2141V24.2152ZM16.4125 8.53018C15.7283 8.53018 15.0721 8.74742 14.5883 9.1341C14.1044 9.52079 13.8326 10.0452 13.8326 10.5921C13.8326 11.1389 14.1044 11.6634 14.5883 12.0501C15.0721 12.4368 15.7283 12.654 16.4125 12.654C17.0967 12.654 17.7529 12.4368 18.2367 12.0501C18.7206 11.6634 18.9924 11.1389 18.9924 10.5921C18.9924 10.0452 18.7206 9.52079 18.2367 9.1341C17.7529 8.74742 17.0967 8.53018 16.4125 8.53018ZM11.2528 10.5921C11.2528 9.49839 11.7964 8.44947 12.764 7.67611C13.7317 6.90274 15.0441 6.46826 16.4125 6.46826C17.7809 6.46826 19.0933 6.90274 20.061 7.67611C21.0286 8.44947 21.5722 9.49839 21.5722 10.5921C21.5722 11.6858 21.0286 12.7347 20.061 13.5081C19.0933 14.2815 17.7809 14.7159 16.4125 14.7159C15.0441 14.7159 13.7317 14.2815 12.764 13.5081C11.7964 12.7347 11.2528 11.6858 11.2528 10.5921Z" fill="white"/>
</svg>
