<svg width="29" height="22" viewBox="0 0 29 22" fill="none" xmlns="http://www.w3.org/2000/svg">
<path d="M8.7984 0.742188H20.5007C24.9587 0.742188 28.5808 3.49559 28.5808 6.88439V15.78C28.5808 17.409 27.7295 18.9713 26.2142 20.1232C24.6989 21.2751 22.6437 21.9222 20.5007 21.9222H8.7984C4.34039 21.9222 0.718262 19.1688 0.718262 15.78V6.88439C0.718262 5.25538 1.56956 3.69308 3.08488 2.5412C4.6002 1.38931 6.65541 0.742188 8.7984 0.742188ZM8.51978 2.86019C7.18965 2.86019 5.914 3.26185 4.97345 3.97681C4.03291 4.69178 3.50452 5.66148 3.50452 6.67259V15.9918C3.50452 18.0992 5.74745 19.8042 8.51978 19.8042H20.7793C22.1094 19.8042 23.3851 19.4025 24.3256 18.6876C25.2662 17.9726 25.7946 17.0029 25.7946 15.9918V6.67259C25.7946 4.56518 23.5516 2.86019 20.7793 2.86019H8.51978ZM21.9635 4.44869C22.4253 4.44869 22.8682 4.58815 23.1948 4.83641C23.5214 5.08466 23.7049 5.42136 23.7049 5.77244C23.7049 6.12352 23.5214 6.46022 23.1948 6.70847C22.8682 6.95672 22.4253 7.09619 21.9635 7.09619C21.5016 7.09619 21.0587 6.95672 20.7321 6.70847C20.4055 6.46022 20.222 6.12352 20.222 5.77244C20.222 5.42136 20.4055 5.08466 20.7321 4.83641C21.0587 4.58815 21.5016 4.44869 21.9635 4.44869ZM14.6495 6.03719C16.4969 6.03719 18.2687 6.59505 19.575 7.58806C20.8813 8.58107 21.6152 9.92787 21.6152 11.3322C21.6152 12.7365 20.8813 14.0833 19.575 15.0763C18.2687 16.0693 16.4969 16.6272 14.6495 16.6272C12.8021 16.6272 11.0304 16.0693 9.72409 15.0763C8.41778 14.0833 7.6839 12.7365 7.6839 11.3322C7.6839 9.92787 8.41778 8.58107 9.72409 7.58806C11.0304 6.59505 12.8021 6.03719 14.6495 6.03719ZM14.6495 8.15519C13.5411 8.15519 12.4781 8.48991 11.6943 9.08571C10.9105 9.68152 10.4702 10.4896 10.4702 11.3322C10.4702 12.1748 10.9105 12.9829 11.6943 13.5787C12.4781 14.1745 13.5411 14.5092 14.6495 14.5092C15.758 14.5092 16.821 14.1745 17.6048 13.5787C18.3886 12.9829 18.8289 12.1748 18.8289 11.3322C18.8289 10.4896 18.3886 9.68152 17.6048 9.08571C16.821 8.48991 15.758 8.15519 14.6495 8.15519Z" fill="white"/>
</svg>
