<svg width="32" height="26" viewBox="0 0 32 26" fill="none" xmlns="http://www.w3.org/2000/svg">
<path d="M24.5333 22.3613H24.2266C20.7717 22.068 17.4523 21.1487 14.5333 19.6769C11.8215 18.329 9.51914 16.5359 7.78663 14.4223C5.89617 12.1384 4.71799 9.54055 4.34663 6.83711C4.30417 6.51465 4.34609 6.18883 4.46986 5.8794C4.59363 5.56997 4.79666 5.28339 5.06663 5.03704C5.32922 4.7874 5.65333 4.58141 6.01977 4.43128C6.38621 4.28115 6.78753 4.18993 7.19997 4.16302H10.6666C11.4174 4.16362 12.1433 4.37369 12.713 4.75532C13.2827 5.13694 13.6588 5.66496 13.7733 6.24402C13.8999 6.98785 14.137 7.71764 14.48 8.41866C14.6886 8.85919 14.7316 9.33704 14.6041 9.79601C14.4765 10.255 14.1837 10.676 13.76 11.0095L12.9466 11.6442C14.2272 13.2218 15.9449 14.5552 17.9733 15.5461L18.7866 14.9218C19.214 14.5911 19.7535 14.3626 20.3416 14.2631C20.9298 14.1635 21.5421 14.1971 22.1066 14.3599C23.0059 14.6251 23.9408 14.8101 24.8933 14.9114C25.648 14.9999 26.3353 15.3003 26.8263 15.7563C27.3173 16.2122 27.5782 16.7924 27.56 17.3878V19.885C27.56 20.5344 27.2303 21.1574 26.643 21.6176C26.0558 22.0779 25.2589 22.3378 24.4266 22.3405L24.5333 22.3613ZM10.6666 5.71337H7.47997C7.3235 5.72144 7.17075 5.75419 7.03096 5.80963C6.89116 5.86507 6.76723 5.94205 6.66663 6.03592C6.56873 6.12386 6.49463 6.22634 6.4488 6.33721C6.40298 6.44807 6.38636 6.56503 6.39997 6.68103C6.72328 9.13325 7.77812 11.4923 9.47997 13.5691C11.0488 15.4906 13.1377 17.1207 15.6 18.345C18.263 19.6871 21.2893 20.5277 24.44 20.8006C24.6038 20.8078 24.7678 20.7884 24.9216 20.7436C25.0753 20.6989 25.2155 20.6297 25.3333 20.5405C25.5456 20.3706 25.6651 20.143 25.6666 19.9058V17.419C25.6726 17.2 25.5755 16.9869 25.3937 16.8201C25.2118 16.6532 24.9579 16.5443 24.68 16.5137C23.5784 16.3982 22.4964 16.1888 21.4533 15.8894C21.2478 15.8295 21.0247 15.8162 20.81 15.8512C20.5952 15.8862 20.3976 15.968 20.24 16.0871L18.9066 17.1276C18.7505 17.2465 18.5493 17.3228 18.3332 17.3453C18.117 17.3678 17.8972 17.3352 17.7066 17.2525C14.8615 15.9979 12.5066 14.1637 10.8933 11.946C10.7829 11.7982 10.7387 11.6259 10.7676 11.4563C10.7966 11.2868 10.8971 11.1295 11.0533 11.0095L12.3866 9.96901C12.5395 9.84833 12.6447 9.69588 12.6896 9.52983C12.7346 9.36379 12.7173 9.19116 12.64 9.03256C12.2549 8.21887 11.9866 7.37438 11.84 6.51455C11.8069 6.29112 11.6684 6.0853 11.4515 5.93719C11.2346 5.78909 10.9548 5.7093 10.6666 5.71337Z" fill="#3F4E4F"/>
</svg>
