<svg width="28" height="21" viewBox="0 0 28 21" fill="none" xmlns="http://www.w3.org/2000/svg">
<path d="M8.41301 0.175171H19.753C24.073 0.175171 27.583 2.78037 27.583 5.98677V14.4036C27.583 15.9449 26.7581 17.4231 25.2897 18.513C23.8212 19.6029 21.8297 20.2152 19.753 20.2152H8.41301C4.09301 20.2152 0.583008 17.61 0.583008 14.4036V5.98677C0.583008 4.44544 1.40795 2.96724 2.87636 1.87735C4.34477 0.787463 6.33636 0.175171 8.41301 0.175171ZM8.14301 2.17917C6.85406 2.17917 5.6179 2.55922 4.70647 3.2357C3.79504 3.91218 3.28301 4.82968 3.28301 5.78637V14.604C3.28301 16.598 5.45651 18.2112 8.14301 18.2112H20.023C21.312 18.2112 22.5481 17.8311 23.4595 17.1547C24.371 16.4782 24.883 15.5607 24.883 14.604V5.78637C24.883 3.79239 22.7095 2.17917 20.023 2.17917H8.14301ZM21.1705 3.68217C21.6181 3.68217 22.0473 3.81413 22.3638 4.04902C22.6802 4.28391 22.858 4.60249 22.858 4.93467C22.858 5.26686 22.6802 5.58544 22.3638 5.82032C22.0473 6.05521 21.6181 6.18717 21.1705 6.18717C20.723 6.18717 20.2937 6.05521 19.9773 5.82032C19.6608 5.58544 19.483 5.26686 19.483 4.93467C19.483 4.60249 19.6608 4.28391 19.9773 4.04902C20.2937 3.81413 20.723 3.68217 21.1705 3.68217ZM14.083 5.18517C15.8732 5.18517 17.5901 5.71301 18.856 6.65257C20.1218 7.59213 20.833 8.86644 20.833 10.1952C20.833 11.5239 20.1218 12.7982 18.856 13.7378C17.5901 14.6773 15.8732 15.2052 14.083 15.2052C12.2928 15.2052 10.5759 14.6773 9.31004 13.7378C8.04417 12.7982 7.33301 11.5239 7.33301 10.1952C7.33301 8.86644 8.04417 7.59213 9.31004 6.65257C10.5759 5.71301 12.2928 5.18517 14.083 5.18517ZM14.083 7.18917C13.0089 7.18917 11.9787 7.50588 11.2192 8.06961C10.4597 8.63335 10.033 9.39793 10.033 10.1952C10.033 10.9924 10.4597 11.757 11.2192 12.3207C11.9787 12.8845 13.0089 13.2012 14.083 13.2012C15.1571 13.2012 16.1873 12.8845 16.9468 12.3207C17.7063 11.757 18.133 10.9924 18.133 10.1952C18.133 9.39793 17.7063 8.63335 16.9468 8.06961C16.1873 7.50588 15.1571 7.18917 14.083 7.18917Z" fill="#3F4E4F"/>
</svg>
