<svg width="32" height="32" viewBox="0 0 32 32" fill="none" xmlns="http://www.w3.org/2000/svg">
<path d="M24.5333 27.2707H24.2266C20.7717 26.9097 17.4523 25.7785 14.5333 23.9673C11.8215 22.3088 9.51914 20.1022 7.78663 17.5014C5.89617 14.691 4.71799 11.4942 4.34663 8.16751C4.30417 7.77072 4.34609 7.36978 4.46986 6.98902C4.59363 6.60826 4.79666 6.25561 5.06663 5.95247C5.32922 5.64527 5.65333 5.39179 6.01977 5.20705C6.38621 5.02231 6.78753 4.91006 7.19997 4.87695H10.6666C11.4174 4.87768 12.1433 5.13619 12.713 5.60579C13.2827 6.0754 13.6588 6.72514 13.7733 7.4377C13.8999 8.35301 14.137 9.25105 14.48 10.1137C14.6886 10.6558 14.7316 11.2438 14.6041 11.8086C14.4765 12.3733 14.1837 12.8914 13.76 13.3018L12.9466 14.0828C14.2272 16.0241 15.9449 17.6649 17.9733 18.8842L18.7866 18.116C19.214 17.7092 19.7535 17.4279 20.3416 17.3055C20.9298 17.183 21.5421 17.2243 22.1066 17.4246C23.0059 17.7509 23.9408 17.9785 24.8933 18.1032C25.648 18.2122 26.3353 18.5819 26.8263 19.1429C27.3173 19.704 27.5782 20.4178 27.56 21.1505V24.2234C27.56 25.0226 27.2303 25.7892 26.643 26.3555C26.0558 26.9218 25.2589 27.2417 24.4266 27.2451L24.5333 27.2707ZM10.6666 6.78471H7.47997C7.3235 6.79464 7.17075 6.83494 7.03096 6.90316C6.89116 6.97138 6.76723 7.06611 6.66663 7.18163C6.56873 7.28983 6.49463 7.41594 6.4488 7.55237C6.40298 7.68879 6.38636 7.83271 6.39997 7.97546C6.72328 10.993 7.77812 13.8959 9.47997 16.4515C11.0488 18.816 13.1377 20.8219 15.6 22.3284C18.263 23.9799 21.2893 25.0144 24.44 25.3501C24.6038 25.359 24.7678 25.3351 24.9216 25.28C25.0753 25.2249 25.2155 25.1398 25.3333 25.03C25.5456 24.821 25.6651 24.541 25.6666 24.249V21.1889C25.6726 20.9195 25.5755 20.6573 25.3937 20.452C25.2118 20.2467 24.9579 20.1125 24.68 20.075C23.5784 19.9328 22.4964 19.6752 21.4533 19.3068C21.2478 19.233 21.0247 19.2167 20.81 19.2597C20.5952 19.3028 20.3976 19.4035 20.24 19.55L18.9066 20.8304C18.7505 20.9766 18.5493 21.0705 18.3332 21.0982C18.117 21.1259 17.8972 21.0859 17.7066 20.9841C14.8615 19.4402 12.5066 17.1832 10.8933 14.4541C10.7829 14.2723 10.7387 14.0603 10.7676 13.8516C10.7966 13.643 10.8971 13.4495 11.0533 13.3018L12.3866 12.0214C12.5395 11.8729 12.6447 11.6853 12.6896 11.481C12.7346 11.2767 12.7173 11.0643 12.64 10.8691C12.2549 9.86783 11.9866 8.82865 11.84 7.7706C11.8069 7.49566 11.6684 7.24239 11.4515 7.06014C11.2346 6.87789 10.9548 6.7797 10.6666 6.78471Z" fill="#3F4E4F"/>
</svg>
