<svg width="30" height="31" viewBox="0 0 30 31" fill="none" xmlns="http://www.w3.org/2000/svg">
<path d="M15 4.16027C12.6794 4.16027 10.4538 5.06921 8.81282 6.68715C7.17187 8.30509 6.25 10.4995 6.25 12.7876C6.25 16.3149 8.4775 19.7178 10.9225 22.3541C12.1733 23.6964 13.5374 24.9316 15 26.0466C16.4626 24.9325 17.8266 23.698 19.0775 22.3566C21.5225 19.7178 23.75 16.3162 23.75 12.7876C23.75 10.4995 22.8281 8.30509 21.1872 6.68715C19.5462 5.06921 17.3206 4.16027 15 4.16027ZM15 29.0735L14.2912 28.5929L14.2875 28.5904L14.28 28.5843L14.255 28.567L14.1613 28.5017C13.6437 28.1307 13.1376 27.7444 12.6437 27.3431C11.378 26.3179 10.1863 25.2068 9.0775 24.0179C6.5225 21.2621 3.75 17.2701 3.75 12.7876C3.75 9.84574 4.93526 7.02438 7.04505 4.94417C9.15483 2.86396 12.0163 1.69531 15 1.69531C17.9837 1.69531 20.8452 2.86396 22.955 4.94417C25.0647 7.02438 26.25 9.84574 26.25 12.7876C26.25 17.2701 23.4775 21.2633 20.9225 24.0179C19.4748 25.5705 17.8866 26.9896 16.1775 28.2576C16.0351 28.3626 15.8913 28.4657 15.7463 28.567L15.72 28.5843L15.7125 28.5904L15.71 28.5916L15 29.0723V29.0735ZM15 10.3226C14.337 10.3226 13.7011 10.5823 13.2322 11.0446C12.7634 11.5069 12.5 12.1339 12.5 12.7876C12.5 13.4413 12.7634 14.0683 13.2322 14.5306C13.7011 14.9929 14.337 15.2526 15 15.2526C15.663 15.2526 16.2989 14.9929 16.7678 14.5306C17.2366 14.0683 17.5 13.4413 17.5 12.7876C17.5 12.1339 17.2366 11.5069 16.7678 11.0446C16.2989 10.5823 15.663 10.3226 15 10.3226ZM10 12.7876C10 11.4801 10.5268 10.2262 11.4645 9.30163C12.4021 8.37709 13.6739 7.8577 15 7.8577C16.3261 7.8577 17.5979 8.37709 18.5355 9.30163C19.4732 10.2262 20 11.4801 20 12.7876C20 14.0951 19.4732 15.349 18.5355 16.2736C17.5979 17.1981 16.3261 17.7175 15 17.7175C13.6739 17.7175 12.4021 17.1981 11.4645 16.2736C10.5268 15.349 10 14.0951 10 12.7876Z" fill="#3F4E4F"/>
</svg>
