<svg width="28" height="26" viewBox="0 0 28 26" fill="none" xmlns="http://www.w3.org/2000/svg">
<path d="M8.41301 0.484375H19.753C24.073 0.484375 27.583 3.77598 27.583 7.82718V18.4616C27.583 20.409 26.7581 22.2767 25.2897 23.6537C23.8212 25.0308 21.8297 25.8044 19.753 25.8044H8.41301C4.09301 25.8044 0.583008 22.5128 0.583008 18.4616V7.82718C0.583008 5.87975 1.40795 4.01207 2.87636 2.63503C4.34477 1.25799 6.33636 0.484375 8.41301 0.484375ZM8.14301 3.01638C6.85406 3.01638 5.6179 3.49655 4.70647 4.35127C3.79504 5.20598 3.28301 6.36523 3.28301 7.57398V18.7148C3.28301 21.2341 5.45651 23.2724 8.14301 23.2724H20.023C21.312 23.2724 22.5481 22.7922 23.4595 21.9375C24.371 21.0828 24.883 19.9235 24.883 18.7148V7.57398C24.883 5.05464 22.7095 3.01638 20.023 3.01638H8.14301ZM21.1705 4.91538C21.6181 4.91538 22.0473 5.0821 22.3638 5.37888C22.6802 5.67566 22.858 6.07817 22.858 6.49788C22.858 6.91758 22.6802 7.3201 22.3638 7.61687C22.0473 7.91365 21.6181 8.08038 21.1705 8.08038C20.723 8.08038 20.2937 7.91365 19.9773 7.61687C19.6608 7.3201 19.483 6.91758 19.483 6.49788C19.483 6.07817 19.6608 5.67566 19.9773 5.37888C20.2937 5.0821 20.723 4.91538 21.1705 4.91538ZM14.083 6.81438C15.8732 6.81438 17.5901 7.48129 18.856 8.66839C20.1218 9.8555 20.833 11.4656 20.833 13.1444C20.833 14.8232 20.1218 16.4333 18.856 17.6204C17.5901 18.8075 15.8732 19.4744 14.083 19.4744C12.2928 19.4744 10.5759 18.8075 9.31004 17.6204C8.04417 16.4333 7.33301 14.8232 7.33301 13.1444C7.33301 11.4656 8.04417 9.8555 9.31004 8.66839C10.5759 7.48129 12.2928 6.81438 14.083 6.81438ZM14.083 9.34638C13.0089 9.34638 11.9787 9.74652 11.2192 10.4588C10.4597 11.171 10.033 12.1371 10.033 13.1444C10.033 14.1517 10.4597 15.1177 11.2192 15.83C11.9787 16.5422 13.0089 16.9424 14.083 16.9424C15.1571 16.9424 16.1873 16.5422 16.9468 15.83C17.7063 15.1177 18.133 14.1517 18.133 13.1444C18.133 12.1371 17.7063 11.171 16.9468 10.4588C16.1873 9.74652 15.1571 9.34638 14.083 9.34638Z" fill="#3F4E4F"/>
</svg>
