<svg width="28" height="25" viewBox="0 0 28 25" fill="none" xmlns="http://www.w3.org/2000/svg">
<path d="M23.3207 1.79736H4.38129C2.89319 1.79736 1.67566 2.86926 1.67566 4.17936V20.8534C1.67566 22.1646 2.89319 23.2354 4.38129 23.2354H13.851V14.8984H11.1454V11.9506H13.851V9.50908C13.851 6.93176 15.4906 5.12144 18.9457 5.12144L21.3848 5.12382V8.22638H19.7655C18.4208 8.22638 17.9094 9.11486 17.9094 9.93904V11.9518H21.3835L20.6151 14.8984H17.9094V23.2354H23.3207C24.8088 23.2354 26.0263 22.1646 26.0263 20.8534V4.17936C26.0263 2.86926 24.8088 1.79736 23.3207 1.79736Z" fill="white"/>
</svg>
