<svg width="28" height="28" viewBox="0 0 28 28" fill="none" xmlns="http://www.w3.org/2000/svg">
<g clip-path="url(#clip0_582_996)">
<path d="M3.99433 2.20166C1.86244 2.20166 0.12915 3.72763 0.12915 5.60452V22.6188C0.12915 24.4957 1.86244 26.0217 3.99433 26.0217H23.3202C25.4521 26.0217 27.1854 24.4957 27.1854 22.6188V5.60452C27.1854 3.72763 25.4521 2.20166 23.3202 2.20166H3.99433ZM21.3454 11.0969C21.3454 15.7067 17.3594 21.0184 10.076 21.0184C7.82932 21.0184 5.74574 20.4442 3.99433 19.4552C4.31442 19.4871 4.62242 19.4977 4.94855 19.4977C6.80263 19.4977 8.50572 18.9448 9.86458 18.009C8.12525 17.9771 6.66372 16.9722 6.16246 15.5898C6.77243 15.6695 7.32201 15.6695 7.9501 15.526C6.1383 15.2016 4.77945 13.798 4.77945 12.1018V12.0593C5.30487 12.3198 5.92088 12.4794 6.56709 12.5006C6.02355 12.1816 5.57664 11.7509 5.26863 11.2458C4.96063 10.7407 4.79757 10.1718 4.80361 9.59756C4.80361 8.94889 4.99686 8.35339 5.34111 7.83764C7.29182 9.95379 10.2209 11.3362 13.5063 11.4851C12.9446 9.11903 14.9557 7.19961 17.3715 7.19961C18.5129 7.19961 19.5396 7.61965 20.2643 8.30022C21.1582 8.15134 22.0157 7.85891 22.7767 7.46014C22.4808 8.26832 21.8587 8.94889 21.0374 9.37956C21.8346 9.30512 22.6076 9.1084 23.3202 8.83723C22.7827 9.53375 22.1063 10.1505 21.3333 10.645C21.3454 10.7939 21.3454 10.9481 21.3454 11.0969Z" fill="white"/>
</g>
<defs>
<clipPath id="clip0_582_996">
<rect width="27.0563" height="27.2229" fill="white" transform="translate(0.12915 0.5)"/>
</clipPath>
</defs>
</svg>
