<svg width="31" height="29" viewBox="0 0 31 29" fill="none" xmlns="http://www.w3.org/2000/svg">
<g clip-path="url(#clip0_582_1008)">
<path fill-rule="evenodd" clip-rule="evenodd" d="M4.05988 6.45401H26.6068C26.8559 6.45401 27.0949 6.54562 27.271 6.7087C27.4472 6.87179 27.5462 7.09297 27.5462 7.3236V8.31842L15.3333 14.7778L3.12042 8.31842V7.3236C3.12042 7.09297 3.2194 6.87179 3.39558 6.7087C3.57176 6.54562 3.81072 6.45401 4.05988 6.45401ZM3.12042 11.3237V21.2372C3.12042 21.4678 3.2194 21.689 3.39558 21.8521C3.57176 22.0151 3.81072 22.1068 4.05988 22.1068H26.6068C26.8559 22.1068 27.0949 22.0151 27.271 21.8521C27.4472 21.689 27.5462 21.4678 27.5462 21.2372V11.3237L16.0323 17.4109L15.3333 17.7831L14.6344 17.4109L3.12042 11.3237ZM0.302063 7.3236C0.302063 6.40108 0.697974 5.51634 1.4027 4.86401C2.10743 4.21169 3.06324 3.84521 4.05988 3.84521H26.6068C27.6034 3.84521 28.5592 4.21169 29.2639 4.86401C29.9687 5.51634 30.3646 6.40108 30.3646 7.3236V21.2372C30.3646 22.1597 29.9687 23.0444 29.2639 23.6967C28.5592 24.3491 27.6034 24.7155 26.6068 24.7155H4.05988C3.06324 24.7155 2.10743 24.3491 1.4027 23.6967C0.697974 23.0444 0.302063 22.1597 0.302063 21.2372V7.3236Z" fill="white"/>
</g>
<defs>
<clipPath id="clip0_582_1008">
<rect width="30.0625" height="27.8271" fill="white" transform="translate(0.302063 0.366699)"/>
</clipPath>
</defs>
</svg>
