<svg width="33" height="31" viewBox="0 0 33 31" fill="none" xmlns="http://www.w3.org/2000/svg">
<path d="M24.8844 26.6509H24.5771C21.1149 26.3023 17.7887 25.2096 14.8636 23.4601C12.1461 21.8581 9.83895 19.7266 8.10284 17.2145C6.20843 14.4998 5.02781 11.4119 4.65567 8.19849C4.61312 7.81522 4.65513 7.42794 4.77916 7.06014C4.90318 6.69235 5.10663 6.35171 5.37717 6.0589C5.6403 5.76216 5.96509 5.51732 6.33229 5.33887C6.6995 5.16042 7.10165 5.052 7.51495 5.02002H10.9888C11.7412 5.02072 12.4685 5.27042 13.0394 5.72403C13.6103 6.17764 13.9872 6.80525 14.102 7.49354C14.2288 8.37767 14.4665 9.24512 14.8101 10.0784C15.0191 10.602 15.0623 11.17 14.9345 11.7155C14.8066 12.2611 14.5132 12.7615 14.0886 13.1579L13.2736 13.9123C14.5568 15.7875 16.2781 17.3724 18.3107 18.5502L19.1257 17.8081C19.554 17.4151 20.0946 17.1435 20.684 17.0252C21.2734 16.9069 21.887 16.9468 22.4527 17.1403C23.3538 17.4554 24.2906 17.6753 25.2451 17.7957C26.0014 17.901 26.6902 18.2581 27.1822 18.8C27.6742 19.342 27.9356 20.0315 27.9174 20.7392V23.7075C27.9174 24.4794 27.587 25.22 26.9985 25.767C26.4101 26.314 25.6115 26.6229 24.7775 26.6262L24.8844 26.6509ZM10.9888 6.86279H7.79553C7.63874 6.87239 7.48567 6.91131 7.34559 6.97721C7.2055 7.0431 7.08131 7.13461 6.9805 7.24619C6.88239 7.35071 6.80815 7.47252 6.76222 7.6043C6.7163 7.73608 6.69965 7.87509 6.71328 8.01298C7.03727 10.9277 8.09431 13.7317 9.7997 16.2003C11.3718 18.4842 13.4651 20.4218 15.9324 21.8771C18.601 23.4723 21.6336 24.4715 24.7909 24.7958C24.9551 24.8044 25.1194 24.7813 25.2735 24.7281C25.4276 24.6749 25.568 24.5927 25.686 24.4866C25.8988 24.2847 26.0185 24.0142 26.0201 23.7322V20.7763C26.0261 20.5161 25.9288 20.2628 25.7465 20.0645C25.5643 19.8662 25.3099 19.7366 25.0314 19.7004C23.9275 19.563 22.8433 19.3141 21.798 18.9583C21.592 18.887 21.3685 18.8713 21.1533 18.9129C20.9381 18.9545 20.74 19.0517 20.5821 19.1933L19.246 20.43C19.0895 20.5713 18.888 20.662 18.6713 20.6887C18.4547 20.7155 18.2345 20.6768 18.0435 20.5785C15.1925 19.0872 12.8326 16.9071 11.216 14.271C11.1053 14.0953 11.061 13.8906 11.09 13.689C11.1191 13.4874 11.2198 13.3006 11.3763 13.1579L12.7124 11.9211C12.8656 11.7777 12.971 11.5965 13.0161 11.3991C13.0611 11.2018 13.0438 10.9966 12.9663 10.8081C12.5804 9.84089 12.3115 8.83711 12.1646 7.8151C12.1315 7.54952 11.9927 7.30488 11.7753 7.12884C11.558 6.95279 11.2776 6.85795 10.9888 6.86279Z" fill="white"/>
</svg>
