<svg width="28" height="25" viewBox="0 0 28 25" fill="none" xmlns="http://www.w3.org/2000/svg">
<path d="M8.65552 0.896973H20.0192C24.3482 0.896973 27.8655 3.99357 27.8655 7.80477V17.8092C27.8655 19.6412 27.0388 21.3983 25.5673 22.6937C24.0959 23.9892 22.1001 24.717 20.0192 24.717H8.65552C4.32652 24.717 0.809204 21.6204 0.809204 17.8092V7.80477C0.809204 5.97271 1.63587 4.21568 3.10734 2.92022C4.57881 1.62476 6.57455 0.896973 8.65552 0.896973ZM8.38496 3.27897C7.09332 3.27897 5.85459 3.7307 4.94126 4.53478C4.02793 5.33886 3.51483 6.42943 3.51483 7.56657V18.0474C3.51483 20.4175 5.69286 22.335 8.38496 22.335H20.2897C21.5814 22.335 22.8201 21.8832 23.7334 21.0792C24.6468 20.2751 25.1599 19.1845 25.1599 18.0474V7.56657C25.1599 5.19648 22.9818 3.27897 20.2897 3.27897H8.38496ZM21.4396 5.06547C21.8881 5.06547 22.3182 5.22232 22.6353 5.50152C22.9525 5.78071 23.1306 6.15938 23.1306 6.55422C23.1306 6.94906 22.9525 7.32773 22.6353 7.60693C22.3182 7.88612 21.8881 8.04297 21.4396 8.04297C20.9911 8.04297 20.561 7.88612 20.2439 7.60693C19.9268 7.32773 19.7486 6.94906 19.7486 6.55422C19.7486 6.15938 19.9268 5.78071 20.2439 5.50152C20.561 5.22232 20.9911 5.06547 21.4396 5.06547ZM14.3373 6.85197C16.1313 6.85197 17.8518 7.47937 19.1203 8.59615C20.3888 9.71293 21.1014 11.2276 21.1014 12.807C21.1014 14.3863 20.3888 15.901 19.1203 17.0178C17.8518 18.1346 16.1313 18.762 14.3373 18.762C12.5434 18.762 10.8229 18.1346 9.55442 17.0178C8.28591 15.901 7.57327 14.3863 7.57327 12.807C7.57327 11.2276 8.28591 9.71293 9.55442 8.59615C10.8229 7.47937 12.5434 6.85197 14.3373 6.85197ZM14.3373 9.23397C13.261 9.23397 12.2287 9.61041 11.4676 10.2805C10.7065 10.9505 10.2789 11.8594 10.2789 12.807C10.2789 13.7546 10.7065 14.6634 11.4676 15.3335C12.2287 16.0035 13.261 16.38 14.3373 16.38C15.4137 16.38 16.446 16.0035 17.2071 15.3335C17.9682 14.6634 18.3958 13.7546 18.3958 12.807C18.3958 11.8594 17.9682 10.9505 17.2071 10.2805C16.446 9.61041 15.4137 9.23397 14.3373 9.23397Z" fill="white"/>
</svg>
