<svg width="27" height="26" viewBox="0 0 27 26" fill="none" xmlns="http://www.w3.org/2000/svg">
<path d="M22.9842 1.55493H4.39915C2.93889 1.55493 1.74414 2.71053 1.74414 4.12293V22.0989C1.74414 23.5126 2.93889 24.6669 4.39915 24.6669H13.6917V15.6789H11.0367V12.501H13.6917V9.86883C13.6917 7.09025 15.3006 5.13857 18.691 5.13857L21.0845 5.14114V8.48596H19.4955C18.176 8.48596 17.6742 9.44383 17.6742 10.3324V12.5023H21.0832L20.3292 15.6789H17.6742V24.6669H22.9842C24.4444 24.6669 25.6392 23.5126 25.6392 22.0989V4.12293C25.6392 2.71053 24.4444 1.55493 22.9842 1.55493Z" fill="#3F4E4F"/>
</svg>
