<svg width="28" height="27" viewBox="0 0 28 27" fill="none" xmlns="http://www.w3.org/2000/svg">
<path d="M8.47292 0.505859H19.6239C23.8719 0.505859 27.3234 3.84426 27.3234 7.95306V18.7387C27.3234 20.7138 26.5122 22.608 25.0682 24.0046C23.6243 25.4012 21.6659 26.1859 19.6239 26.1859H8.47292C4.22493 26.1859 0.773438 22.8475 0.773438 18.7387V7.95306C0.773438 5.97794 1.58463 4.08371 3.02856 2.68709C4.47249 1.29047 6.43089 0.505859 8.47292 0.505859ZM8.20742 3.07386C6.93995 3.07386 5.7244 3.56086 4.82816 4.42773C3.93193 5.2946 3.42843 6.47032 3.42843 7.69626V18.9955C3.42843 21.5506 5.5657 23.6179 8.20742 23.6179H19.8894C21.1568 23.6179 22.3724 23.1309 23.2686 22.264C24.1649 21.3971 24.6684 20.2214 24.6684 18.9955V7.69626C24.6684 5.1411 22.5311 3.07386 19.8894 3.07386H8.20742ZM21.0178 4.99986C21.4578 4.99986 21.8799 5.16896 22.1911 5.46995C22.5023 5.77095 22.6771 6.17919 22.6771 6.60486C22.6771 7.03053 22.5023 7.43877 22.1911 7.73976C21.8799 8.04076 21.4578 8.20986 21.0178 8.20986C20.5777 8.20986 20.1556 8.04076 19.8444 7.73976C19.5332 7.43877 19.3584 7.03053 19.3584 6.60486C19.3584 6.17919 19.5332 5.77095 19.8444 5.46995C20.1556 5.16896 20.5777 4.99986 21.0178 4.99986ZM14.0484 6.92586C15.8088 6.92586 17.497 7.60225 18.7418 8.80623C19.9866 10.0102 20.6859 11.6432 20.6859 13.3459C20.6859 15.0485 19.9866 16.6815 18.7418 17.8855C17.497 19.0895 15.8088 19.7659 14.0484 19.7659C12.288 19.7659 10.5998 19.0895 9.35499 17.8855C8.11022 16.6815 7.41092 15.0485 7.41092 13.3459C7.41092 11.6432 8.11022 10.0102 9.35499 8.80623C10.5998 7.60225 12.288 6.92586 14.0484 6.92586ZM14.0484 9.49386C12.9922 9.49386 11.9792 9.89969 11.2324 10.6221C10.4855 11.3445 10.0659 12.3242 10.0659 13.3459C10.0659 14.3675 10.4855 15.3472 11.2324 16.0696C11.9792 16.792 12.9922 17.1979 14.0484 17.1979C15.1046 17.1979 16.1176 16.792 16.8644 16.0696C17.6113 15.3472 18.0309 14.3675 18.0309 13.3459C18.0309 12.3242 17.6113 11.3445 16.8644 10.6221C16.1176 9.89969 15.1046 9.49386 14.0484 9.49386Z" fill="#3F4E4F"/>
</svg>
