<svg width="29" height="25" viewBox="0 0 29 25" fill="none" xmlns="http://www.w3.org/2000/svg">
<g clip-path="url(#clip0_582_332)">
<path d="M4.62758 2.0127C2.43216 2.0127 0.647217 3.36954 0.647217 5.03841V20.167C0.647217 21.8359 2.43216 23.1927 4.62758 23.1927H24.5294C26.7248 23.1927 28.5098 21.8359 28.5098 20.167V5.03841C28.5098 3.36954 26.7248 2.0127 24.5294 2.0127H4.62758ZM22.4957 9.9221C22.4957 14.021 18.3909 18.744 10.8904 18.744C8.57685 18.744 6.43118 18.2334 4.62758 17.354C4.9572 17.3824 5.27439 17.3918 5.61023 17.3918C7.51956 17.3918 9.27341 16.9002 10.6728 16.0681C8.88159 16.0397 7.37652 15.1462 6.86032 13.917C7.48847 13.9879 8.05443 13.9879 8.70123 13.8603C6.83544 13.5719 5.43609 12.3238 5.43609 10.8156V10.7778C5.97717 11.0095 6.61154 11.1513 7.27701 11.1702C6.71727 10.8865 6.25704 10.5036 5.93986 10.0545C5.62267 9.60535 5.45475 9.09949 5.46097 8.5889C5.46097 8.01212 5.65999 7.48262 6.01449 7.02404C8.02333 8.90565 11.0397 10.1348 14.423 10.2672C13.8446 8.16341 15.9156 6.45671 18.4034 6.45671C19.5788 6.45671 20.6361 6.8302 21.3824 7.43534C22.3029 7.30297 23.186 7.04295 23.9697 6.68837C23.6649 7.40698 23.0243 8.01212 22.1785 8.39506C22.9994 8.32888 23.7955 8.15395 24.5294 7.91284C23.9759 8.53217 23.2793 9.08058 22.4832 9.52025C22.4957 9.65263 22.4957 9.78973 22.4957 9.9221Z" fill="white"/>
</g>
<defs>
<clipPath id="clip0_582_332">
<rect width="27.8625" height="24.2057" fill="white" transform="translate(0.647217 0.5)"/>
</clipPath>
</defs>
</svg>
