<svg width="27" height="25" viewBox="0 0 27 25" fill="none" xmlns="http://www.w3.org/2000/svg">
<path d="M22.95 1.42212H4.04998C2.56498 1.42212 1.34998 2.53452 1.34998 3.89412V21.1981C1.34998 22.559 2.56498 23.6701 4.04998 23.6701H13.5V15.0181H10.8V11.959H13.5V9.42522C13.5 6.75052 15.1362 4.8718 18.5841 4.8718L21.0181 4.87427V8.09405H19.4022C18.0603 8.09405 17.55 9.0161 17.55 9.87142V11.9603H21.0168L20.25 15.0181H17.55V23.6701H22.95C24.435 23.6701 25.65 22.559 25.65 21.1981V3.89412C25.65 2.53452 24.435 1.42212 22.95 1.42212Z" fill="#3F4E4F"/>
</svg>
