<svg width="30" height="29" viewBox="0 0 30 29" fill="none" xmlns="http://www.w3.org/2000/svg">
<g clip-path="url(#clip0_538_1259)">
<path fill-rule="evenodd" clip-rule="evenodd" d="M3.75 6.3453H26.25C26.4986 6.3453 26.7371 6.44038 26.9129 6.60962C27.0887 6.77887 27.1875 7.00841 27.1875 7.24775V8.28016L15 14.9836L2.8125 8.28016V7.24775C2.8125 7.00841 2.91127 6.77887 3.08709 6.60962C3.2629 6.44038 3.50136 6.3453 3.75 6.3453ZM2.8125 11.399V21.687C2.8125 21.9264 2.91127 22.1559 3.08709 22.3251C3.2629 22.4944 3.50136 22.5895 3.75 22.5895H26.25C26.4986 22.5895 26.7371 22.4944 26.9129 22.3251C27.0887 22.1559 27.1875 21.9264 27.1875 21.687V11.399L15.6975 17.7162L15 18.1025L14.3025 17.7162L2.8125 11.399ZM0 7.24775C0 6.29037 0.395088 5.3722 1.09835 4.69523C1.80161 4.01826 2.75544 3.63794 3.75 3.63794H26.25C27.2446 3.63794 28.1984 4.01826 28.9016 4.69523C29.6049 5.3722 30 6.29037 30 7.24775V21.687C30 22.6444 29.6049 23.5626 28.9016 24.2395C28.1984 24.9165 27.2446 25.2968 26.25 25.2968H3.75C2.75544 25.2968 1.80161 24.9165 1.09835 24.2395C0.395088 23.5626 0 22.6444 0 21.687V7.24775Z" fill="#3F4E4F"/>
</g>
<defs>
<clipPath id="clip0_538_1259">
<rect width="30" height="28.8785" fill="white" transform="translate(0 0.0280762)"/>
</clipPath>
</defs>
</svg>
