<svg width="32" height="32" viewBox="0 0 32 32" fill="none" xmlns="http://www.w3.org/2000/svg">
<path d="M24.5333 27.5295H24.2266C20.7717 27.1677 17.4523 26.0337 14.5333 24.2181C11.8215 22.5555 9.51914 20.3436 7.78663 17.7365C5.89617 14.9192 4.71799 11.7147 4.34663 8.37987C4.30417 7.98211 4.34609 7.58019 4.46986 7.19851C4.59363 6.81682 4.79666 6.46331 5.06663 6.15943C5.32922 5.85148 5.65333 5.59739 6.01977 5.4122C6.38621 5.22701 6.78753 5.11449 7.19997 5.0813H10.6666C11.4174 5.08203 12.1433 5.34116 12.713 5.81191C13.2827 6.28266 13.6588 6.93399 13.7733 7.64828C13.8999 8.56581 14.137 9.46604 14.48 10.3308C14.6886 10.8742 14.7316 11.4636 14.6041 12.0298C14.4765 12.5959 14.1837 13.1152 13.76 13.5267L12.9466 14.3096C14.2272 16.2556 15.9449 17.9004 17.9733 19.1227L18.7866 18.3526C19.214 17.9447 19.7535 17.6628 20.3416 17.54C20.9298 17.4173 21.5421 17.4587 22.1066 17.6595C23.0059 17.9866 23.9408 18.2148 24.8933 18.3397C25.648 18.4489 26.3353 18.8195 26.8263 19.382C27.3173 19.9444 27.5782 20.66 27.56 21.3944V24.4748C27.56 25.276 27.2303 26.0445 26.643 26.6121C26.0558 27.1798 25.2589 27.5005 24.4266 27.5039L24.5333 27.5295ZM10.6666 6.9937H7.47997C7.3235 7.00366 7.17075 7.04405 7.03096 7.11244C6.89116 7.18082 6.76723 7.27578 6.66663 7.39158C6.56873 7.50005 6.49463 7.62647 6.4488 7.76322C6.40298 7.89998 6.38636 8.04425 6.39997 8.18734C6.72328 11.2122 7.77812 14.1222 9.47997 16.684C11.0488 19.0542 13.1377 21.0651 15.6 22.5753C18.263 24.2307 21.2893 25.2677 24.44 25.6043C24.6038 25.6132 24.7678 25.5893 24.9216 25.534C25.0753 25.4788 25.2155 25.3935 25.3333 25.2834C25.5456 25.0739 25.6651 24.7932 25.6666 24.5005V21.433C25.6726 21.1628 25.5755 20.9 25.3937 20.6942C25.2118 20.4884 24.9579 20.354 24.68 20.3163C23.5784 20.1737 22.4964 19.9155 21.4533 19.5462C21.2478 19.4723 21.0247 19.4559 20.81 19.4991C20.5952 19.5422 20.3976 19.6431 20.24 19.7901L18.9066 21.0736C18.7505 21.2201 18.5493 21.3143 18.3332 21.342C18.117 21.3698 17.8972 21.3297 17.7066 21.2276C14.8615 19.68 12.5066 17.4175 10.8933 14.6818C10.7829 14.4995 10.7387 14.287 10.7676 14.0778C10.7966 13.8687 10.8971 13.6747 11.0533 13.5267L12.3866 12.2432C12.5395 12.0943 12.6447 11.9063 12.6896 11.7014C12.7346 11.4966 12.7173 11.2837 12.64 11.088C12.2549 10.0843 11.9866 9.04261 11.84 7.98198C11.8069 7.70638 11.6684 7.45249 11.4515 7.2698C11.2346 7.0871 10.9548 6.98868 10.6666 6.9937Z" fill="#3F4E4F"/>
</svg>
