<svg width="27" height="23" viewBox="0 0 27 23" fill="none" xmlns="http://www.w3.org/2000/svg">
<g clip-path="url(#clip0_508_1867)">
<path d="M3.85714 1.4314C1.72969 1.4314 0 2.71521 0 4.29425V18.6085C0 20.1876 1.72969 21.4714 3.85714 21.4714H23.1429C25.2703 21.4714 27 20.1876 27 18.6085V4.29425C27 2.71521 25.2703 1.4314 23.1429 1.4314H3.85714ZM21.1721 8.91508C21.1721 12.7934 17.1944 17.2621 9.92612 17.2621C7.68415 17.2621 5.60491 16.779 3.85714 15.947C4.17656 15.9738 4.48393 15.9828 4.80938 15.9828C6.6596 15.9828 8.35915 15.5175 9.71518 14.7303C7.97946 14.7034 6.52098 13.858 6.02076 12.6949C6.62946 12.762 7.1779 12.762 7.80469 12.6413C5.99665 12.3684 4.64063 11.1875 4.64063 9.76052V9.72474C5.16496 9.94392 5.77969 10.0781 6.42455 10.096C5.88214 9.82762 5.43616 9.46529 5.12879 9.04033C4.82143 8.61538 4.65871 8.13674 4.66473 7.65364C4.66473 7.10791 4.85759 6.60691 5.20112 6.173C7.14777 7.95334 10.0708 9.11638 13.3493 9.24163C12.7888 7.25105 14.7958 5.63622 17.2065 5.63622C18.3455 5.63622 19.3701 5.9896 20.0933 6.56217C20.9853 6.43692 21.8411 6.1909 22.6004 5.85541C22.3051 6.53533 21.6844 7.10791 20.8647 7.47024C21.6603 7.40761 22.4317 7.2421 23.1429 7.01397C22.6065 7.59996 21.9315 8.11885 21.16 8.53486C21.1721 8.66011 21.1721 8.78983 21.1721 8.91508Z" fill="#3F4E4F"/>
</g>
<defs>
<clipPath id="clip0_508_1867">
<rect width="27" height="22.9029" fill="white"/>
</clipPath>
</defs>
</svg>
