<svg width="45" height="43" viewBox="0 0 45 43" fill="none" xmlns="http://www.w3.org/2000/svg">
<path d="M22.0245 2.31763C22.1741 1.85697 22.8259 1.85697 22.9755 2.31763L26.7985 14.0836C27.2671 15.5257 28.6109 16.502 30.1272 16.502H42.4987C42.983 16.502 43.1844 17.1218 42.7926 17.4065L32.7839 24.6783C31.5571 25.5696 31.0438 27.1493 31.5124 28.5914L35.3354 40.3574C35.4851 40.8181 34.9578 41.2011 34.566 40.9164L24.5572 33.6446C23.3305 32.7534 21.6695 32.7534 20.4428 33.6446L10.434 40.9164C10.0422 41.2011 9.51493 40.818 9.6646 40.3574L13.4876 28.5914C13.9562 27.1493 13.4429 25.5696 12.2161 24.6783L2.20742 17.4065C1.81556 17.1218 2.01695 16.502 2.50131 16.502H14.8728C16.3891 16.502 17.7329 15.5257 18.2015 14.0836L22.0245 2.31763Z" fill="white" stroke="#D27C2C" stroke-width="3"/>
</svg>
