<svg width="19" height="20" viewBox="0 0 19 20" fill="none" xmlns="http://www.w3.org/2000/svg">
<path d="M16.4333 7.25H11.7381V2.41667C11.7381 1.77573 11.4908 1.16104 11.0505 0.707825C10.6102 0.254612 10.0131 0 9.39048 0C8.76785 0 8.17072 0.254612 7.73046 0.707825C7.29019 1.16104 7.04286 1.77573 7.04286 2.41667L7.1262 7.25H2.34762C1.72499 7.25 1.12787 7.50461 0.687602 7.95783C0.247338 8.41104 0 9.02573 0 9.66667C0 10.3076 0.247338 10.9223 0.687602 11.3755C1.12787 11.8287 1.72499 12.0833 2.34762 12.0833L7.1262 11.9975L7.04286 16.9167C7.04286 17.5576 7.29019 18.1723 7.73046 18.6255C8.17072 19.0787 8.76785 19.3333 9.39048 19.3333C10.0131 19.3333 10.6102 19.0787 11.0505 18.6255C11.4908 18.1723 11.7381 17.5576 11.7381 16.9167V11.9975L16.4333 12.0833C17.056 12.0833 17.6531 11.8287 18.0933 11.3755C18.5336 10.9223 18.781 10.3076 18.781 9.66667C18.781 9.02573 18.5336 8.41104 18.0933 7.95783C17.6531 7.50461 17.056 7.25 16.4333 7.25Z" fill="white"/>
</svg>
