<svg width="30" height="28" viewBox="0 0 30 28" fill="none" xmlns="http://www.w3.org/2000/svg">
<g clip-path="url(#clip0_538_1538)">
<path fill-rule="evenodd" clip-rule="evenodd" d="M3.75 6.60556H26.25C26.4986 6.60556 26.7371 6.69233 26.9129 6.84679C27.0887 7.00124 27.1875 7.21073 27.1875 7.42916V8.37135L15 14.489L2.8125 8.37135V7.42916C2.8125 7.21073 2.91127 7.00124 3.08709 6.84679C3.2629 6.69233 3.50136 6.60556 3.75 6.60556ZM2.8125 11.2177V20.6067C2.8125 20.8252 2.91127 21.0346 3.08709 21.1891C3.2629 21.3436 3.50136 21.4303 3.75 21.4303H26.25C26.4986 21.4303 26.7371 21.3436 26.9129 21.1891C27.0887 21.0346 27.1875 20.8252 27.1875 20.6067V11.2177L15.6975 16.9829L15 17.3354L14.3025 16.9829L2.8125 11.2177ZM0 7.42916C0 6.55543 0.395088 5.71749 1.09835 5.09967C1.80161 4.48185 2.75544 4.13477 3.75 4.13477H26.25C27.2446 4.13477 28.1984 4.48185 28.9016 5.09967C29.6049 5.71749 30 6.55543 30 7.42916V20.6067C30 21.4805 29.6049 22.3184 28.9016 22.9362C28.1984 23.554 27.2446 23.9011 26.25 23.9011H3.75C2.75544 23.9011 1.80161 23.554 1.09835 22.9362C0.395088 22.3184 0 21.4805 0 20.6067V7.42916Z" fill="#3F4E4F"/>
</g>
<defs>
<clipPath id="clip0_538_1538">
<rect width="30" height="26.3551" fill="white" transform="translate(0 0.84082)"/>
</clipPath>
</defs>
</svg>
