<svg width="32" height="30" viewBox="0 0 32 30" fill="none" xmlns="http://www.w3.org/2000/svg">
<path d="M24.5333 25.2211H24.2266C20.7717 24.8909 17.4523 23.856 14.5333 22.199C11.8215 20.6817 9.51914 18.6631 7.78663 16.2838C5.89617 13.7127 4.71799 10.7881 4.34663 7.74472C4.30417 7.38172 4.34609 7.01492 4.46986 6.66658C4.59363 6.31824 4.79666 5.99563 5.06663 5.7183C5.32922 5.43726 5.65333 5.20537 6.01977 5.03636C6.38621 4.86735 6.78753 4.76466 7.19997 4.73438H10.6666C11.4174 4.73504 12.1433 4.97153 12.713 5.40115C13.2827 5.83076 13.6588 6.42518 13.7733 7.07705C13.8999 7.91442 14.137 8.73598 14.48 9.52515C14.6886 10.0211 14.7316 10.559 14.6041 11.0757C14.4765 11.5924 14.1837 12.0663 13.76 12.4418L12.9466 13.1563C14.2272 14.9323 15.9449 16.4333 17.9733 17.5488L18.7866 16.846C19.214 16.4738 19.7535 16.2165 20.3416 16.1045C20.9298 15.9924 21.5421 16.0303 22.1066 16.2135C23.0059 16.512 23.9408 16.7203 24.8933 16.8343C25.648 16.934 26.3353 17.2722 26.8263 17.7855C27.3173 18.2988 27.5782 18.9518 27.56 19.6221V22.4333C27.56 23.1644 27.2303 23.8658 26.643 24.3839C26.0558 24.902 25.2589 25.1946 24.4266 25.1977L24.5333 25.2211ZM10.6666 6.47967H7.47997C7.3235 6.48876 7.17075 6.52562 7.03096 6.58803C6.89116 6.65045 6.76723 6.73711 6.66663 6.84279C6.56873 6.94178 6.49463 7.05715 6.4488 7.18196C6.40298 7.30676 6.38636 7.43842 6.39997 7.56902C6.72328 10.3296 7.77812 12.9853 9.47997 15.3233C11.0488 17.4864 13.1377 19.3215 15.6 20.6997C18.263 22.2106 21.2893 23.1569 24.44 23.4641C24.6038 23.4722 24.7678 23.4504 24.9216 23.4C25.0753 23.3496 25.2155 23.2717 25.3333 23.1713C25.5456 22.98 25.6651 22.7239 25.6666 22.4567V19.6572C25.6726 19.4107 25.5755 19.1709 25.3937 18.983C25.2118 18.7952 24.9579 18.6725 24.68 18.6382C23.5784 18.5081 22.4964 18.2724 21.4533 17.9354C21.2478 17.8679 21.0247 17.853 20.81 17.8923C20.5952 17.9317 20.3976 18.0238 20.24 18.1579L18.9066 19.3293C18.7505 19.463 18.5493 19.549 18.3332 19.5743C18.117 19.5996 17.8972 19.563 17.7066 19.4698C14.8615 18.0574 12.5066 15.9927 10.8933 13.496C10.7829 13.3296 10.7387 13.1357 10.7676 12.9448C10.7966 12.7539 10.8971 12.5769 11.0533 12.4418L12.3866 11.2705C12.5395 11.1346 12.6447 10.963 12.6896 10.7761C12.7346 10.5891 12.7173 10.3948 12.64 10.2162C12.2549 9.30024 11.9866 8.34955 11.84 7.3816C11.8069 7.13008 11.6684 6.89838 11.4515 6.73164C11.2346 6.56491 10.9548 6.47509 10.6666 6.47967Z" fill="#3F4E4F"/>
</svg>
