<svg width="48" height="51" viewBox="0 0 48 51" fill="none" xmlns="http://www.w3.org/2000/svg">
<path d="M5.9028 25.5H23.6111V28.6875H5.9028V25.5ZM2.95142 17.5312H17.7084V20.7188H2.95142V17.5312Z" fill="#D27C2C"/>
<path d="M44.1514 26.4658L39.7243 15.3096C39.6107 15.0228 39.4216 14.7784 39.1805 14.6067C38.9394 14.435 38.6569 14.3436 38.3681 14.3437H33.9411V11.1562C33.9411 10.7336 33.7856 10.3282 33.5088 10.0293C33.2321 9.73041 32.8567 9.5625 32.4654 9.5625H8.85425V12.75H30.9897V32.7611C30.3172 33.1828 29.7288 33.7441 29.2582 34.4126C28.7876 35.0812 28.4442 35.8437 28.2478 36.6562H18.9746C18.6154 35.1539 17.7612 33.8446 16.5721 32.9737C15.383 32.1029 13.9407 31.7303 12.5154 31.9258C11.0902 32.1213 9.7799 32.8715 8.83016 34.0358C7.88042 35.2 7.35645 36.6984 7.35645 38.25C7.35645 39.8016 7.88042 41.3 8.83016 42.4642C9.7799 43.6285 11.0902 44.3787 12.5154 44.5742C13.9407 44.7697 15.383 44.3971 16.5721 43.5263C17.7612 42.6554 18.6154 41.3461 18.9746 39.8437H28.2478C28.5688 41.2116 29.303 42.4247 30.3341 43.2913C31.3653 44.1579 32.6345 44.6284 33.9411 44.6284C35.2476 44.6284 36.5168 44.1579 37.548 43.2913C38.5791 42.4247 39.3133 41.2116 39.6343 39.8437H42.7952C43.1866 39.8437 43.5619 39.6758 43.8387 39.377C44.1154 39.0781 44.2709 38.6727 44.2709 38.25V27.0937C44.271 26.8778 44.2303 26.6642 44.1514 26.4658ZM13.2813 41.4375C12.6976 41.4375 12.127 41.2506 11.6416 40.9003C11.1563 40.5501 10.778 40.0522 10.5546 39.4698C10.3312 38.8874 10.2728 38.2465 10.3867 37.6281C10.5005 37.0098 10.7816 36.4419 11.1944 35.9961C11.6071 35.5503 12.133 35.2467 12.7055 35.1237C13.2781 35.0008 13.8715 35.0639 14.4108 35.3051C14.9501 35.5464 15.411 35.9549 15.7353 36.4791C16.0596 37.0033 16.2327 37.6196 16.2327 38.25C16.2319 39.0951 15.9207 39.9054 15.3674 40.503C14.8141 41.1006 14.0639 41.4367 13.2813 41.4375ZM33.9411 17.5312H37.3942L40.5581 25.5H33.9411V17.5312ZM33.9411 41.4375C33.3573 41.4375 32.7867 41.2506 32.3013 40.9003C31.816 40.5501 31.4377 40.0522 31.2143 39.4698C30.9909 38.8874 30.9325 38.2465 31.0464 37.6281C31.1603 37.0098 31.4413 36.4419 31.8541 35.9961C32.2669 35.5503 32.7928 35.2467 33.3653 35.1237C33.9378 35.0008 34.5312 35.0639 35.0705 35.3051C35.6098 35.5464 36.0707 35.9549 36.395 36.4791C36.7193 37.0033 36.8924 37.6196 36.8924 38.25C36.8917 39.0951 36.5805 39.9054 36.0271 40.503C35.4738 41.1006 34.7236 41.4367 33.9411 41.4375ZM41.3195 36.6562H39.6343C39.3092 35.2911 38.5739 34.081 37.5436 33.2158C36.5133 32.3505 35.2462 31.8789 33.9411 31.875V28.6875H41.3195V36.6562Z" fill="#D27C2C"/>
</svg>
