<svg width="27" height="21" viewBox="0 0 27 21" fill="none" xmlns="http://www.w3.org/2000/svg">
<path d="M22.9501 1.77417H4.0501C2.5651 1.77417 1.3501 2.67597 1.3501 3.77817V17.8062C1.3501 18.9094 2.5651 19.8102 4.0501 19.8102H13.5001V12.7962H10.8001V10.3162H13.5001V8.26212C13.5001 6.09379 15.1363 4.57075 18.5842 4.57075L21.0182 4.57276V7.18297H19.4023C18.0604 7.18297 17.5501 7.93046 17.5501 8.62384V10.3172H21.0169L20.2501 12.7962H17.5501V19.8102H22.9501C24.4351 19.8102 25.6501 18.9094 25.6501 17.8062V3.77817C25.6501 2.67597 24.4351 1.77417 22.9501 1.77417Z" fill="#3F4E4F"/>
</svg>
