<svg width="30" height="25" viewBox="0 0 30 25" fill="none" xmlns="http://www.w3.org/2000/svg">
<g clip-path="url(#clip0_508_1879)">
<path fill-rule="evenodd" clip-rule="evenodd" d="M3.75 5.91087H26.25C26.4986 5.91087 26.7371 5.98795 26.9129 6.12515C27.0887 6.26235 27.1875 6.44843 27.1875 6.64247V7.47942L15 12.9137L2.8125 7.47942V6.64247C2.8125 6.44843 2.91127 6.26235 3.08709 6.12515C3.2629 5.98795 3.50136 5.91087 3.75 5.91087ZM2.8125 10.0078V18.3481C2.8125 18.5421 2.91127 18.7282 3.08709 18.8654C3.2629 19.0026 3.50136 19.0797 3.75 19.0797H26.25C26.4986 19.0797 26.7371 19.0026 26.9129 18.8654C27.0887 18.7282 27.1875 18.5421 27.1875 18.3481V10.0078L15.6975 15.129L15 15.4422L14.3025 15.129L2.8125 10.0078ZM0 6.64247C0 5.86634 0.395088 5.12199 1.09835 4.57319C1.80161 4.02438 2.75544 3.71606 3.75 3.71606H26.25C27.2446 3.71606 28.1984 4.02438 28.9016 4.57319C29.6049 5.12199 30 5.86634 30 6.64247V18.3481C30 19.1242 29.6049 19.8685 28.9016 20.4174C28.1984 20.9662 27.2446 21.2745 26.25 21.2745H3.75C2.75544 21.2745 1.80161 20.9662 1.09835 20.4174C0.395088 19.8685 0 19.1242 0 18.3481V6.64247Z" fill="#3F4E4F"/>
</g>
<defs>
<clipPath id="clip0_508_1879">
<rect width="30" height="23.4112" fill="white" transform="translate(0 0.789673)"/>
</clipPath>
</defs>
</svg>
