<svg width="27" height="21" viewBox="0 0 27 21" fill="none" xmlns="http://www.w3.org/2000/svg">
<path d="M22.95 1.77441H4.04998C2.56498 1.77441 1.34998 2.67621 1.34998 3.77841V17.8064C1.34998 18.9096 2.56498 19.8104 4.04998 19.8104H13.5V12.7964H10.8V10.3165H13.5V8.26236C13.5 6.09404 15.1362 4.571 18.5841 4.571L21.0181 4.573V7.18321H19.4022C18.0603 7.18321 17.55 7.9307 17.55 8.62409V10.3175H21.0168L20.25 12.7964H17.55V19.8104H22.95C24.435 19.8104 25.65 18.9096 25.65 17.8064V3.77841C25.65 2.67621 24.435 1.77441 22.95 1.77441Z" fill="#3F4E4F"/>
</svg>
