<svg width="30" height="25" viewBox="0 0 30 25" fill="none" xmlns="http://www.w3.org/2000/svg">
<g clip-path="url(#clip0_582_641)">
<path fill-rule="evenodd" clip-rule="evenodd" d="M3.75 5.9116H26.25C26.4986 5.9116 26.7371 5.98868 26.9129 6.12588C27.0887 6.26308 27.1875 6.44917 27.1875 6.6432V7.48015L15 12.9145L2.8125 7.48015V6.6432C2.8125 6.44917 2.91127 6.26308 3.08709 6.12588C3.2629 5.98868 3.50136 5.9116 3.75 5.9116ZM2.8125 10.0086V18.3488C2.8125 18.5428 2.91127 18.7289 3.08709 18.8661C3.2629 19.0033 3.50136 19.0804 3.75 19.0804H26.25C26.4986 19.0804 26.7371 19.0033 26.9129 18.8661C27.0887 18.7289 27.1875 18.5428 27.1875 18.3488V10.0086L15.6975 15.1298L15 15.4429L14.3025 15.1298L2.8125 10.0086ZM0 6.6432C0 5.86707 0.395088 5.12273 1.09835 4.57392C1.80161 4.02511 2.75544 3.7168 3.75 3.7168H26.25C27.2446 3.7168 28.1984 4.02511 28.9016 4.57392C29.6049 5.12273 30 5.86707 30 6.6432V18.3488C30 19.1249 29.6049 19.8693 28.9016 20.4181C28.1984 20.9669 27.2446 21.2752 26.25 21.2752H3.75C2.75544 21.2752 1.80161 20.9669 1.09835 20.4181C0.395088 19.8693 0 19.1249 0 18.3488V6.6432Z" fill="#3F4E4F"/>
</g>
<defs>
<clipPath id="clip0_582_641">
<rect width="30" height="23.4112" fill="white" transform="translate(0 0.790039)"/>
</clipPath>
</defs>
</svg>
