<svg width="28" height="21" viewBox="0 0 28 21" fill="none" xmlns="http://www.w3.org/2000/svg">
<path d="M8.41301 0.175049H19.753C24.073 0.175049 27.583 2.78025 27.583 5.98665V14.4035C27.583 15.9448 26.7581 17.423 25.2897 18.5129C23.8212 19.6028 21.8297 20.215 19.753 20.215H8.41301C4.09301 20.215 0.583008 17.6099 0.583008 14.4035V5.98665C0.583008 4.44532 1.40795 2.96711 2.87636 1.87723C4.34477 0.787341 6.33636 0.175049 8.41301 0.175049ZM8.14301 2.17905C6.85406 2.17905 5.6179 2.55909 4.70647 3.23557C3.79504 3.91206 3.28301 4.82956 3.28301 5.78625V14.6038C3.28301 16.5978 5.45651 18.2111 8.14301 18.2111H20.023C21.312 18.2111 22.5481 17.831 23.4595 17.1545C24.371 16.478 24.883 15.5605 24.883 14.6038V5.78625C24.883 3.79227 22.7095 2.17905 20.023 2.17905H8.14301ZM21.1705 3.68205C21.6181 3.68205 22.0473 3.81401 22.3638 4.0489C22.6802 4.28379 22.858 4.60237 22.858 4.93455C22.858 5.26673 22.6802 5.58531 22.3638 5.8202C22.0473 6.05509 21.6181 6.18705 21.1705 6.18705C20.723 6.18705 20.2937 6.05509 19.9773 5.8202C19.6608 5.58531 19.483 5.26673 19.483 4.93455C19.483 4.60237 19.6608 4.28379 19.9773 4.0489C20.2937 3.81401 20.723 3.68205 21.1705 3.68205ZM14.083 5.18505C15.8732 5.18505 17.5901 5.71289 18.856 6.65244C20.1218 7.592 20.833 8.86631 20.833 10.195C20.833 11.5238 20.1218 12.7981 18.856 13.7377C17.5901 14.6772 15.8732 15.2051 14.083 15.2051C12.2928 15.2051 10.5759 14.6772 9.31004 13.7377C8.04417 12.7981 7.33301 11.5238 7.33301 10.195C7.33301 8.86631 8.04417 7.592 9.31004 6.65244C10.5759 5.71289 12.2928 5.18505 14.083 5.18505ZM14.083 7.18905C13.0089 7.18905 11.9787 7.50575 11.2192 8.06949C10.4597 8.63322 10.033 9.39781 10.033 10.195C10.033 10.9923 10.4597 11.7569 11.2192 12.3206C11.9787 12.8843 13.0089 13.201 14.083 13.201C15.1571 13.201 16.1873 12.8843 16.9468 12.3206C17.7063 11.7569 18.133 10.9923 18.133 10.195C18.133 9.39781 17.7063 8.63322 16.9468 8.06949C16.1873 7.50575 15.1571 7.18905 14.083 7.18905Z" fill="#3F4E4F"/>
</svg>
