<svg width="30" height="24" viewBox="0 0 30 24" fill="none" xmlns="http://www.w3.org/2000/svg">
<path d="M15 3.17457C12.6794 3.17457 10.4538 3.89397 8.81282 5.17452C7.17187 6.45507 6.25 8.19187 6.25 10.0028C6.25 12.7946 8.4775 15.4879 10.9225 17.5744C12.1733 18.6368 13.5374 19.6145 15 20.4969C16.4626 19.6151 17.8266 18.6381 19.0775 17.5764C21.5225 15.4879 23.75 12.7956 23.75 10.0028C23.75 8.19187 22.8281 6.45507 21.1872 5.17452C19.5462 3.89397 17.3206 3.17457 15 3.17457ZM15 22.8927L14.2912 22.5122L14.2875 22.5103L14.28 22.5054L14.255 22.4917L14.1613 22.44C13.6437 22.1464 13.1376 21.8406 12.6437 21.5231C11.378 20.7117 10.1863 19.8323 9.0775 18.8913C6.5225 16.7102 3.75 13.5506 3.75 10.0028C3.75 7.67445 4.93526 5.44142 7.04505 3.795C9.15483 2.14858 12.0163 1.22363 15 1.22363C17.9837 1.22363 20.8452 2.14858 22.955 3.795C25.0647 5.44142 26.25 7.67445 26.25 10.0028C26.25 13.5506 23.4775 16.7111 20.9225 18.8913C19.4748 20.1201 17.8866 21.2433 16.1775 22.2469C16.0351 22.3299 15.8913 22.4116 15.7463 22.4917L15.72 22.5054L15.7125 22.5103L15.71 22.5113L15 22.8917V22.8927ZM15 8.0519C14.337 8.0519 13.7011 8.25745 13.2322 8.62332C12.7634 8.98919 12.5 9.48542 12.5 10.0028C12.5 10.5203 12.7634 11.0165 13.2322 11.3824C13.7011 11.7482 14.337 11.9538 15 11.9538C15.663 11.9538 16.2989 11.7482 16.7678 11.3824C17.2366 11.0165 17.5 10.5203 17.5 10.0028C17.5 9.48542 17.2366 8.98919 16.7678 8.62332C16.2989 8.25745 15.663 8.0519 15 8.0519ZM10 10.0028C10 8.968 10.5268 7.97554 11.4645 7.2438C12.4021 6.51206 13.6739 6.10097 15 6.10097C16.3261 6.10097 17.5979 6.51206 18.5355 7.2438C19.4732 7.97554 20 8.968 20 10.0028C20 11.0377 19.4732 12.0301 18.5355 12.7619C17.5979 13.4936 16.3261 13.9047 15 13.9047C13.6739 13.9047 12.4021 13.4936 11.4645 12.7619C10.5268 12.0301 10 11.0377 10 10.0028Z" fill="#3F4E4F"/>
</svg>
