<svg width="27" height="29" viewBox="0 0 27 29" fill="none" xmlns="http://www.w3.org/2000/svg">
<g clip-path="url(#clip0_538_1299)">
<path d="M3.85714 1.76562C1.72969 1.76562 0 3.34925 0 5.29705V22.9542C0 24.902 1.72969 26.4856 3.85714 26.4856H23.1429C25.2703 26.4856 27 24.902 27 22.9542V5.29705C27 3.34925 25.2703 1.76562 23.1429 1.76562H3.85714ZM21.1721 10.997C21.1721 15.781 17.1944 21.2933 9.92612 21.2933C7.68415 21.2933 5.60491 20.6974 3.85714 19.6711C4.17656 19.7042 4.48393 19.7152 4.80938 19.7152C6.6596 19.7152 8.35915 19.1414 9.71518 18.1702C7.97946 18.1371 6.52098 17.0942 6.02076 15.6596C6.62946 15.7424 7.1779 15.7424 7.80469 15.5934C5.99665 15.2568 4.64063 13.8001 4.64063 12.0399V11.9957C5.16496 12.2661 5.77969 12.4316 6.42455 12.4537C5.88214 12.1226 5.43616 11.6757 5.12879 11.1515C4.82143 10.6273 4.65871 10.0369 4.66473 9.44097C4.66473 8.76779 4.85759 8.14979 5.20112 7.61455C7.14777 9.81066 10.0708 11.2453 13.3493 11.3998C12.7888 8.94436 14.7958 6.95241 17.2065 6.95241C18.3455 6.95241 19.3701 7.38832 20.0933 8.09461C20.9853 7.94011 21.8411 7.63663 22.6004 7.22279C22.3051 8.0615 21.6844 8.76779 20.8647 9.21473C21.6603 9.13748 22.4317 8.93332 23.1429 8.65191C22.6065 9.37475 21.9315 10.0148 21.16 10.528C21.1721 10.6825 21.1721 10.8425 21.1721 10.997Z" fill="#3F4E4F"/>
</g>
<defs>
<clipPath id="clip0_538_1299">
<rect width="27" height="28.2514" fill="white"/>
</clipPath>
</defs>
</svg>
