<svg width="30" height="30" viewBox="0 0 30 30" fill="none" xmlns="http://www.w3.org/2000/svg">
<path d="M15 3.84355C12.6794 3.84355 10.4538 4.73096 8.81282 6.31056C7.17187 7.89016 6.25 10.0326 6.25 12.2665C6.25 15.7102 8.4775 19.0324 10.9225 21.6062C12.1733 22.9167 13.5374 24.1227 15 25.2112C16.4626 24.1235 17.8266 22.9184 19.0775 21.6086C21.5225 19.0324 23.75 15.7114 23.75 12.2665C23.75 10.0326 22.8281 7.89016 21.1872 6.31056C19.5462 4.73096 17.3206 3.84355 15 3.84355ZM15 28.1665L14.2912 27.6972L14.2875 27.6948L14.28 27.6888L14.255 27.6719L14.1613 27.6082C13.6437 27.246 13.1376 26.8688 12.6437 26.4771C11.378 25.4761 10.1863 24.3914 9.0775 23.2307C6.5225 20.5401 3.75 16.6427 3.75 12.2665C3.75 9.39431 4.93526 6.6398 7.04505 4.60888C9.15483 2.57797 12.0163 1.43701 15 1.43701C17.9837 1.43701 20.8452 2.57797 22.955 4.60888C25.0647 6.6398 26.25 9.39431 26.25 12.2665C26.25 16.6427 23.4775 20.5413 20.9225 23.2307C19.4748 24.7464 17.8866 26.1319 16.1775 27.3699C16.0351 27.4723 15.8913 27.573 15.7463 27.6719L15.72 27.6888L15.7125 27.6948L15.71 27.696L15 28.1653V28.1665ZM15 9.85991C14.337 9.85991 13.7011 10.1135 13.2322 10.5648C12.7634 11.0161 12.5 11.6282 12.5 12.2665C12.5 12.9047 12.7634 13.5168 13.2322 13.9681C13.7011 14.4194 14.337 14.673 15 14.673C15.663 14.673 16.2989 14.4194 16.7678 13.9681C17.2366 13.5168 17.5 12.9047 17.5 12.2665C17.5 11.6282 17.2366 11.0161 16.7678 10.5648C16.2989 10.1135 15.663 9.85991 15 9.85991ZM10 12.2665C10 10.9899 10.5268 9.76572 11.4645 8.86309C12.4021 7.96046 13.6739 7.45337 15 7.45337C16.3261 7.45337 17.5979 7.96046 18.5355 8.86309C19.4732 9.76572 20 10.9899 20 12.2665C20 13.543 19.4732 14.7672 18.5355 15.6698C17.5979 16.5724 16.3261 17.0795 15 17.0795C13.6739 17.0795 12.4021 16.5724 11.4645 15.6698C10.5268 14.7672 10 13.543 10 12.2665Z" fill="#3F4E4F"/>
</svg>
