<svg width="28" height="26" viewBox="0 0 28 26" fill="none" xmlns="http://www.w3.org/2000/svg">
<path d="M8.41301 0.449463H19.753C24.073 0.449463 27.583 3.66306 27.583 7.61826V18.0007C27.583 19.9019 26.7581 21.7254 25.2897 23.0698C23.8212 24.4142 21.8297 25.1695 19.753 25.1695H8.41301C4.09301 25.1695 0.583008 21.9559 0.583008 18.0007V7.61826C0.583008 5.71698 1.40795 3.89357 2.87636 2.54916C4.34477 1.20475 6.33636 0.449463 8.41301 0.449463ZM8.14301 2.92146C6.85406 2.92146 5.6179 3.39026 4.70647 4.22472C3.79504 5.05918 3.28301 6.19096 3.28301 7.37106V18.2479C3.28301 20.7075 5.45651 22.6975 8.14301 22.6975H20.023C21.312 22.6975 22.5481 22.2287 23.4595 21.3942C24.371 20.5597 24.883 19.428 24.883 18.2479V7.37106C24.883 4.91142 22.7095 2.92146 20.023 2.92146H8.14301ZM21.1705 4.77546C21.6181 4.77546 22.0473 4.93824 22.3638 5.22798C22.6802 5.51773 22.858 5.9107 22.858 6.32046C22.858 6.73022 22.6802 7.1232 22.3638 7.41294C22.0473 7.70269 21.6181 7.86546 21.1705 7.86546C20.723 7.86546 20.2937 7.70269 19.9773 7.41294C19.6608 7.1232 19.483 6.73022 19.483 6.32046C19.483 5.9107 19.6608 5.51773 19.9773 5.22798C20.2937 4.93824 20.723 4.77546 21.1705 4.77546ZM14.083 6.62946C15.8732 6.62946 17.5901 7.28057 18.856 8.43954C20.1218 9.59852 20.833 11.1704 20.833 12.8095C20.833 14.4485 20.1218 16.0204 18.856 17.1794C17.5901 18.3384 15.8732 18.9895 14.083 18.9895C12.2928 18.9895 10.5759 18.3384 9.31004 17.1794C8.04417 16.0204 7.33301 14.4485 7.33301 12.8095C7.33301 11.1704 8.04417 9.59852 9.31004 8.43954C10.5759 7.28057 12.2928 6.62946 14.083 6.62946ZM14.083 9.10146C13.0089 9.10146 11.9787 9.49213 11.2192 10.1875C10.4597 10.8829 10.033 11.826 10.033 12.8095C10.033 13.7929 10.4597 14.736 11.2192 15.4314C11.9787 16.1268 13.0089 16.5175 14.083 16.5175C15.1571 16.5175 16.1873 16.1268 16.9468 15.4314C17.7063 14.736 18.133 13.7929 18.133 12.8095C18.133 11.826 17.7063 10.8829 16.9468 10.1875C16.1873 9.49213 15.1571 9.10146 14.083 9.10146Z" fill="#3F4E4F"/>
</svg>
