<svg width="31" height="29" viewBox="0 0 31 29" fill="none" xmlns="http://www.w3.org/2000/svg">
<path d="M15.3312 4.36873C13.0058 4.36873 10.7755 5.22383 9.13116 6.74592C7.4868 8.26801 6.56301 10.3324 6.56301 12.485C6.56301 15.8034 8.79515 19.0046 11.2452 21.4847C12.4987 22.7475 13.8656 23.9096 15.3312 24.9585C16.7968 23.9104 18.1637 22.7491 19.4172 21.487C21.8673 19.0046 24.0995 15.8045 24.0995 12.485C24.0995 10.3324 23.1757 8.26801 21.5313 6.74592C19.8869 5.22383 17.6567 4.36873 15.3312 4.36873ZM15.3312 27.8061L14.621 27.3539L14.6173 27.3516L14.6097 27.3458L14.5847 27.3296L14.4907 27.2681C13.9721 26.9191 13.465 26.5557 12.9701 26.1782C11.7017 25.2137 10.5075 24.1684 9.3964 23.05C6.83608 20.4574 4.0578 16.7019 4.0578 12.485C4.0578 9.71739 5.24553 7.06317 7.35971 5.10619C9.47389 3.14922 12.3413 2.0498 15.3312 2.0498C18.3211 2.0498 21.1886 3.14922 23.3028 5.10619C25.4169 7.06317 26.6047 9.71739 26.6047 12.485C26.6047 16.7019 23.8264 20.4586 21.2661 23.05C19.8154 24.5105 18.2238 25.8456 16.5112 27.0385C16.3685 27.1372 16.2244 27.2343 16.079 27.3296L16.0527 27.3458L16.0452 27.3516L16.0427 27.3528L15.3312 27.8049V27.8061ZM15.3312 10.166C14.6668 10.166 14.0296 10.4104 13.5598 10.8452C13.09 11.2801 12.826 11.87 12.826 12.485C12.826 13.1 13.09 13.6898 13.5598 14.1247C14.0296 14.5596 14.6668 14.8039 15.3312 14.8039C15.9957 14.8039 16.6329 14.5596 17.1027 14.1247C17.5725 13.6898 17.8364 13.1 17.8364 12.485C17.8364 11.87 17.5725 11.2801 17.1027 10.8452C16.6329 10.4104 15.9957 10.166 15.3312 10.166ZM10.3208 12.485C10.3208 11.2549 10.8487 10.0753 11.7883 9.20551C12.728 8.33575 14.0024 7.84712 15.3312 7.84712C16.6601 7.84712 17.9345 8.33575 18.8741 9.20551C19.8138 10.0753 20.3417 11.2549 20.3417 12.485C20.3417 13.715 19.8138 14.8947 18.8741 15.7644C17.9345 16.6342 16.6601 17.1228 15.3312 17.1228C14.0024 17.1228 12.728 16.6342 11.7883 15.7644C10.8487 14.8947 10.3208 13.715 10.3208 12.485Z" fill="white"/>
</svg>
