<svg width="30" height="27" viewBox="0 0 30 27" fill="none" xmlns="http://www.w3.org/2000/svg">
<path d="M15 3.30374C12.6794 3.30374 10.4538 4.11361 8.81282 5.55519C7.17187 6.99676 6.25 8.95196 6.25 10.9907C6.25 14.1335 8.4775 17.1654 10.9225 19.5143C12.1733 20.7103 13.5374 21.8109 15 22.8043C16.4626 21.8117 17.8266 20.7118 19.0775 19.5165C21.5225 17.1654 23.75 14.1346 23.75 10.9907C23.75 8.95196 22.8281 6.99676 21.1872 5.55519C19.5462 4.11361 17.3206 3.30374 15 3.30374ZM15 25.5014L14.2912 25.0731L14.2875 25.0709L14.28 25.0654L14.255 25.05L14.1613 24.9918C13.6437 24.6613 13.1376 24.317 12.6437 23.9596C11.378 23.0461 10.1863 22.0561 9.0775 20.9968C6.5225 18.5414 3.75 14.9846 3.75 10.9907C3.75 8.36948 4.93526 5.85565 7.04505 4.0022C9.15483 2.14874 12.0163 1.10748 15 1.10748C17.9837 1.10748 20.8452 2.14874 22.955 4.0022C25.0647 5.85565 26.25 8.36948 26.25 10.9907C26.25 14.9846 23.4775 18.5425 20.9225 20.9968C19.4748 22.3801 17.8866 23.6445 16.1775 24.7744C16.0351 24.8679 15.8913 24.9598 15.7463 25.05L15.72 25.0654L15.7125 25.0709L15.71 25.072L15 25.5003V25.5014ZM15 8.7944C14.337 8.7944 13.7011 9.02579 13.2322 9.43767C12.7634 9.84955 12.5 10.4082 12.5 10.9907C12.5 11.5731 12.7634 12.1318 13.2322 12.5436C13.7011 12.9555 14.337 13.1869 15 13.1869C15.663 13.1869 16.2989 12.9555 16.7678 12.5436C17.2366 12.1318 17.5 11.5731 17.5 10.9907C17.5 10.4082 17.2366 9.84955 16.7678 9.43767C16.2989 9.02579 15.663 8.7944 15 8.7944ZM10 10.9907C10 9.82569 10.5268 8.70843 11.4645 7.88468C12.4021 7.06092 13.6739 6.59814 15 6.59814C16.3261 6.59814 17.5979 7.06092 18.5355 7.88468C19.4732 8.70843 20 9.82569 20 10.9907C20 12.1556 19.4732 13.2729 18.5355 14.0966C17.5979 14.9204 16.3261 15.3832 15 15.3832C13.6739 15.3832 12.4021 14.9204 11.4645 14.0966C10.5268 13.2729 10 12.1556 10 10.9907Z" fill="#3F4E4F"/>
</svg>
