<svg width="28" height="23" viewBox="0 0 28 23" fill="none" xmlns="http://www.w3.org/2000/svg">
<path d="M8.41301 0.322876H19.753C24.073 0.322876 27.583 3.25568 27.583 6.86528V16.3405C27.583 18.0756 26.7581 19.7397 25.2897 20.9667C23.8212 22.1936 21.8297 22.8829 19.753 22.8829H8.41301C4.09301 22.8829 0.583008 19.9501 0.583008 16.3405V6.86528C0.583008 5.13013 1.40795 3.46604 2.87636 2.2391C4.34477 1.01216 6.33636 0.322876 8.41301 0.322876ZM8.14301 2.57888C6.85406 2.57888 5.6179 3.00671 4.70647 3.76826C3.79504 4.52981 3.28301 5.56269 3.28301 6.63968V16.5661C3.28301 18.8108 5.45651 20.6269 8.14301 20.6269H20.023C21.312 20.6269 22.5481 20.1991 23.4595 19.4375C24.371 18.676 24.883 17.6431 24.883 16.5661V6.63968C24.883 4.39496 22.7095 2.57888 20.023 2.57888H8.14301ZM21.1705 4.27088C21.6181 4.27088 22.0473 4.41943 22.3638 4.68386C22.6802 4.94828 22.858 5.30692 22.858 5.68088C22.858 6.05483 22.6802 6.41347 22.3638 6.6779C22.0473 6.94233 21.6181 7.09088 21.1705 7.09088C20.723 7.09088 20.2937 6.94233 19.9773 6.6779C19.6608 6.41347 19.483 6.05483 19.483 5.68088C19.483 5.30692 19.6608 4.94828 19.9773 4.68386C20.2937 4.41943 20.723 4.27088 21.1705 4.27088ZM14.083 5.96288C15.8732 5.96288 17.5901 6.55709 18.856 7.6148C20.1218 8.6725 20.833 10.1071 20.833 11.6029C20.833 13.0987 20.1218 14.5333 18.856 15.591C17.5901 16.6487 15.8732 17.2429 14.083 17.2429C12.2928 17.2429 10.5759 16.6487 9.31004 15.591C8.04417 14.5333 7.33301 13.0987 7.33301 11.6029C7.33301 10.1071 8.04417 8.6725 9.31004 7.6148C10.5759 6.55709 12.2928 5.96288 14.083 5.96288ZM14.083 8.21888C13.0089 8.21888 11.9787 8.57541 11.2192 9.21003C10.4597 9.84465 10.033 10.7054 10.033 11.6029C10.033 12.5004 10.4597 13.3611 11.2192 13.9957C11.9787 14.6304 13.0089 14.9869 14.083 14.9869C15.1571 14.9869 16.1873 14.6304 16.9468 13.9957C17.7063 13.3611 18.133 12.5004 18.133 11.6029C18.133 10.7054 17.7063 9.84465 16.9468 9.21003C16.1873 8.57541 15.1571 8.21888 14.083 8.21888Z" fill="#3F4E4F"/>
</svg>
