<svg width="30" height="28" viewBox="0 0 30 28" fill="none" xmlns="http://www.w3.org/2000/svg">
<g clip-path="url(#clip0_490_898)">
<path fill-rule="evenodd" clip-rule="evenodd" d="M3.75 6.60629H26.25C26.4986 6.60629 26.7371 6.69306 26.9129 6.84752C27.0887 7.00197 27.1875 7.21146 27.1875 7.42989V8.37209L15 14.4898L2.8125 8.37209V7.42989C2.8125 7.21146 2.91127 7.00197 3.08709 6.84752C3.2629 6.69306 3.50136 6.60629 3.75 6.60629ZM2.8125 11.2184V20.6075C2.8125 20.8259 2.91127 21.0354 3.08709 21.1898C3.2629 21.3443 3.50136 21.4311 3.75 21.4311H26.25C26.4986 21.4311 26.7371 21.3443 26.9129 21.1898C27.0887 21.0354 27.1875 20.8259 27.1875 20.6075V11.2184L15.6975 16.9836L15 17.3361L14.3025 16.9836L2.8125 11.2184ZM0 7.42989C0 6.55616 0.395088 5.71822 1.09835 5.1004C1.80161 4.48258 2.75544 4.1355 3.75 4.1355H26.25C27.2446 4.1355 28.1984 4.48258 28.9016 5.1004C29.6049 5.71822 30 6.55616 30 7.42989V20.6075C30 21.4812 29.6049 22.3191 28.9016 22.9369C28.1984 23.5548 27.2446 23.9019 26.25 23.9019H3.75C2.75544 23.9019 1.80161 23.5548 1.09835 22.9369C0.395088 22.3191 0 21.4812 0 20.6075V7.42989Z" fill="#3F4E4F"/>
</g>
<defs>
<clipPath id="clip0_490_898">
<rect width="30" height="26.3551" fill="white" transform="translate(0 0.841125)"/>
</clipPath>
</defs>
</svg>
