<svg width="31" height="30" viewBox="0 0 31 30" fill="none" xmlns="http://www.w3.org/2000/svg">
<path d="M15.3501 3.75C13.0681 3.75 10.8796 4.67187 9.26603 6.31282C7.65244 7.95376 6.74593 10.1794 6.74593 12.5C6.74593 16.0775 8.93631 19.5287 11.3406 22.2025C12.5706 23.5639 13.9119 24.8167 15.3501 25.9475C16.7883 24.8176 18.1296 23.5656 19.3596 22.205C21.7639 19.5287 23.9543 16.0787 23.9543 12.5C23.9543 10.1794 23.0478 7.95376 21.4342 6.31282C19.8206 4.67187 17.6321 3.75 15.3501 3.75ZM15.3501 29.0175L14.6532 28.53L14.6495 28.5275L14.6421 28.5212L14.6175 28.5037L14.5253 28.4375C14.0164 28.0613 13.5187 27.6694 13.0331 27.2625C11.7884 26.2227 10.6166 25.0958 9.52631 23.89C7.01389 21.095 4.2876 17.0463 4.2876 12.5C4.2876 9.51631 5.45311 6.65483 7.52773 4.54505C9.60235 2.43526 12.4161 1.25 15.3501 1.25C18.2841 1.25 21.0978 2.43526 23.1725 4.54505C25.2471 6.65483 26.4126 9.51631 26.4126 12.5C26.4126 17.0463 23.6863 21.0962 21.1739 23.89C19.7504 25.4646 18.1886 26.9039 16.508 28.19C16.3679 28.2964 16.2266 28.401 16.0839 28.5037L16.0581 28.5212L16.0507 28.5275L16.0483 28.5287L15.3501 29.0162V29.0175ZM15.3501 10C14.6981 10 14.0728 10.2634 13.6118 10.7322C13.1508 11.2011 12.8918 11.837 12.8918 12.5C12.8918 13.163 13.1508 13.7989 13.6118 14.2678C14.0728 14.7366 14.6981 15 15.3501 15C16.0021 15 16.6274 14.7366 17.0884 14.2678C17.5494 13.7989 17.8084 13.163 17.8084 12.5C17.8084 11.837 17.5494 11.2011 17.0884 10.7322C16.6274 10.2634 16.0021 10 15.3501 10ZM10.4334 12.5C10.4334 11.1739 10.9514 9.90215 11.8735 8.96447C12.7955 8.02678 14.0461 7.5 15.3501 7.5C16.6541 7.5 17.9047 8.02678 18.8267 8.96447C19.7488 9.90215 20.2668 11.1739 20.2668 12.5C20.2668 13.8261 19.7488 15.0979 18.8267 16.0355C17.9047 16.9732 16.6541 17.5 15.3501 17.5C14.0461 17.5 12.7955 16.9732 11.8735 16.0355C10.9514 15.0979 10.4334 13.8261 10.4334 12.5Z" fill="#3F4E4F"/>
</svg>
