<svg width="32" height="33" viewBox="0 0 32 33" fill="none" xmlns="http://www.w3.org/2000/svg">
<path d="M24.5333 28.1161H24.2266C20.7717 27.7455 17.4523 26.584 14.5333 24.7244C11.8215 23.0214 9.51914 20.7558 7.78663 18.0854C5.89617 15.1998 4.71799 11.9174 4.34663 8.50168C4.30417 8.09426 4.34609 7.68259 4.46986 7.29164C4.59363 6.90069 4.79666 6.5386 5.06663 6.22735C5.32922 5.91192 5.65333 5.65166 6.01977 5.46198C6.38621 5.27229 6.78753 5.15704 7.19997 5.12305H10.6666C11.4174 5.12379 12.1433 5.38922 12.713 5.87139C13.2827 6.35356 13.6588 7.0207 13.7733 7.75233C13.8999 8.69214 14.137 9.61421 14.48 10.4999C14.6886 11.0565 14.7316 11.6603 14.6041 12.2402C14.4765 12.8201 14.1837 13.352 13.76 13.7734L12.9466 14.5753C14.2272 16.5686 15.9449 18.2532 17.9733 19.5052L18.7866 18.7164C19.214 18.2987 19.7535 18.0099 20.3416 17.8842C20.9298 17.7584 21.5421 17.8009 22.1066 18.0065C23.0059 18.3415 23.9408 18.5753 24.8933 18.7033C25.648 18.8152 26.3353 19.1947 26.8263 19.7708C27.3173 20.3469 27.5782 21.0799 27.56 21.8321V24.9873C27.56 25.8079 27.2303 26.595 26.643 27.1765C26.0558 27.7579 25.2589 28.0864 24.4266 28.0898L24.5333 28.1161ZM10.6666 7.08186H7.47997C7.3235 7.09206 7.17075 7.13344 7.03096 7.20348C6.89116 7.27353 6.76723 7.3708 6.66663 7.4894C6.56873 7.60051 6.49463 7.72999 6.4488 7.87007C6.40298 8.01014 6.38636 8.15791 6.39997 8.30448C6.72328 11.4028 7.77812 14.3834 9.47997 17.0074C11.0488 19.4351 13.1377 21.4948 15.6 23.0416C18.263 24.7373 21.2893 25.7994 24.44 26.1442C24.6038 26.1533 24.7678 26.1288 24.9216 26.0722C25.0753 26.0156 25.2155 25.9282 25.3333 25.8155C25.5456 25.6009 25.6651 25.3134 25.6666 25.0136V21.8716C25.6726 21.5949 25.5755 21.3257 25.3937 21.1149C25.2118 20.9041 24.9579 20.7664 24.68 20.7278C23.5784 20.5818 22.4964 20.3173 21.4533 19.9391C21.2478 19.8633 21.0247 19.8466 20.81 19.8908C20.5952 19.935 20.3976 20.0383 20.24 20.1888L18.9066 21.5035C18.7505 21.6536 18.5493 21.75 18.3332 21.7785C18.117 21.8069 17.8972 21.7658 17.7066 21.6612C14.8615 20.0761 12.5066 17.7587 10.8933 14.9566C10.7829 14.7698 10.7387 14.5522 10.7676 14.3379C10.7966 14.1237 10.8971 13.9251 11.0533 13.7734L12.3866 12.4587C12.5395 12.3063 12.6447 12.1137 12.6896 11.9039C12.7346 11.6941 12.7173 11.476 12.64 11.2756C12.2549 10.2475 11.9866 9.1805 11.84 8.09414C11.8069 7.81184 11.6684 7.55179 11.4515 7.36466C11.2346 7.17753 10.9548 7.07672 10.6666 7.08186Z" fill="#3F4E4F"/>
</svg>
