<svg width="27" height="23" viewBox="0 0 27 23" fill="none" xmlns="http://www.w3.org/2000/svg">
<path d="M22.9501 1.12311H4.0501C2.5651 1.12311 1.3501 2.13831 1.3501 3.37911V19.1711C1.3501 20.413 2.5651 21.4271 4.0501 21.4271H13.5001V13.5311H10.8001V10.7393H13.5001V8.42691C13.5001 5.98591 15.1363 4.27136 18.5842 4.27136L21.0182 4.27361V7.21205H19.4023C18.0604 7.21205 17.5501 8.05354 17.5501 8.83411V10.7404H21.0169L20.2501 13.5311H17.5501V21.4271H22.9501C24.4351 21.4271 25.6501 20.413 25.6501 19.1711V3.37911C25.6501 2.13831 24.4351 1.12311 22.9501 1.12311Z" fill="#3F4E4F"/>
</svg>
