<svg width="27" height="26" viewBox="0 0 27 26" fill="none" xmlns="http://www.w3.org/2000/svg">
<g clip-path="url(#clip0_490_886)">
<path d="M3.85714 1.61145C1.72969 1.61145 0 3.0567 0 4.83431V20.9486C0 22.7262 1.72969 24.1714 3.85714 24.1714H23.1429C25.2703 24.1714 27 22.7262 27 20.9486V4.83431C27 3.0567 25.2703 1.61145 23.1429 1.61145H3.85714ZM21.1721 10.0362C21.1721 14.4022 17.1944 19.4328 9.92612 19.4328C7.68415 19.4328 5.60491 18.889 3.85714 17.9523C4.17656 17.9826 4.48393 17.9926 4.80938 17.9926C6.6596 17.9926 8.35915 17.4689 9.71518 16.5826C7.97946 16.5524 6.52098 15.6007 6.02076 14.2914C6.62946 14.3669 7.1779 14.3669 7.80469 14.2309C5.99665 13.9238 4.64063 12.5943 4.64063 10.9879V10.9477C5.16496 11.1944 5.77969 11.3455 6.42455 11.3656C5.88214 11.0635 5.43616 10.6556 5.12879 10.1772C4.82143 9.69881 4.65871 9.15998 4.66473 8.61613C4.66473 8.00177 4.85759 7.43777 5.20112 6.94931C7.14777 8.95352 10.0708 10.2628 13.3493 10.4038C12.7888 8.16291 14.7958 6.34502 17.2065 6.34502C18.3455 6.34502 19.3701 6.74284 20.0933 7.38741C20.9853 7.24641 21.8411 6.96945 22.6004 6.59177C22.3051 7.3572 21.6844 8.00177 20.8647 8.40966C21.6603 8.33916 22.4317 8.15284 23.1429 7.89602C22.6065 8.5557 21.9315 9.13984 21.16 9.60816C21.1721 9.74916 21.1721 9.8952 21.1721 10.0362Z" fill="#3F4E4F"/>
</g>
<defs>
<clipPath id="clip0_490_886">
<rect width="27" height="25.7829" fill="white"/>
</clipPath>
</defs>
</svg>
