<svg width="32" height="30" viewBox="0 0 32 30" fill="none" xmlns="http://www.w3.org/2000/svg">
<path d="M24.5333 25.2212H24.2266C20.7717 24.891 17.4523 23.8561 14.5333 22.1992C11.8215 20.6819 9.51914 18.6632 7.78663 16.2839C5.89617 13.7128 4.71799 10.7882 4.34663 7.74484C4.30417 7.38184 4.34609 7.01504 4.46986 6.6667C4.59363 6.31837 4.79666 5.99575 5.06663 5.71842C5.32922 5.43738 5.65333 5.20549 6.01977 5.03648C6.38621 4.86748 6.78753 4.76479 7.19997 4.7345H10.6666C11.4174 4.73516 12.1433 4.97166 12.713 5.40127C13.2827 5.83088 13.6588 6.4253 13.7733 7.07718C13.8999 7.91454 14.137 8.7361 14.48 9.52528C14.6886 10.0212 14.7316 10.5591 14.6041 11.0758C14.4765 11.5925 14.1837 12.0665 13.76 12.4419L12.9466 13.1564C14.2272 14.9324 15.9449 16.4334 17.9733 17.549L18.7866 16.8461C19.214 16.4739 19.7535 16.2167 20.3416 16.1046C20.9298 15.9926 21.5421 16.0304 22.1066 16.2136C23.0059 16.5121 23.9408 16.7204 24.8933 16.8344C25.648 16.9341 26.3353 17.2723 26.8263 17.7856C27.3173 18.2989 27.5782 18.952 27.56 19.6222V22.4334C27.56 23.1646 27.2303 23.8659 26.643 24.384C26.0558 24.9021 25.2589 25.1947 24.4266 25.1978L24.5333 25.2212ZM10.6666 6.47979H7.47997C7.3235 6.48888 7.17075 6.52575 7.03096 6.58816C6.89116 6.65057 6.76723 6.73723 6.66663 6.84291C6.56873 6.9419 6.49463 7.05727 6.4488 7.18208C6.40298 7.30688 6.38636 7.43855 6.39997 7.56914C6.72328 10.3297 7.77812 12.9854 9.47997 15.3234C11.0488 17.4865 13.1377 19.3216 15.6 20.6999C18.263 22.2107 21.2893 23.157 24.44 23.4642C24.6038 23.4723 24.7678 23.4505 24.9216 23.4001C25.0753 23.3497 25.2155 23.2718 25.3333 23.1714C25.5456 22.9802 25.6651 22.724 25.6666 22.4569V19.6574C25.6726 19.4109 25.5755 19.171 25.3937 18.9832C25.2118 18.7953 24.9579 18.6726 24.68 18.6383C23.5784 18.5082 22.4964 18.2725 21.4533 17.9355C21.2478 17.868 21.0247 17.8531 20.81 17.8925C20.5952 17.9319 20.3976 18.0239 20.24 18.158L18.9066 19.3294C18.7505 19.4631 18.5493 19.5491 18.3332 19.5744C18.117 19.5997 17.8972 19.5631 17.7066 19.4699C14.8615 18.0576 12.5066 15.9928 10.8933 13.4961C10.7829 13.3298 10.7387 13.1358 10.7676 12.9449C10.7966 12.754 10.8971 12.577 11.0533 12.4419L12.3866 11.2706C12.5395 11.1347 12.6447 10.9631 12.6896 10.7762C12.7346 10.5892 12.7173 10.3949 12.64 10.2164C12.2549 9.30036 11.9866 8.34967 11.84 7.38172C11.8069 7.1302 11.6684 6.8985 11.4515 6.73177C11.2346 6.56503 10.9548 6.47521 10.6666 6.47979Z" fill="#3F4E4F"/>
</svg>
