<svg width="27" height="21" viewBox="0 0 27 21" fill="none" xmlns="http://www.w3.org/2000/svg">
<path d="M22.9501 1.77441H4.0501C2.5651 1.77441 1.3501 2.67621 1.3501 3.77841V17.8064C1.3501 18.9096 2.5651 19.8104 4.0501 19.8104H13.5001V12.7964H10.8001V10.3165H13.5001V8.26236C13.5001 6.09404 15.1363 4.571 18.5842 4.571L21.0182 4.573V7.18321H19.4023C18.0604 7.18321 17.5501 7.9307 17.5501 8.62409V10.3175H21.0169L20.2501 12.7964H17.5501V19.8104H22.9501C24.4351 19.8104 25.6501 18.9096 25.6501 17.8064V3.77841C25.6501 2.67621 24.4351 1.77441 22.9501 1.77441Z" fill="#3F4E4F"/>
</svg>
