<svg width="27" height="24" viewBox="0 0 27 24" fill="none" xmlns="http://www.w3.org/2000/svg">
<path d="M22.95 1.25586H4.04998C2.56498 1.25586 1.34998 2.31426 1.34998 3.60786V20.0719C1.34998 21.3666 2.56498 22.4239 4.04998 22.4239H13.5V14.1919H10.8V11.2813H13.5V8.87046C13.5 6.3256 15.1362 4.53808 18.5841 4.53808L21.0181 4.54043V7.60391H19.4022C18.0603 7.60391 17.55 8.4812 17.55 9.295V11.2824H21.0168L20.25 14.1919H17.55V22.4239H22.95C24.435 22.4239 25.65 21.3666 25.65 20.0719V3.60786C25.65 2.31426 24.435 1.25586 22.95 1.25586Z" fill="#3F4E4F"/>
</svg>
