<svg width="30" height="29" viewBox="0 0 30 29" fill="none" xmlns="http://www.w3.org/2000/svg">
<g clip-path="url(#clip0_582_285)">
<path fill-rule="evenodd" clip-rule="evenodd" d="M3.75 6.82398H26.25C26.4986 6.82398 26.7371 6.91445 26.9129 7.07547C27.0887 7.2365 27.1875 7.4549 27.1875 7.68263V8.66492L15 15.0429L2.8125 8.66492V7.68263C2.8125 7.4549 2.91127 7.2365 3.08709 7.07547C3.2629 6.91445 3.50136 6.82398 3.75 6.82398ZM2.8125 11.6324V21.4209C2.8125 21.6487 2.91127 21.8671 3.08709 22.0281C3.2629 22.1891 3.50136 22.2796 3.75 22.2796H26.25C26.4986 22.2796 26.7371 22.1891 26.9129 22.0281C27.0887 21.8671 27.1875 21.6487 27.1875 21.4209V11.6324L15.6975 17.6429L15 18.0104L14.3025 17.6429L2.8125 11.6324ZM0 7.68263C0 6.77172 0.395088 5.89812 1.09835 5.25401C1.80161 4.6099 2.75544 4.24805 3.75 4.24805H26.25C27.2446 4.24805 28.1984 4.6099 28.9016 5.25401C29.6049 5.89812 30 6.77172 30 7.68263V21.4209C30 22.3319 29.6049 23.2055 28.9016 23.8496C28.1984 24.4937 27.2446 24.8555 26.25 24.8555H3.75C2.75544 24.8555 1.80161 24.4937 1.09835 23.8496C0.395088 23.2055 0 22.3319 0 21.4209V7.68263Z" fill="#3F4E4F"/>
</g>
<defs>
<clipPath id="clip0_582_285">
<rect width="30" height="27.4766" fill="white" transform="translate(0 0.813477)"/>
</clipPath>
</defs>
</svg>
