<svg width="32" height="30" viewBox="0 0 32 30" fill="none" xmlns="http://www.w3.org/2000/svg">
<path d="M24.5333 25.3585H24.2266C20.7717 25.0142 17.4523 23.9353 14.5333 22.2078C11.8215 20.626 9.51914 18.5214 7.78663 16.0409C5.89617 13.3604 4.71799 10.3113 4.34663 7.13844C4.30417 6.75999 4.34609 6.37759 4.46986 6.01443C4.59363 5.65127 4.79666 5.31492 5.06663 5.02579C5.32922 4.7328 5.65333 4.49104 6.01977 4.31484C6.38621 4.13864 6.78753 4.03158 7.19997 4H10.6666C11.4174 4.00069 12.1433 4.24725 12.713 4.69515C13.2827 5.14304 13.6588 5.76275 13.7733 6.44237C13.8999 7.31536 14.137 8.17189 14.48 8.99464C14.6886 9.51167 14.7316 10.0725 14.6041 10.6112C14.4765 11.1498 14.1837 11.644 13.76 12.0354L12.9466 12.7803C14.2272 14.6319 15.9449 16.1968 17.9733 17.3598L18.7866 16.627C19.214 16.239 19.7535 15.9708 20.3416 15.8539C20.9298 15.7371 21.5421 15.7766 22.1066 15.9676C23.0059 16.2788 23.9408 16.4959 24.8933 16.6148C25.648 16.7187 26.3353 17.0713 26.8263 17.6065C27.3173 18.1416 27.5782 18.8225 27.56 19.5212V22.4521C27.56 23.2143 27.2303 23.9455 26.643 24.4857C26.0558 25.0258 25.2589 25.3308 24.4266 25.3341L24.5333 25.3585ZM10.6666 5.81956H7.47997C7.3235 5.82904 7.17075 5.86747 7.03096 5.93254C6.89116 5.99761 6.76723 6.08796 6.66663 6.19813C6.56873 6.30134 6.49463 6.42162 6.4488 6.55173C6.40298 6.68185 6.38636 6.81911 6.39997 6.95526C6.72328 9.83332 7.77812 12.602 9.47997 15.0395C11.0488 17.2946 13.1377 19.2078 15.6 20.6447C18.263 22.2198 21.2893 23.2065 24.44 23.5267C24.6038 23.5352 24.7678 23.5124 24.9216 23.4599C25.0753 23.4073 25.2155 23.3261 25.3333 23.2214C25.5456 23.0221 25.6651 22.755 25.6666 22.4765V19.5579C25.6726 19.3009 25.5755 19.0508 25.3937 18.855C25.2118 18.6592 24.9579 18.5313 24.68 18.4955C23.5784 18.3598 22.4964 18.1141 21.4533 17.7627C21.2478 17.6924 21.0247 17.6768 20.81 17.7179C20.5952 17.759 20.3976 17.855 20.24 17.9948L18.9066 19.2159C18.7505 19.3554 18.5493 19.445 18.3332 19.4714C18.117 19.4978 17.8972 19.4596 17.7066 19.3625C14.8615 17.89 12.5066 15.7374 10.8933 13.1345C10.7829 12.961 10.7387 12.7588 10.7676 12.5598C10.7966 12.3608 10.8971 12.1763 11.0533 12.0354L12.3866 10.8142C12.5395 10.6726 12.6447 10.4936 12.6896 10.2988C12.7346 10.1039 12.7173 9.90129 12.64 9.71514C12.2549 8.76015 11.9866 7.76901 11.84 6.75988C11.8069 6.49765 11.6684 6.25609 11.4515 6.08226C11.2346 5.90843 10.9548 5.81479 10.6666 5.81956Z" fill="#3F4E4F"/>
</svg>
