<svg width="27" height="27" viewBox="0 0 27 27" fill="none" xmlns="http://www.w3.org/2000/svg">
<g clip-path="url(#clip0_582_273)">
<path d="M3.85714 1.67969C1.72969 1.67969 0 3.18644 0 5.03969V21.8397C0 23.6929 1.72969 25.1997 3.85714 25.1997H23.1429C25.2703 25.1997 27 23.6929 27 21.8397V5.03969C27 3.18644 25.2703 1.67969 23.1429 1.67969H3.85714ZM21.1721 10.4629C21.1721 15.0147 17.1944 20.2594 9.92612 20.2594C7.68415 20.2594 5.60491 19.6924 3.85714 18.7159C4.17656 18.7474 4.48393 18.7579 4.80938 18.7579C6.6596 18.7579 8.35915 18.2119 9.71518 17.2879C7.97946 17.2564 6.52098 16.2642 6.02076 14.8992C6.62946 14.9779 7.1779 14.9779 7.80469 14.8362C5.99665 14.5159 4.64063 13.1299 4.64063 11.4552V11.4132C5.16496 11.6704 5.77969 11.8279 6.42455 11.8489C5.88214 11.5339 5.43616 11.1087 5.12879 10.6099C4.82143 10.1112 4.65871 9.54944 4.66473 8.98244C4.66473 8.34194 4.85759 7.75394 5.20112 7.24469C7.14777 9.33419 10.0708 10.6992 13.3493 10.8462C12.7888 8.50994 14.7958 6.61469 17.2065 6.61469C18.3455 6.61469 19.3701 7.02944 20.0933 7.70144C20.9853 7.55444 21.8411 7.26569 22.6004 6.87194C22.3051 7.66994 21.6844 8.34194 20.8647 8.76719C21.6603 8.69369 22.4317 8.49944 23.1429 8.23169C22.6065 8.91944 21.9315 9.52844 21.16 10.0167C21.1721 10.1637 21.1721 10.3159 21.1721 10.4629Z" fill="#3F4E4F"/>
</g>
<defs>
<clipPath id="clip0_582_273">
<rect width="27" height="26.88" fill="white"/>
</clipPath>
</defs>
</svg>
