<svg width="128" height="128" viewBox="0 0 128 128" fill="none" xmlns="http://www.w3.org/2000/svg">
<g clip-path="url(#clip0_557_1270)">
<path d="M64 121.73C32.16 121.73 6.26001 95.8295 6.26001 63.9995C6.26001 32.1695 32.16 6.26953 64 6.26953C95.83 6.26953 121.73 32.1695 121.73 64.0095C121.73 95.8495 95.84 121.73 64 121.73Z" fill="white"/>
<path d="M64 0.0996094C28.77 0.0996094 0.100006 28.7696 0.100006 63.9996C0.100006 99.2296 28.77 127.89 64 127.89C99.23 127.89 127.9 99.2296 127.9 63.9996C127.9 28.7696 99.24 0.0996094 64 0.0996094ZM64 121.73C32.16 121.73 6.26001 95.8296 6.26001 63.9996C6.26001 32.1696 32.16 6.26961 64 6.26961C95.83 6.26961 121.73 32.1696 121.73 64.0096C121.73 95.8496 95.84 121.73 64 121.73Z" fill="#40C0E7"/>
<path d="M68.61 55.4201V11.3301H59.4V55.4101C56.33 57.0601 54.22 60.2501 54.22 63.9801C54.22 65.8801 54.78 67.6401 55.71 69.1401L43.37 90.5301L51.34 95.1401L63.69 73.7501C63.8 73.7501 63.89 73.7801 64 73.7801C69.4 73.7801 73.78 69.4001 73.78 63.9901C73.79 60.2701 71.67 57.0701 68.61 55.4201ZM62.6 67.4101L62.54 67.3801C61.8767 67.0961 61.3116 66.6233 60.915 66.0205C60.5185 65.4177 60.3081 64.7116 60.31 63.9901C60.31 61.9501 61.96 60.3101 64 60.3101C64.19 60.3101 64.37 60.3401 64.56 60.3701C65.49 60.5101 66.3 61.0001 66.87 61.7001C67.38 62.3301 67.7 63.1201 67.7 63.9901C67.7 65.5101 66.78 66.8201 65.46 67.3801L65.4 67.4101C64.97 67.5901 64.5 67.6901 64.01 67.6901C63.51 67.6901 63.04 67.5901 62.6 67.4101ZM113.93 60.3201C112.953 60.3201 112.015 60.7083 111.324 61.3994C110.633 62.0905 110.245 63.0278 110.245 64.0051C110.245 64.9824 110.633 65.9197 111.324 66.6108C112.015 67.3018 112.953 67.6901 113.93 67.6901C115.96 67.6901 117.62 66.0401 117.62 64.0101C117.62 61.9701 115.96 60.3201 113.93 60.3201ZM109.08 42.2301C109.925 41.7388 110.542 40.9329 110.795 39.9885C111.048 39.0442 110.916 38.0381 110.43 37.1901C110.189 36.7709 109.867 36.4034 109.483 36.1087C109.1 35.8139 108.662 35.5977 108.195 35.4723C107.728 35.3469 107.24 35.3148 106.761 35.378C106.281 35.4411 105.819 35.5981 105.4 35.8401C104.555 36.3314 103.938 37.1372 103.685 38.0816C103.432 39.026 103.564 40.0321 104.05 40.8801C104.54 41.7244 105.344 42.3405 106.286 42.5935C107.229 42.8465 108.233 42.7158 109.08 42.2301ZM90.81 17.5701C90.3915 17.3269 89.929 17.1689 89.4492 17.1052C88.9693 17.0414 88.4816 17.0732 88.0141 17.1987C87.5467 17.3241 87.1086 17.5408 86.7252 17.8362C86.3417 18.1317 86.0205 18.5 85.78 18.9201C85.5383 19.339 85.3815 19.8014 85.3185 20.2809C85.2555 20.7604 85.2876 21.2476 85.413 21.7147C85.5384 22.1818 85.7545 22.6197 86.0491 23.0032C86.3437 23.3868 86.711 23.7085 87.13 23.9501C88.9 24.9701 91.15 24.3601 92.17 22.6001C93.17 20.8401 92.57 18.5901 90.81 17.5701Z" fill="#2F2F2F"/>
<path d="M40.8811 23.9432C42.6413 22.9273 43.2448 20.6767 42.2288 18.9165C41.2129 17.1562 38.9623 16.5528 37.2021 17.5687C35.4418 18.5846 34.8384 20.8352 35.8543 22.5955C36.8702 24.3557 39.1208 24.9592 40.8811 23.9432Z" fill="#2F2F2F"/>
<path d="M23.9425 40.87C24.9587 39.1099 24.3557 36.8592 22.5956 35.843C20.8354 34.8268 18.5848 35.4299 17.5686 37.19C16.5524 38.9501 17.1554 41.2007 18.9156 42.217C20.6757 43.2332 22.9263 42.6301 23.9425 40.87Z" fill="#2F2F2F"/>
<path d="M14.07 60.3203C12.04 60.3203 10.39 61.9703 10.39 64.0003C10.39 66.0403 12.04 67.6803 14.07 67.6803C16.1 67.6903 17.75 66.0303 17.75 64.0003C17.75 61.9703 16.1 60.3203 14.07 60.3203ZM18.91 85.7803C18.0657 86.2699 17.4496 87.074 17.1966 88.0166C16.9436 88.9593 17.0743 89.9638 17.56 90.8103C17.8016 91.2293 18.1233 91.5966 18.5069 91.8912C18.8904 92.1858 19.3283 92.4019 19.7954 92.5273C20.2625 92.6527 20.7497 92.6848 21.2292 92.6218C21.7087 92.5588 22.1711 92.402 22.59 92.1603C23.0102 91.9186 23.3786 91.5964 23.674 91.2121C23.9694 90.8277 24.186 90.3888 24.3114 89.9206C24.4368 89.4524 24.4686 88.964 24.4049 88.4834C24.3411 88.0029 24.1832 87.5397 23.94 87.1203C22.93 85.3603 20.68 84.7603 18.91 85.7803ZM40.87 104.05C40.4512 103.808 39.9888 103.651 39.5092 103.588C39.0296 103.525 38.5423 103.557 38.0751 103.683C37.608 103.808 37.1701 104.024 36.7866 104.319C36.403 104.614 36.0814 104.981 35.84 105.4C35.3543 106.247 35.2236 107.251 35.4766 108.194C35.7296 109.137 36.3457 109.941 37.19 110.43C37.6088 110.672 38.0713 110.829 38.5508 110.892C39.0304 110.956 39.5177 110.923 39.9849 110.798C40.4521 110.673 40.8899 110.456 41.2735 110.162C41.657 109.867 41.9786 109.499 42.22 109.08C43.24 107.33 42.63 105.07 40.87 104.05ZM63.99 110.25C61.95 110.25 60.31 111.9 60.31 113.94C60.31 115.97 61.96 117.62 63.99 117.62C66.02 117.62 67.68 115.97 67.67 113.94C67.69 111.9 66.03 110.25 63.99 110.25ZM87.12 104.06C86.7 104.301 86.3316 104.622 86.0362 105.005C85.7408 105.389 85.5241 105.827 85.3986 106.294C85.2731 106.762 85.2413 107.25 85.3051 107.729C85.3688 108.209 85.5268 108.672 85.77 109.09C86.0116 109.509 86.3333 109.877 86.7169 110.171C87.1004 110.466 87.5383 110.682 88.0054 110.807C88.4725 110.933 88.9597 110.965 89.4392 110.902C89.9187 110.839 90.3811 110.682 90.8 110.44C91.2201 110.2 91.5884 109.879 91.8839 109.495C92.1793 109.112 92.396 108.674 92.5214 108.206C92.6469 107.739 92.6787 107.251 92.6149 106.771C92.5512 106.291 92.3932 105.829 92.15 105.41C91.9086 104.991 91.587 104.624 91.2035 104.329C90.8199 104.034 90.3821 103.818 89.9149 103.693C89.4477 103.567 88.9604 103.535 88.4808 103.598C88.0013 103.661 87.5388 103.818 87.12 104.06ZM109.08 85.7803C108.661 85.5383 108.199 85.3813 107.719 85.3182C107.24 85.2551 106.752 85.2871 106.285 85.4125C105.818 85.5379 105.38 85.7542 104.997 86.0489C104.613 86.3437 104.291 86.7111 104.05 87.1303C103.807 87.5488 103.649 88.0113 103.585 88.4911C103.521 88.971 103.553 89.4587 103.679 89.9262C103.804 90.3937 104.021 90.8317 104.316 91.2151C104.612 91.5986 104.98 91.9198 105.4 92.1603C107.16 93.1803 109.41 92.5703 110.43 90.8203C111.45 89.0603 110.85 86.7903 109.08 85.7803Z" fill="#2F2F2F"/>
</g>
<defs>
<clipPath id="clip0_557_1270">
<rect width="128" height="128" fill="white"/>
</clipPath>
</defs>
</svg>
