<svg width="30" height="29" viewBox="0 0 30 29" fill="none" xmlns="http://www.w3.org/2000/svg">
<path d="M15 4.20964C12.6794 4.20964 10.4538 5.05397 8.81282 6.55689C7.17187 8.05981 6.25 10.0982 6.25 12.2237C6.25 15.5003 8.4775 18.6612 10.9225 21.1101C12.1733 22.3569 13.5374 23.5044 15 24.5401C16.4626 23.5052 17.8266 22.3585 19.0775 21.1124C21.5225 18.6612 23.75 15.5014 23.75 12.2237C23.75 10.0982 22.8281 8.05981 21.1872 6.55689C19.5462 5.05397 17.3206 4.20964 15 4.20964ZM15 27.3518L14.2912 26.9053L14.2875 26.9031L14.28 26.8973L14.255 26.8813L14.1613 26.8206C13.6437 26.476 13.1376 26.1171 12.6437 25.7445C11.378 24.7921 10.1863 23.76 9.0775 22.6556C6.5225 20.0957 3.75 16.3875 3.75 12.2237C3.75 9.49094 4.93526 6.87014 7.04505 4.93782C9.15483 3.00549 12.0163 1.91992 15 1.91992C17.9837 1.91992 20.8452 3.00549 22.955 4.93782C25.0647 6.87014 26.25 9.49094 26.25 12.2237C26.25 16.3875 23.4775 20.0969 20.9225 22.6556C19.4748 24.0978 17.8866 25.416 16.1775 26.5939C16.0351 26.6914 15.8913 26.7872 15.7463 26.8813L15.72 26.8973L15.7125 26.9031L15.71 26.9042L15 27.3507V27.3518ZM15 9.93394C14.337 9.93394 13.7011 10.1752 13.2322 10.6046C12.7634 11.034 12.5 11.6164 12.5 12.2237C12.5 12.8309 12.7634 13.4133 13.2322 13.8427C13.7011 14.2721 14.337 14.5134 15 14.5134C15.663 14.5134 16.2989 14.2721 16.7678 13.8427C17.2366 13.4133 17.5 12.8309 17.5 12.2237C17.5 11.6164 17.2366 11.034 16.7678 10.6046C16.2989 10.1752 15.663 9.93394 15 9.93394ZM10 12.2237C10 11.0091 10.5268 9.84432 11.4645 8.98551C12.4021 8.1267 13.6739 7.64422 15 7.64422C16.3261 7.64422 17.5979 8.1267 18.5355 8.98551C19.4732 9.84432 20 11.0091 20 12.2237C20 13.4382 19.4732 14.603 18.5355 15.4618C17.5979 16.3206 16.3261 16.8031 15 16.8031C13.6739 16.8031 12.4021 16.3206 11.4645 15.4618C10.5268 14.603 10 13.4382 10 12.2237Z" fill="#3F4E4F"/>
</svg>
