<svg width="28" height="24" viewBox="0 0 28 24" fill="none" xmlns="http://www.w3.org/2000/svg">
<path d="M8.41301 0.378906H19.753C24.073 0.378906 27.583 3.4365 27.583 7.1997V17.0781C27.583 18.8871 26.7581 20.622 25.2897 21.9011C23.8212 23.1803 21.8297 23.8989 19.753 23.8989H8.41301C4.09301 23.8989 0.583008 20.8413 0.583008 17.0781V7.1997C0.583008 5.39072 1.40795 3.65582 2.87636 2.37667C4.34477 1.09752 6.33636 0.378906 8.41301 0.378906ZM8.14301 2.73091C6.85406 2.73091 5.6179 3.17694 4.70647 3.9709C3.79504 4.76485 3.28301 5.84168 3.28301 6.9645V17.3133C3.28301 19.6535 5.45651 21.5469 8.14301 21.5469H20.023C21.312 21.5469 22.5481 21.1009 23.4595 20.3069C24.371 19.513 24.883 18.4361 24.883 17.3133V6.9645C24.883 4.62426 22.7095 2.73091 20.023 2.73091H8.14301ZM21.1705 4.4949C21.6181 4.4949 22.0473 4.64978 22.3638 4.92546C22.6802 5.20114 22.858 5.57504 22.858 5.9649C22.858 6.35477 22.6802 6.72867 22.3638 7.00435C22.0473 7.28003 21.6181 7.4349 21.1705 7.4349C20.723 7.4349 20.2937 7.28003 19.9773 7.00435C19.6608 6.72867 19.483 6.35477 19.483 5.9649C19.483 5.57504 19.6608 5.20114 19.9773 4.92546C20.2937 4.64978 20.723 4.4949 21.1705 4.4949ZM14.083 6.2589C15.8732 6.2589 17.5901 6.8784 18.856 7.98111C20.1218 9.08383 20.833 10.5794 20.833 12.1389C20.833 13.6984 20.1218 15.194 18.856 16.2967C17.5901 17.3994 15.8732 18.0189 14.083 18.0189C12.2928 18.0189 10.5759 17.3994 9.31004 16.2967C8.04417 15.194 7.33301 13.6984 7.33301 12.1389C7.33301 10.5794 8.04417 9.08383 9.31004 7.98111C10.5759 6.8784 12.2928 6.2589 14.083 6.2589ZM14.083 8.6109C13.0089 8.6109 11.9787 8.9826 11.2192 9.64423C10.4597 10.3059 10.033 11.2032 10.033 12.1389C10.033 13.0746 10.4597 13.9719 11.2192 14.6336C11.9787 15.2952 13.0089 15.6669 14.083 15.6669C15.1571 15.6669 16.1873 15.2952 16.9468 14.6336C17.7063 13.9719 18.133 13.0746 18.133 12.1389C18.133 11.2032 17.7063 10.3059 16.9468 9.64423C16.1873 8.9826 15.1571 8.6109 14.083 8.6109Z" fill="#3F4E4F"/>
</svg>
